G04 DipTrace 3.3.1.3*
G04 BottomMask.gbr*
%MOIN*%
G04 #@! TF.FileFunction,Soldermask,Bot*
G04 #@! TF.Part,Single*
%AMOUTLINE9*
4,1,4,
0.049213,0.023622,
0.049213,-0.023622,
-0.049213,-0.023622,
-0.049213,0.023622,
0.049213,0.023622,
0*%
%AMOUTLINE10*
4,1,4,
-0.049213,-0.023622,
-0.049213,0.023622,
0.049213,0.023622,
0.049213,-0.023622,
-0.049213,-0.023622,
0*%
%ADD41C,0.047244*%
%ADD42C,0.11811*%
%ADD55O,0.043313X0.070872*%
%ADD63C,0.08662*%
%ADD65C,0.06788*%
%ADD67R,0.06788X0.06788*%
%ADD79OUTLINE9*%
%ADD80OUTLINE10*%
%FSLAX26Y26*%
G04*
G70*
G90*
G75*
G01*
G04 BotMask*
%LPD*%
D67*
X466641Y1583336D3*
D65*
Y1483336D3*
D67*
X477976Y1881722D3*
D65*
X577976D3*
X677976D3*
D67*
X466504Y638642D3*
D65*
Y738642D3*
D67*
X1289764Y1884823D3*
D65*
X1389764D3*
X1489764D3*
D79*
X628040Y825350D3*
X883945Y624562D3*
D80*
Y506452D3*
D79*
Y782043D3*
D41*
X755993Y443460D3*
Y719050D3*
D67*
X1091452Y1883432D3*
D65*
X991452D3*
X891452D3*
D67*
X1502691Y1702241D3*
D65*
X1402691D3*
X1302691D3*
D67*
X689204Y1720235D3*
D65*
Y1620235D3*
Y1520235D3*
D63*
X1453294Y939477D3*
X1453924Y840856D3*
X1453846Y740855D3*
X1353531Y940225D3*
X1352783Y840894D3*
X1353373Y740225D3*
D55*
X1467267Y456724D3*
X1207527Y456850D3*
D67*
X1507031Y1397793D3*
D65*
Y1497793D3*
D67*
X469140Y1125085D3*
D65*
Y1225085D3*
D42*
X494480Y498364D3*
X1475641Y1100489D3*
X505884Y1724829D3*
M02*
