G04 DipTrace 3.3.1.3*
G04 BottomSilk.gbr*
%MOIN*%
G04 #@! TF.FileFunction,Legend,Bot*
G04 #@! TF.Part,Single*
%ADD10C,0.009843*%
%ADD25C,0.01*%
%ADD68C,0.003088*%
%FSLAX26Y26*%
G04*
G70*
G90*
G75*
G01*
G04 BotSilk*
%LPD*%
X626060Y400177D2*
D25*
Y793864D1*
X885926Y860783D2*
X626060D1*
X885926D2*
Y813543D1*
Y656057D2*
Y750537D1*
Y537928D2*
Y593051D1*
Y400177D2*
Y474979D1*
X937653Y673680D2*
D10*
X1537653D1*
Y513680D1*
X937653D1*
Y673680D1*
X957466Y896025D2*
D68*
Y875929D1*
X950767D1*
X947893Y876901D1*
X945969Y878803D1*
X945019Y880726D1*
X944068Y883578D1*
Y888375D1*
X945019Y891249D1*
X945969Y893151D1*
X947893Y895074D1*
X950767Y896025D1*
X957466D1*
X924495Y893151D2*
X926396Y895074D1*
X929270Y896025D1*
X933095D1*
X935969Y895074D1*
X937893Y893151D1*
Y891249D1*
X936920Y889326D1*
X935969Y888375D1*
X934068Y887425D1*
X928320Y885501D1*
X926396Y884551D1*
X925446Y883578D1*
X924495Y881677D1*
Y878803D1*
X926396Y876901D1*
X929270Y875929D1*
X933095D1*
X935969Y876901D1*
X937893Y878803D1*
X918319Y892178D2*
X916396Y893151D1*
X913522Y896003D1*
Y875929D1*
X902571Y896003D2*
X905423Y895052D1*
X906396Y893151D1*
Y891227D1*
X905423Y889326D1*
X903522Y888353D1*
X899697Y887403D1*
X896823Y886452D1*
X894922Y884529D1*
X893971Y882627D1*
Y879753D1*
X894922Y877852D1*
X895872Y876879D1*
X898746Y875929D1*
X902571D1*
X905423Y876879D1*
X906396Y877852D1*
X907346Y879753D1*
Y882627D1*
X906396Y884529D1*
X904472Y886452D1*
X901620Y887403D1*
X897796Y888353D1*
X895872Y889326D1*
X894922Y891227D1*
Y893151D1*
X895872Y895052D1*
X898746Y896003D1*
X902571D1*
X887795Y896025D2*
Y875929D1*
X879173D1*
X876299Y876901D1*
X875349Y877852D1*
X874398Y879753D1*
Y882627D1*
X875349Y884551D1*
X876299Y885501D1*
X879173Y886452D1*
X876299Y887425D1*
X875349Y888375D1*
X874398Y890277D1*
Y892200D1*
X875349Y894101D1*
X876299Y895074D1*
X879173Y896025D1*
X887795D1*
Y886452D2*
X879173D1*
X867250Y891227D2*
Y892178D1*
X866299Y894101D1*
X865348Y895052D1*
X863425Y896003D1*
X859600D1*
X857699Y895052D1*
X856748Y894101D1*
X855776Y892178D1*
Y890277D1*
X856748Y888353D1*
X858650Y885501D1*
X868222Y875929D1*
X854825D1*
X842901Y896003D2*
X845775Y895052D1*
X847699Y892178D1*
X848649Y887403D1*
Y884529D1*
X847699Y879753D1*
X845775Y876879D1*
X842901Y875929D1*
X841000D1*
X838126Y876879D1*
X836225Y879753D1*
X835252Y884529D1*
Y887403D1*
X836225Y892178D1*
X838126Y895052D1*
X841000Y896003D1*
X842901D1*
X836225Y892178D2*
X847699Y879753D1*
X1529472Y1796439D2*
X1541919D1*
Y1776343D1*
Y1786867D2*
X1534270D1*
X1516598Y1796439D2*
Y1776343D1*
X1523296Y1796439D2*
X1509899D1*
X1503723D2*
Y1776343D1*
X1497025D1*
X1494151Y1777316D1*
X1492227Y1779217D1*
X1491277Y1781141D1*
X1490326Y1783993D1*
Y1788790D1*
X1491277Y1791664D1*
X1492227Y1793565D1*
X1494151Y1795489D1*
X1497025Y1796439D1*
X1503723D1*
X1484150D2*
Y1776343D1*
X1485265Y633357D2*
Y618036D1*
X1486215Y615184D1*
X1487166Y614211D1*
X1489089Y613261D1*
X1491963D1*
X1493865Y614211D1*
X1485265Y630483D2*
X1487166Y632384D1*
X1489089Y633357D1*
X1491963D1*
X1493865Y632384D1*
X1495788Y630483D1*
X1496739Y627609D1*
Y625685D1*
X1495788Y622833D1*
X1493865Y620910D1*
X1491963Y619959D1*
X1489089D1*
X1487166Y620910D1*
X1485265Y622833D1*
X1479089Y641006D2*
X1478138Y640055D1*
X1477166Y641006D1*
X1478138Y641979D1*
X1479089Y641006D1*
X1478138Y634307D2*
Y620910D1*
X1468116Y641006D2*
Y624735D1*
X1467165Y621883D1*
X1465242Y620910D1*
X1463341D1*
X1470990Y634307D2*
X1464291D1*
X1457165Y641006D2*
Y620910D1*
Y630483D2*
X1454291Y633357D1*
X1452368Y634307D1*
X1449494D1*
X1447592Y633357D1*
X1446642Y630483D1*
Y620910D1*
X1440466Y634307D2*
Y624735D1*
X1439515Y621883D1*
X1437592Y620910D1*
X1434718D1*
X1432817Y621883D1*
X1429943Y624735D1*
Y634307D2*
Y620910D1*
X1423767Y641006D2*
Y620910D1*
Y631433D2*
X1421844Y633357D1*
X1419942Y634307D1*
X1417068D1*
X1415167Y633357D1*
X1413244Y631433D1*
X1412293Y628559D1*
Y626658D1*
X1413244Y623784D1*
X1415167Y621883D1*
X1417068Y620910D1*
X1419942D1*
X1421844Y621883D1*
X1423767Y623784D1*
X1405167Y622833D2*
X1406117Y621861D1*
X1405167Y620910D1*
X1404194Y621861D1*
X1405167Y622833D1*
X1386522Y631433D2*
X1388446Y633357D1*
X1390369Y634307D1*
X1393221D1*
X1395144Y633357D1*
X1397046Y631433D1*
X1398018Y628559D1*
Y626658D1*
X1397046Y623784D1*
X1395144Y621883D1*
X1393221Y620910D1*
X1390369D1*
X1388446Y621883D1*
X1386522Y623784D1*
X1375571Y634307D2*
X1377472Y633357D1*
X1379396Y631433D1*
X1380346Y628559D1*
Y626658D1*
X1379396Y623784D1*
X1377472Y621883D1*
X1375571Y620910D1*
X1372697D1*
X1370774Y621883D1*
X1368873Y623784D1*
X1367900Y626658D1*
Y628559D1*
X1368873Y631433D1*
X1370774Y633357D1*
X1372697Y634307D1*
X1375571D1*
X1361724D2*
Y620910D1*
Y630483D2*
X1358850Y633357D1*
X1356927Y634307D1*
X1354075D1*
X1352151Y633357D1*
X1351201Y630483D1*
Y620910D1*
Y630483D2*
X1348327Y633357D1*
X1346403Y634307D1*
X1343551D1*
X1341628Y633357D1*
X1340655Y630483D1*
Y620910D1*
X1334480D2*
X1321082Y640984D1*
X1314907Y634307D2*
X1311082Y620910D1*
X1307257Y634307D1*
X1303433Y620910D1*
X1299608Y634307D1*
X1281958Y633357D2*
Y618036D1*
X1282909Y615184D1*
X1283860Y614211D1*
X1285783Y613261D1*
X1288657D1*
X1290558Y614211D1*
X1281958Y630483D2*
X1283860Y632384D1*
X1285783Y633357D1*
X1288657D1*
X1290558Y632384D1*
X1292482Y630483D1*
X1293432Y627609D1*
Y625685D1*
X1292482Y622833D1*
X1290558Y620910D1*
X1288657Y619959D1*
X1285783D1*
X1283860Y620910D1*
X1281958Y622833D1*
X1275783Y641006D2*
X1274832Y640055D1*
X1273859Y641006D1*
X1274832Y641979D1*
X1275783Y641006D1*
X1274832Y634307D2*
Y620910D1*
X1267684Y641006D2*
Y620910D1*
X1261508Y641006D2*
Y620910D1*
X1243858Y634307D2*
Y620910D1*
Y631433D2*
X1245759Y633357D1*
X1247683Y634307D1*
X1250535D1*
X1252458Y633357D1*
X1254359Y631433D1*
X1255332Y628559D1*
Y626658D1*
X1254359Y623784D1*
X1252458Y621883D1*
X1250535Y620910D1*
X1247683D1*
X1245759Y621883D1*
X1243858Y623784D1*
X1227159Y631433D2*
X1228110Y633357D1*
X1230984Y634307D1*
X1233858D1*
X1236732Y633357D1*
X1237683Y631433D1*
X1236732Y629532D1*
X1234809Y628559D1*
X1230033Y627609D1*
X1228110Y626658D1*
X1227159Y624735D1*
Y623784D1*
X1228110Y621883D1*
X1230984Y620910D1*
X1233858D1*
X1236732Y621883D1*
X1237683Y623784D1*
X1220984Y634307D2*
Y614211D1*
Y631433D2*
X1219060Y633334D1*
X1217159Y634307D1*
X1214285D1*
X1212361Y633334D1*
X1210460Y631433D1*
X1209487Y628559D1*
Y626636D1*
X1210460Y623784D1*
X1212361Y621861D1*
X1214285Y620910D1*
X1217159D1*
X1219060Y621861D1*
X1220984Y623784D1*
X1202339Y634307D2*
X1196613Y620910D1*
X1198514Y617085D1*
X1200438Y615162D1*
X1202339Y614211D1*
X1203312D1*
X1190865Y634307D2*
X1196613Y620910D1*
X1184689D2*
X1171292Y640984D1*
X1162242Y641006D2*
Y624735D1*
X1161292Y621883D1*
X1159368Y620910D1*
X1157467D1*
X1165116Y634307D2*
X1158418D1*
X1151291Y628559D2*
X1139817D1*
Y630483D1*
X1140768Y632406D1*
X1141719Y633357D1*
X1143642Y634307D1*
X1146516D1*
X1148417Y633357D1*
X1150341Y631433D1*
X1151291Y628559D1*
Y626658D1*
X1150341Y623784D1*
X1148417Y621883D1*
X1146516Y620910D1*
X1143642D1*
X1141719Y621883D1*
X1139817Y623784D1*
X1133642Y634307D2*
Y620910D1*
Y630483D2*
X1130768Y633357D1*
X1128844Y634307D1*
X1125992D1*
X1124069Y633357D1*
X1123118Y630483D1*
Y620910D1*
Y630483D2*
X1120244Y633357D1*
X1118321Y634307D1*
X1115469D1*
X1113546Y633357D1*
X1112573Y630483D1*
Y620910D1*
X1106397Y634307D2*
Y614211D1*
Y631433D2*
X1104474Y633334D1*
X1102573Y634307D1*
X1099699D1*
X1097775Y633334D1*
X1095874Y631433D1*
X1094901Y628559D1*
Y626636D1*
X1095874Y623784D1*
X1097775Y621861D1*
X1099699Y620910D1*
X1102573D1*
X1104474Y621861D1*
X1106397Y623784D1*
X1088725Y630947D2*
X1077672D1*
X1060000Y631433D2*
X1061923Y633357D1*
X1063847Y634307D1*
X1066698D1*
X1068622Y633357D1*
X1070523Y631433D1*
X1071496Y628559D1*
Y626658D1*
X1070523Y623784D1*
X1068622Y621883D1*
X1066698Y620910D1*
X1063847D1*
X1061923Y621883D1*
X1060000Y623784D1*
X1049049Y634307D2*
X1050950Y633357D1*
X1052873Y631433D1*
X1053824Y628559D1*
Y626658D1*
X1052873Y623784D1*
X1050950Y621883D1*
X1049049Y620910D1*
X1046175D1*
X1044251Y621883D1*
X1042350Y623784D1*
X1041377Y626658D1*
Y628559D1*
X1042350Y631433D1*
X1044251Y633357D1*
X1046175Y634307D1*
X1049049D1*
X1035202D2*
Y620910D1*
Y630483D2*
X1032328Y633357D1*
X1030404Y634307D1*
X1027552D1*
X1025629Y633357D1*
X1024678Y630483D1*
Y620910D1*
X1015629Y641006D2*
Y624735D1*
X1014678Y621883D1*
X1012755Y620910D1*
X1010853D1*
X1018503Y634307D2*
X1011804D1*
X1496739Y598235D2*
Y584837D1*
Y592486D2*
X1495766Y595361D1*
X1493865Y597284D1*
X1491941Y598235D1*
X1489067D1*
X1482892Y592486D2*
X1471418D1*
Y594410D1*
X1472368Y596333D1*
X1473319Y597284D1*
X1475242Y598235D1*
X1478116D1*
X1480018Y597284D1*
X1481941Y595361D1*
X1482892Y592486D1*
Y590585D1*
X1481941Y587711D1*
X1480018Y585810D1*
X1478116Y584837D1*
X1475242D1*
X1473319Y585810D1*
X1471418Y587711D1*
X1465242Y604933D2*
Y584837D1*
X1459066Y592486D2*
X1447592D1*
Y594410D1*
X1448543Y596333D1*
X1449494Y597284D1*
X1451417Y598235D1*
X1454291D1*
X1456192Y597284D1*
X1458116Y595361D1*
X1459066Y592486D1*
Y590585D1*
X1458116Y587711D1*
X1456192Y585810D1*
X1454291Y584837D1*
X1451417D1*
X1449494Y585810D1*
X1447592Y587711D1*
X1429943Y598235D2*
Y584837D1*
Y595361D2*
X1431844Y597284D1*
X1433767Y598235D1*
X1436619D1*
X1438543Y597284D1*
X1440444Y595361D1*
X1441417Y592486D1*
Y590585D1*
X1440444Y587711D1*
X1438543Y585810D1*
X1436619Y584837D1*
X1433767D1*
X1431844Y585810D1*
X1429943Y587711D1*
X1413244Y595361D2*
X1414194Y597284D1*
X1417068Y598235D1*
X1419942D1*
X1422816Y597284D1*
X1423767Y595361D1*
X1422816Y593459D1*
X1420893Y592486D1*
X1416118Y591536D1*
X1414194Y590585D1*
X1413244Y588662D1*
Y587711D1*
X1414194Y585810D1*
X1417068Y584837D1*
X1419942D1*
X1422816Y585810D1*
X1423767Y587711D1*
X1407068Y592486D2*
X1395594D1*
Y594410D1*
X1396545Y596333D1*
X1397495Y597284D1*
X1399419Y598235D1*
X1402293D1*
X1404194Y597284D1*
X1406117Y595361D1*
X1407068Y592486D1*
Y590585D1*
X1406117Y587711D1*
X1404194Y585810D1*
X1402293Y584837D1*
X1399419D1*
X1397495Y585810D1*
X1395594Y587711D1*
X1360405Y584837D2*
Y604911D1*
X1369978Y591536D1*
X1355630D1*
X1348504Y586761D2*
X1349454Y585788D1*
X1348504Y584837D1*
X1347531Y585788D1*
X1348504Y586761D1*
X1340382Y600136D2*
Y601086D1*
X1339432Y603010D1*
X1338481Y603960D1*
X1336558Y604911D1*
X1332733D1*
X1330832Y603960D1*
X1329881Y603010D1*
X1328908Y601086D1*
Y599185D1*
X1329881Y597262D1*
X1331782Y594410D1*
X1341355Y584837D1*
X1327958D1*
X1495766Y564063D2*
Y565014D1*
X1494815Y566937D1*
X1493865Y567888D1*
X1491941Y568838D1*
X1488117D1*
X1486215Y567888D1*
X1485265Y566937D1*
X1484292Y565014D1*
Y563112D1*
X1485265Y561189D1*
X1487166Y558337D1*
X1496739Y548764D1*
X1483341D1*
X1471418Y568838D2*
X1474292Y567888D1*
X1476215Y565014D1*
X1477166Y560238D1*
Y557364D1*
X1476215Y552589D1*
X1474292Y549715D1*
X1471418Y548764D1*
X1469516D1*
X1466642Y549715D1*
X1464741Y552589D1*
X1463768Y557364D1*
Y560238D1*
X1464741Y565014D1*
X1466642Y567888D1*
X1469516Y568838D1*
X1471418D1*
X1464741Y565014D2*
X1476215Y552589D1*
X1457593Y565014D2*
X1455669Y565986D1*
X1452795Y568838D1*
Y548764D1*
X1434173Y562162D2*
X1435146Y559288D1*
X1437047Y557364D1*
X1439921Y556414D1*
X1440872D1*
X1443746Y557364D1*
X1445647Y559288D1*
X1446620Y562162D1*
Y563112D1*
X1445647Y565986D1*
X1443746Y567888D1*
X1440872Y568838D1*
X1439921D1*
X1437047Y567888D1*
X1435146Y565986D1*
X1434173Y562162D1*
Y557364D1*
X1435146Y552589D1*
X1437047Y549715D1*
X1439921Y548764D1*
X1441822D1*
X1444696Y549715D1*
X1445647Y551638D1*
X1427997Y558801D2*
X1416943D1*
X1410768Y565014D2*
X1408844Y565986D1*
X1405970Y568838D1*
Y548764D1*
X1398822Y564063D2*
Y565014D1*
X1397871Y566937D1*
X1396920Y567888D1*
X1394997Y568838D1*
X1391172D1*
X1389271Y567888D1*
X1388321Y566937D1*
X1387348Y565014D1*
Y563112D1*
X1388321Y561189D1*
X1390222Y558337D1*
X1399794Y548764D1*
X1386397D1*
X1380221Y558801D2*
X1369168D1*
X1362992Y565014D2*
X1361068Y565986D1*
X1358194Y568838D1*
Y548764D1*
X1350095Y568838D2*
X1339594D1*
X1345320Y561189D1*
X1342446D1*
X1340545Y560238D1*
X1339594Y559288D1*
X1338621Y556414D1*
Y554513D1*
X1339594Y551638D1*
X1341495Y549715D1*
X1344369Y548764D1*
X1347243D1*
X1350095Y549715D1*
X1351046Y550688D1*
X1352019Y552589D1*
M02*
