G04 DipTrace 3.3.1.3*
G04 BottomMask.gbr*
%MOIN*%
G04 #@! TF.FileFunction,Soldermask,Bot*
G04 #@! TF.Part,Single*
%AMOUTLINE8*
4,1,4,
0.049213,0.023622,
0.049213,-0.023622,
-0.049213,-0.023622,
-0.049213,0.023622,
0.049213,0.023622,
0*%
%AMOUTLINE9*
4,1,4,
-0.049213,-0.023622,
-0.049213,0.023622,
0.049213,0.023622,
0.049213,-0.023622,
-0.049213,-0.023622,
0*%
%AMOUTLINE18*
4,1,4,
-0.059055,0.019685,
0.059055,0.019685,
0.059055,-0.019685,
-0.059055,-0.019685,
-0.059055,0.019685,
0*%
%ADD39C,0.047244*%
%ADD40C,0.055118*%
%ADD41C,0.11811*%
%ADD54O,0.043313X0.070872*%
%ADD62C,0.08662*%
%ADD64C,0.06788*%
%ADD66R,0.06788X0.06788*%
%ADD77OUTLINE8*%
%ADD78OUTLINE9*%
%ADD87OUTLINE18*%
%FSLAX26Y26*%
G04*
G70*
G90*
G75*
G01*
G04 BotMask*
%LPD*%
D66*
X466641Y1583336D3*
D64*
Y1483336D3*
D66*
X466504Y638642D3*
D64*
Y738642D3*
D66*
X1378792Y1882134D3*
D64*
X1478792D3*
D77*
X628040Y825350D3*
X883945Y624562D3*
D78*
Y506452D3*
D77*
Y782043D3*
D39*
X755993Y443460D3*
Y719050D3*
D66*
X1105731Y1882134D3*
D64*
X1005731D3*
X905731D3*
D62*
X1453294Y939477D3*
X1453924Y840856D3*
X1453846Y740855D3*
X1353531Y940225D3*
X1352783Y840894D3*
X1353373Y740225D3*
D66*
X468688Y1270150D3*
D64*
Y1170150D3*
Y1070150D3*
D66*
X689204Y1720235D3*
D64*
Y1620235D3*
Y1520235D3*
D66*
X477976Y1881722D3*
D64*
X577976D3*
X677976D3*
D54*
X1467267Y456724D3*
X1207527Y456850D3*
D87*
X1301420Y1717150D3*
Y1617150D3*
Y1517150D3*
Y1417150D3*
Y1317150D3*
Y1217150D3*
D40*
X1498271Y1667150D3*
Y1267150D3*
D41*
X494480Y498364D3*
X1475641Y1100489D3*
X505884Y1724829D3*
M02*
