G04 DipTrace 3.3.1.3*
G04 Signal_1.gbr*
%MOIN*%
G04 #@! TF.FileFunction,Copper,L2,Inr*
G04 #@! TF.Part,Single*
G04 #@! TA.AperFunction,Conductor*
%ADD10C,0.009843*%
G04 #@! TA.AperFunction,ViaPad*
%ADD15C,0.04*%
G04 #@! TA.AperFunction,Conductor*
%ADD16C,0.015*%
G04 #@! TA.AperFunction,CopperBalancing*
%ADD18C,0.025*%
G04 #@! TA.AperFunction,ComponentPad*
%ADD19R,0.06X0.06*%
%ADD20C,0.06*%
%ADD30C,0.07874*%
%ADD36O,0.035433X0.062992*%
%FSLAX26Y26*%
G04*
G70*
G90*
G75*
G01*
G04 Inner1*
%LPD*%
X1141493Y1171112D2*
D10*
X836175D1*
X734936Y1069873D1*
X596441Y1127317D2*
X637229D1*
X769343Y1259431D1*
X1144409D1*
X1206476Y1197364D1*
Y1087280D1*
X1353531Y940225D1*
X592556Y1236440D2*
X707784D1*
X751661Y1280317D1*
X1158573D1*
X1229645Y1209245D1*
Y1121064D1*
X1346848Y1003860D1*
X1481888D1*
X1514230Y971518D1*
Y901162D1*
X1453924Y840856D1*
X990044Y847927D2*
Y967125D1*
X1043452Y1020533D1*
X1082480D1*
X1122222Y1060276D1*
X663662Y882224D2*
X731129D1*
X742297Y871056D1*
X837848D1*
X898598Y931805D1*
Y1064025D1*
X894247Y1068376D1*
X837848Y871056D2*
X909569D1*
X998878Y781746D1*
X1311852D1*
X1353373Y740225D1*
X730060Y1152759D2*
X767226Y1189926D1*
X854252D1*
X875422Y1211095D1*
X1154735D1*
X1180864Y1184966D1*
Y1012813D1*
X1352783Y840894D1*
X571569Y1039275D2*
Y1056978D1*
X552687Y1075860D1*
Y1257607D1*
X572749Y1277669D1*
X704928D1*
X775738Y1348478D1*
X892574D1*
X940961Y1396865D1*
Y1544386D1*
X1202535Y1299792D2*
Y1534716D1*
X1184077Y1557368D1*
X677976Y1881722D2*
Y1837831D1*
X759961Y1755846D1*
Y1438669D1*
X768504Y1430125D1*
X789701Y1816054D2*
D16*
X924074D1*
X991452Y1883432D1*
X702187Y1337144D2*
D10*
X738604Y1373561D1*
X873739D1*
X908275Y1408096D1*
Y1582323D1*
X927525Y1601574D1*
X1111310D1*
X1193529Y1683793D1*
Y1805510D1*
X1159645Y514100D2*
X1018216D1*
X1337621Y611970D2*
X1165600D1*
X1162669Y609039D1*
X1169263D1*
X1128228Y568003D1*
D15*
X1141493Y1171112D3*
X734936Y1069873D3*
X596441Y1127317D3*
X592556Y1236440D3*
X990044Y847927D3*
X1122222Y1060276D3*
X990044Y847927D3*
X663662Y882224D3*
X894247Y1068376D3*
X730060Y1152759D3*
X571569Y1039275D3*
X940961Y1544386D3*
X801876Y1003163D3*
X1202535Y1299792D3*
X1184077Y1557368D3*
X1060445Y973170D3*
X810545Y913193D3*
X768504Y1430125D3*
X1079697Y1120798D3*
X789701Y1816054D3*
X702187Y1337144D3*
X1193529Y1805510D3*
X1159645Y514100D3*
X1018216D3*
X1337621Y611970D3*
X1128228Y568003D3*
X1064375Y1068170D3*
X599254Y1317634D3*
X768810Y1036218D3*
X915378Y1137951D3*
X1177705Y828397D3*
X1231464Y729365D3*
X782224Y526405D3*
X507035Y820890D3*
X832856Y1226338D3*
X704691Y1112682D3*
X996968Y1684810D3*
X682342Y1419672D3*
X1350764Y1537920D3*
X1101957Y1773277D3*
X1380666Y1204141D3*
X1164016Y1360335D3*
X977624Y564742D3*
X1057829Y855380D3*
X1046012Y1905396D2*
D18*
X1230768D1*
X1050354Y1880527D2*
X1230768D1*
X1043141Y1855658D2*
X1230768D1*
X536959Y1830789D2*
X551050D1*
X604924D2*
X644851D1*
X1014434D2*
X1152002D1*
X1348767D2*
X1370788D1*
X1408730D2*
X1470797D1*
X1508739D2*
X1534169D1*
X441400Y1805920D2*
X476159D1*
X535631D2*
X662972D1*
X964519D2*
X1066346D1*
X1242514D2*
X1534276D1*
X572843Y1781052D2*
X687840D1*
X822813D2*
X1053608D1*
X1235553D2*
X1534384D1*
X587986Y1756183D2*
X712708D1*
X793854D2*
X1056227D1*
X1227443D2*
X1283410D1*
X1321962D2*
X1383419D1*
X1421971D2*
X1534527D1*
X593692Y1731314D2*
X726057D1*
X793890D2*
X1079444D1*
X1124455D2*
X1159609D1*
X1227443D2*
X1251760D1*
X1453621D2*
X1534635D1*
X591934Y1706445D2*
X726057D1*
X793890D2*
X1159609D1*
X1227443D2*
X1243866D1*
X1461515D2*
X1534779D1*
X582173Y1681577D2*
X726057D1*
X793890D2*
X1144395D1*
X1227371D2*
X1247633D1*
X1457747D2*
X1534886D1*
X560140Y1656708D2*
X643559D1*
X793890D2*
X1119527D1*
X1213376D2*
X1266760D1*
X1338612D2*
X1366769D1*
X1438621D2*
X1534994D1*
X441723Y1631839D2*
X631430D1*
X793890D2*
X916602D1*
X1188508D2*
X1535137D1*
X441758Y1606970D2*
X631789D1*
X793890D2*
X885993D1*
X1163641D2*
X1535245D1*
X441794Y1582102D2*
X645030D1*
X793890D2*
X874366D1*
X1225936D2*
X1333791D1*
X1367714D2*
X1535389D1*
X441866Y1557233D2*
X644025D1*
X793890D2*
X874366D1*
X988131D2*
X1135101D1*
X1233076D2*
X1305981D1*
X1395560D2*
X1535496D1*
X497199Y1532364D2*
X631538D1*
X793890D2*
X874366D1*
X988382D2*
X1142385D1*
X1236450D2*
X1302106D1*
X1399436D2*
X1459852D1*
X520201Y1507495D2*
X631681D1*
X793890D2*
X874366D1*
X974890D2*
X1168616D1*
X1236450D2*
X1313122D1*
X1388419D2*
X1448872D1*
X525620Y1482627D2*
X644564D1*
X793890D2*
X874366D1*
X974890D2*
X1168616D1*
X1236450D2*
X1450128D1*
X519519Y1457758D2*
X726057D1*
X808387D2*
X874366D1*
X974890D2*
X1168616D1*
X1236450D2*
X1464661D1*
X494544Y1432889D2*
X719598D1*
X817394D2*
X874366D1*
X974890D2*
X1168616D1*
X1236450D2*
X1536106D1*
X442153Y1408020D2*
X725124D1*
X811904D2*
X861268D1*
X974890D2*
X1168616D1*
X1236450D2*
X1536214D1*
X442189Y1383151D2*
X693007D1*
X971732D2*
X1120998D1*
X1236450D2*
X1536358D1*
X442225Y1358283D2*
X574195D1*
X624301D2*
X658272D1*
X949304D2*
X1115077D1*
X1236450D2*
X1536465D1*
X442261Y1333414D2*
X553023D1*
X924437D2*
X1123618D1*
X1237131D2*
X1536573D1*
X442333Y1308545D2*
X551157D1*
X1250696D2*
X1536716D1*
X442368Y1283676D2*
X531852D1*
X1248650D2*
X1536824D1*
X1227012Y1258808D2*
X1536968D1*
X1251880Y1233939D2*
X1537075D1*
X1263542Y1209070D2*
X1537183D1*
X1263542Y1184201D2*
X1455546D1*
X1495749D2*
X1537326D1*
X442620Y1159333D2*
X518790D1*
X1263542D2*
X1411050D1*
X442656Y1134464D2*
X518790D1*
X846460D2*
X1032759D1*
X1263542D2*
X1394615D1*
X442691Y1109595D2*
X518790D1*
X821593D2*
X870239D1*
X918265D2*
X1032077D1*
X1288051D2*
X1388084D1*
X442763Y1084726D2*
X518790D1*
X617591D2*
X665054D1*
X796725D2*
X848242D1*
X940262D2*
X1018441D1*
X1312919D2*
X1389053D1*
X442799Y1059857D2*
X523168D1*
X615761D2*
X687051D1*
X782838D2*
X846053D1*
X942450D2*
X1016144D1*
X1337787D2*
X1397845D1*
X442835Y1034989D2*
X522773D1*
X620354D2*
X701691D1*
X838279D2*
X859402D1*
X932511D2*
X1010977D1*
X442871Y1010120D2*
X532856D1*
X610271D2*
X753400D1*
X850336D2*
X864677D1*
X932511D2*
X986109D1*
X1119001D2*
X1147086D1*
X442943Y985251D2*
X756487D1*
X847286D2*
X864677D1*
X932511D2*
X961888D1*
X1107841D2*
X1161511D1*
X442978Y960382D2*
X781175D1*
X822561D2*
X864677D1*
X932511D2*
X956146D1*
X1107625D2*
X1186379D1*
X443014Y935514D2*
X767252D1*
X932511D2*
X956146D1*
X1090222D2*
X1211247D1*
X443086Y910645D2*
X624361D1*
X746989D2*
X761618D1*
X924329D2*
X956146D1*
X1023943D2*
X1236115D1*
X443122Y885776D2*
X614816D1*
X941769D2*
X956146D1*
X1095497D2*
X1260982D1*
X443158Y860907D2*
X480860D1*
X533191D2*
X619840D1*
X1106477D2*
X1285850D1*
X1520904D2*
X1538905D1*
X443230Y836039D2*
X460586D1*
X553502D2*
X655867D1*
X671489D2*
X897655D1*
X1102602D2*
X1284594D1*
X1522124D2*
X1539013D1*
X443266Y811170D2*
X459078D1*
X555009D2*
X922523D1*
X1515198D2*
X1539157D1*
X540583Y786301D2*
X947390D1*
X1493309D2*
X1539264D1*
X520704Y761432D2*
X726739D1*
X785242D2*
X972258D1*
X1418239D2*
X1539372D1*
X525440Y736564D2*
X706536D1*
X805445D2*
X1183042D1*
X1421648D2*
X1539515D1*
X518658Y711695D2*
X703916D1*
X808064D2*
X1185948D1*
X1276963D2*
X1291520D1*
X1415225D2*
X1539623D1*
X491494Y686826D2*
X715112D1*
X796868D2*
X1210206D1*
X1252705D2*
X1312333D1*
X1394412D2*
X1539767D1*
X443553Y661957D2*
X1539874D1*
X443589Y637088D2*
X1144251D1*
X1379233D2*
X1539982D1*
X443624Y612220D2*
X1111381D1*
X1386625D2*
X1540125D1*
X443696Y587351D2*
X934508D1*
X1020750D2*
X1083463D1*
X1379556D2*
X1540233D1*
X553609Y562482D2*
X928695D1*
X1026563D2*
X1079552D1*
X1176882D2*
X1540341D1*
X572987Y537613D2*
X937379D1*
X1202252D2*
X1540484D1*
X581312Y512745D2*
X969244D1*
X1223460D2*
X1451743D1*
X1482795D2*
X1540592D1*
X581886Y487876D2*
X730291D1*
X781689D2*
X977318D1*
X1250732D2*
X1424112D1*
X1510425D2*
X1540735D1*
X574889Y463007D2*
X707361D1*
X804619D2*
X1160830D1*
X1254248D2*
X1420559D1*
X1513978D2*
X1540843D1*
X940010Y438138D2*
X1161081D1*
X1253961D2*
X1420810D1*
X1513727D2*
X1540951D1*
X522956Y1478904D2*
X521570Y1470149D1*
X518830Y1461719D1*
X514806Y1453821D1*
X509596Y1446649D1*
X503328Y1440382D1*
X496157Y1435171D1*
X488259Y1431147D1*
X479828Y1428408D1*
X471073Y1427021D1*
X462209D1*
X453454Y1428408D1*
X445023Y1431147D1*
X439589Y1433791D1*
X439890Y1273441D1*
X447522Y1277274D1*
X455952Y1280013D1*
X464708Y1281400D1*
X473572D1*
X482327Y1280013D1*
X490757Y1277274D1*
X498655Y1273250D1*
X505827Y1268039D1*
X512095Y1261772D1*
X517305Y1254600D1*
X521278Y1246812D1*
X521373Y1260071D1*
X522144Y1264940D1*
X523667Y1269627D1*
X525905Y1274019D1*
X528802Y1278007D1*
X550538Y1299879D1*
X554294Y1303086D1*
X554049Y1306782D1*
X552908Y1313987D1*
Y1321282D1*
X554049Y1328487D1*
X556303Y1335425D1*
X559615Y1341925D1*
X563903Y1347827D1*
X569061Y1352985D1*
X574963Y1357273D1*
X581463Y1360585D1*
X588401Y1362839D1*
X595606Y1363981D1*
X602901D1*
X610107Y1362839D1*
X617045Y1360585D1*
X623545Y1357273D1*
X629446Y1352985D1*
X634605Y1347827D1*
X638893Y1341925D1*
X642205Y1335425D1*
X644459Y1328487D1*
X645600Y1321282D1*
Y1313987D1*
X644918Y1309089D1*
X665150Y1309079D1*
X662548Y1312853D1*
X659236Y1319353D1*
X656982Y1326291D1*
X655841Y1333496D1*
Y1340791D1*
X656982Y1347996D1*
X659236Y1354934D1*
X662548Y1361434D1*
X666836Y1367336D1*
X671994Y1372494D1*
X677896Y1376782D1*
X684396Y1380094D1*
X691334Y1382349D1*
X698539Y1383490D1*
X704167Y1383555D1*
X718205Y1397446D1*
X722192Y1400343D1*
X726584Y1402581D1*
X728907Y1403437D1*
X728866Y1405834D1*
X725554Y1412334D1*
X723299Y1419272D1*
X722158Y1426478D1*
Y1433773D1*
X723299Y1440978D1*
X725554Y1447916D1*
X728552Y1453856D1*
X728550Y1479684D1*
X722408Y1474534D1*
X714850Y1469903D1*
X706660Y1466511D1*
X698041Y1464441D1*
X689204Y1463746D1*
X680367Y1464441D1*
X671748Y1466511D1*
X663558Y1469903D1*
X656000Y1474534D1*
X649260Y1480291D1*
X643503Y1487032D1*
X638871Y1494590D1*
X635479Y1502779D1*
X633410Y1511399D1*
X632714Y1520235D1*
X633410Y1529072D1*
X635479Y1537692D1*
X638871Y1545881D1*
X643503Y1553439D1*
X649260Y1560180D1*
X656000Y1565936D1*
X662938Y1570221D1*
X656000Y1574534D1*
X649260Y1580291D1*
X643503Y1587032D1*
X638871Y1594590D1*
X635479Y1602779D1*
X633410Y1611399D1*
X632714Y1620235D1*
X633410Y1629072D1*
X635479Y1637692D1*
X638871Y1645881D1*
X643503Y1653439D1*
X649260Y1660180D1*
X656000Y1665936D1*
X663558Y1670568D1*
X671748Y1673960D1*
X680367Y1676029D1*
X689204Y1676725D1*
X698041Y1676029D1*
X706660Y1673960D1*
X714850Y1670568D1*
X722408Y1665936D1*
X728550Y1660732D1*
Y1742859D1*
X654091Y1817431D1*
X651193Y1821419D1*
X648956Y1825811D1*
X647433Y1830499D1*
X646950Y1832927D1*
X644772Y1836021D1*
X638031Y1841778D1*
X632275Y1848519D1*
X627990Y1855457D1*
X623677Y1848519D1*
X617920Y1841778D1*
X611179Y1836021D1*
X603621Y1831390D1*
X595432Y1827998D1*
X586812Y1825928D1*
X577976Y1825233D1*
X569139Y1825928D1*
X560519Y1827998D1*
X552330Y1831390D1*
X544772Y1836021D1*
X538031Y1841778D1*
X534474Y1845729D1*
X534465Y1825233D1*
X438834D1*
X438940Y1778116D1*
X445395Y1785318D1*
X450327Y1789877D1*
X455602Y1794036D1*
X461187Y1797767D1*
X467047Y1801049D1*
X473147Y1803862D1*
X479449Y1806186D1*
X485914Y1808010D1*
X492502Y1809320D1*
X499172Y1810110D1*
X505884Y1810373D1*
X512595Y1810110D1*
X519266Y1809320D1*
X525854Y1808010D1*
X532318Y1806186D1*
X538620Y1803862D1*
X544720Y1801049D1*
X550581Y1797767D1*
X556166Y1794036D1*
X561441Y1789877D1*
X566373Y1785318D1*
X570932Y1780385D1*
X575091Y1775110D1*
X578823Y1769526D1*
X582105Y1763665D1*
X584917Y1757565D1*
X587241Y1751263D1*
X589065Y1744799D1*
X590375Y1738211D1*
X591165Y1731540D1*
X591428Y1724829D1*
X591165Y1718117D1*
X590375Y1711446D1*
X589065Y1704859D1*
X587241Y1698394D1*
X584917Y1692092D1*
X582105Y1685992D1*
X578823Y1680132D1*
X575091Y1674547D1*
X570932Y1669272D1*
X566373Y1664339D1*
X561441Y1659780D1*
X556166Y1655622D1*
X550581Y1651890D1*
X544720Y1648608D1*
X538620Y1645796D1*
X532318Y1643471D1*
X525854Y1641648D1*
X519266Y1640337D1*
X512595Y1639548D1*
X505884Y1639284D1*
X499172Y1639548D1*
X492502Y1640337D1*
X485914Y1641648D1*
X479449Y1643471D1*
X473147Y1645796D1*
X467047Y1648608D1*
X461187Y1651890D1*
X455602Y1655622D1*
X450327Y1659780D1*
X445395Y1664339D1*
X439129Y1671435D1*
X439402Y1532812D1*
X445023Y1535526D1*
X453454Y1538265D1*
X462209Y1539652D1*
X471073D1*
X479828Y1538265D1*
X488259Y1535526D1*
X496157Y1531502D1*
X503328Y1526291D1*
X509596Y1520023D1*
X514806Y1512852D1*
X518830Y1504954D1*
X521570Y1496524D1*
X522956Y1487769D1*
Y1478904D1*
X522820Y734210D2*
X521433Y725455D1*
X518694Y717025D1*
X514670Y709127D1*
X509459Y701955D1*
X503191Y695687D1*
X496020Y690477D1*
X488122Y686453D1*
X479692Y683714D1*
X470937Y682327D1*
X462072D1*
X453317Y683714D1*
X444887Y686453D1*
X441000Y688244D1*
X441223Y565304D1*
X449783Y571303D1*
X455643Y574585D1*
X461743Y577397D1*
X468045Y579722D1*
X474510Y581545D1*
X481097Y582855D1*
X487768Y583645D1*
X494480Y583909D1*
X501191Y583645D1*
X507862Y582855D1*
X514450Y581545D1*
X520914Y579722D1*
X527216Y577397D1*
X533316Y574585D1*
X539176Y571303D1*
X544761Y567571D1*
X550036Y563413D1*
X554969Y558853D1*
X559528Y553921D1*
X563687Y548646D1*
X567418Y543061D1*
X570700Y537200D1*
X573512Y531101D1*
X575837Y524799D1*
X577661Y518334D1*
X578971Y511746D1*
X579760Y505076D1*
X580024Y498364D1*
X579760Y491652D1*
X578971Y484982D1*
X577661Y478394D1*
X575837Y471929D1*
X573512Y465628D1*
X570700Y459528D1*
X567418Y453667D1*
X563687Y448082D1*
X556483Y439513D1*
X706087Y438974D1*
X706036Y447392D1*
X707266Y455158D1*
X709696Y462637D1*
X713266Y469643D1*
X717888Y476005D1*
X723448Y481565D1*
X729809Y486187D1*
X736816Y489757D1*
X744294Y492187D1*
X752061Y493417D1*
X759924D1*
X767691Y492187D1*
X775170Y489757D1*
X782176Y486187D1*
X788537Y481565D1*
X794098Y476005D1*
X798720Y469643D1*
X802290Y462637D1*
X804720Y455158D1*
X805950Y447392D1*
Y439528D1*
X805843Y438628D1*
X1163679Y437322D1*
X1163321Y443084D1*
X1163292Y467754D1*
X1155997D1*
X1148792Y468895D1*
X1141854Y471150D1*
X1135354Y474461D1*
X1129452Y478749D1*
X1125426Y482683D1*
X1052459Y482689D1*
X1048408Y478749D1*
X1042506Y474461D1*
X1036007Y471150D1*
X1029069Y468895D1*
X1021863Y467754D1*
X1014568D1*
X1007363Y468895D1*
X1000425Y471150D1*
X993925Y474461D1*
X988023Y478749D1*
X982865Y483908D1*
X978577Y489810D1*
X975265Y496310D1*
X973011Y503248D1*
X971870Y510453D1*
Y517748D1*
X971972Y518612D1*
X966771Y519537D1*
X959833Y521791D1*
X953333Y525103D1*
X947431Y529391D1*
X942273Y534549D1*
X937985Y540451D1*
X934673Y546951D1*
X932419Y553889D1*
X931278Y561094D1*
Y568390D1*
X932419Y575595D1*
X934673Y582533D1*
X937985Y589033D1*
X942273Y594935D1*
X947431Y600093D1*
X953333Y604381D1*
X959833Y607693D1*
X966771Y609947D1*
X973976Y611088D1*
X981271D1*
X988477Y609947D1*
X995415Y607693D1*
X1001915Y604381D1*
X1007816Y600093D1*
X1012975Y594935D1*
X1017263Y589033D1*
X1020575Y582533D1*
X1022829Y575595D1*
X1023970Y568390D1*
Y561094D1*
X1023868Y560231D1*
X1029069Y559305D1*
X1036007Y557051D1*
X1042506Y553739D1*
X1048408Y549451D1*
X1052434Y545518D1*
X1087508Y545511D1*
X1085277Y550212D1*
X1083023Y557150D1*
X1081881Y564356D1*
Y571651D1*
X1083023Y578856D1*
X1085277Y585794D1*
X1088589Y592294D1*
X1092877Y598196D1*
X1098035Y603354D1*
X1103937Y607642D1*
X1110437Y610954D1*
X1117375Y613208D1*
X1124580Y614349D1*
X1130208Y614415D1*
X1132126Y616371D1*
X1133649Y621059D1*
X1135886Y625451D1*
X1138783Y629438D1*
X1145201Y635855D1*
X1149188Y638752D1*
X1153580Y640990D1*
X1158268Y642513D1*
X1163136Y643284D1*
X1229905Y643381D1*
X1303360D1*
X1307429Y647321D1*
X1313331Y651609D1*
X1319830Y654921D1*
X1326769Y657175D1*
X1333974Y658317D1*
X1341269D1*
X1348474Y657175D1*
X1355412Y654921D1*
X1361912Y651609D1*
X1367814Y647321D1*
X1372972Y642163D1*
X1377260Y636261D1*
X1380572Y629761D1*
X1382826Y622823D1*
X1383967Y615618D1*
Y608323D1*
X1382826Y601118D1*
X1380572Y594180D1*
X1377260Y587680D1*
X1372972Y581778D1*
X1367814Y576619D1*
X1361912Y572332D1*
X1355412Y569020D1*
X1348474Y566765D1*
X1341269Y565624D1*
X1333974D1*
X1326769Y566765D1*
X1319830Y569020D1*
X1313331Y572332D1*
X1307429Y576619D1*
X1303403Y580553D1*
X1185221Y580559D1*
X1174651Y570005D1*
X1174574Y564356D1*
X1173686Y558423D1*
X1180751Y555523D1*
X1186971Y551711D1*
X1192518Y546973D1*
X1197256Y541426D1*
X1201067Y535206D1*
X1203859Y528466D1*
X1205562Y521373D1*
X1206107Y514798D1*
X1210995Y514699D1*
X1217846Y513614D1*
X1224444Y511470D1*
X1230624Y508321D1*
X1236236Y504244D1*
X1241141Y499339D1*
X1245219Y493727D1*
X1248368Y487546D1*
X1250511Y480949D1*
X1251597Y474097D1*
X1251733Y443070D1*
X1251289Y437003D1*
X1423551Y436383D1*
X1423061Y442958D1*
X1423197Y473972D1*
X1424282Y480823D1*
X1426426Y487420D1*
X1429575Y493601D1*
X1433652Y499213D1*
X1438557Y504118D1*
X1444169Y508195D1*
X1450350Y511344D1*
X1456947Y513488D1*
X1463799Y514573D1*
X1470735D1*
X1477587Y513488D1*
X1484184Y511344D1*
X1490365Y508195D1*
X1495976Y504118D1*
X1500881Y499213D1*
X1504959Y493601D1*
X1508108Y487420D1*
X1510252Y480823D1*
X1511337Y473972D1*
X1511473Y442944D1*
X1510933Y436069D1*
X1543475Y435950D1*
X1541279Y885203D1*
X1538115Y880762D1*
X1517081Y859591D1*
X1518973Y851159D1*
X1519784Y840856D1*
X1518973Y830553D1*
X1516561Y820504D1*
X1512606Y810957D1*
X1507206Y802145D1*
X1500494Y794286D1*
X1492636Y787575D1*
X1483824Y782175D1*
X1474276Y778220D1*
X1464227Y775807D1*
X1453924Y774997D1*
X1443622Y775807D1*
X1433573Y778220D1*
X1424025Y782175D1*
X1415213Y787575D1*
X1407355Y794286D1*
X1403357Y798702D1*
X1399352Y794324D1*
X1395539Y790802D1*
X1399943Y786795D1*
X1406655Y778936D1*
X1412055Y770125D1*
X1416009Y760577D1*
X1418422Y750528D1*
X1419233Y740225D1*
X1418422Y729922D1*
X1416009Y719873D1*
X1412055Y710325D1*
X1406655Y701514D1*
X1399943Y693655D1*
X1392085Y686943D1*
X1383273Y681544D1*
X1373725Y677589D1*
X1363676Y675176D1*
X1353373Y674365D1*
X1343071Y675176D1*
X1333021Y677589D1*
X1323474Y681544D1*
X1314662Y686943D1*
X1306803Y693655D1*
X1300092Y701514D1*
X1294692Y710325D1*
X1290737Y719873D1*
X1288324Y729922D1*
X1287514Y740225D1*
X1288303Y750347D1*
X1272990Y750335D1*
X1275678Y743731D1*
X1277381Y736638D1*
X1277953Y729365D1*
X1277381Y722093D1*
X1275678Y714999D1*
X1272886Y708260D1*
X1269075Y702040D1*
X1264337Y696492D1*
X1258790Y691755D1*
X1252570Y687943D1*
X1245830Y685151D1*
X1238736Y683448D1*
X1231464Y682876D1*
X1224191Y683448D1*
X1217098Y685151D1*
X1210358Y687943D1*
X1204138Y691755D1*
X1198591Y696492D1*
X1193853Y702040D1*
X1190041Y708260D1*
X1187250Y714999D1*
X1185547Y722093D1*
X1184974Y729365D1*
X1185547Y736638D1*
X1187250Y743731D1*
X1189976Y750329D1*
X996414Y750432D1*
X991546Y751203D1*
X986858Y752726D1*
X982466Y754964D1*
X978479Y757861D1*
X931197Y805005D1*
X896562Y839641D1*
X739833Y839742D1*
X734964Y840513D1*
X730277Y842036D1*
X725885Y844273D1*
X721897Y847171D1*
X720080Y848852D1*
X712756Y850813D1*
X697936D1*
X693854Y846873D1*
X687953Y842585D1*
X681453Y839273D1*
X674515Y837019D1*
X667309Y835877D1*
X660014D1*
X652809Y837019D1*
X645871Y839273D1*
X639371Y842585D1*
X633469Y846873D1*
X628311Y852031D1*
X624023Y857933D1*
X620711Y864433D1*
X618457Y871371D1*
X617316Y878576D1*
Y885871D1*
X618457Y893076D1*
X620711Y900014D1*
X624023Y906514D1*
X628311Y912416D1*
X633469Y917575D1*
X639371Y921862D1*
X645871Y925174D1*
X652809Y927429D1*
X660014Y928570D1*
X667309D1*
X674515Y927429D1*
X681453Y925174D1*
X687953Y921862D1*
X693854Y917575D1*
X697880Y913641D1*
X733594Y913538D1*
X738462Y912767D1*
X743150Y911243D1*
X747541Y909006D1*
X751529Y906109D1*
X755303Y902471D1*
X765299Y902466D1*
X764199Y909546D1*
Y916841D1*
X765340Y924046D1*
X767594Y930984D1*
X770906Y937484D1*
X775194Y943386D1*
X780353Y948544D1*
X786254Y952832D1*
X792754Y956144D1*
X795417Y957126D1*
X787510Y958949D1*
X780770Y961741D1*
X774550Y965552D1*
X769003Y970290D1*
X764265Y975837D1*
X760453Y982057D1*
X757662Y988797D1*
X755959Y995891D1*
X755386Y1003163D1*
X755959Y1010436D1*
X757662Y1017529D1*
X760453Y1024269D1*
X764265Y1030489D1*
X769003Y1036036D1*
X774550Y1040774D1*
X780770Y1044586D1*
X787510Y1047377D1*
X794603Y1049080D1*
X801876Y1049653D1*
X809148Y1049080D1*
X816242Y1047377D1*
X822982Y1044586D1*
X829202Y1040774D1*
X834749Y1036036D1*
X839487Y1030489D1*
X843298Y1024269D1*
X846090Y1017529D1*
X847793Y1010436D1*
X848365Y1003163D1*
X847793Y995891D1*
X846090Y988797D1*
X843298Y982057D1*
X839487Y975837D1*
X834749Y970290D1*
X829202Y965552D1*
X822982Y961741D1*
X817004Y959230D1*
X824911Y957408D1*
X831651Y954616D1*
X837871Y950804D1*
X843418Y946066D1*
X848156Y940519D1*
X851968Y934299D1*
X853454Y931075D1*
X867172Y944801D1*
X867187Y1030594D1*
X861374Y1035503D1*
X856636Y1041050D1*
X852825Y1047270D1*
X850033Y1054010D1*
X848330Y1061103D1*
X847758Y1068376D1*
X848330Y1075648D1*
X850033Y1082742D1*
X852825Y1089482D1*
X856636Y1095702D1*
X861374Y1101249D1*
X866921Y1105987D1*
X873141Y1109798D1*
X879881Y1112590D1*
X886975Y1114293D1*
X894247Y1114865D1*
X901520Y1114293D1*
X908613Y1112590D1*
X915353Y1109798D1*
X921573Y1105987D1*
X927120Y1101249D1*
X931858Y1095702D1*
X935670Y1089482D1*
X938461Y1082742D1*
X940164Y1075648D1*
X940737Y1068376D1*
X940164Y1061103D1*
X938461Y1054010D1*
X935670Y1047270D1*
X931858Y1041050D1*
X930013Y1038710D1*
X929912Y929341D1*
X929141Y924472D1*
X927617Y919785D1*
X925380Y915393D1*
X922483Y911405D1*
X913425Y902210D1*
X919275Y900929D1*
X923829Y899043D1*
X928032Y896468D1*
X931780Y893266D1*
X951343Y873703D1*
X954693Y878120D1*
X958626Y882145D1*
X958730Y969590D1*
X959501Y974458D1*
X961024Y979146D1*
X963262Y983537D1*
X966159Y987525D1*
X1013303Y1034806D1*
X1023060Y1044424D1*
X1022952Y1047064D1*
X1020160Y1053804D1*
X1018457Y1060897D1*
X1017885Y1068170D1*
X1018457Y1075442D1*
X1020160Y1082536D1*
X1022952Y1089276D1*
X1026764Y1095496D1*
X1031501Y1101043D1*
X1035985Y1104942D1*
X1034492Y1109946D1*
X1033351Y1117151D1*
Y1124446D1*
X1034492Y1131651D1*
X1036747Y1138589D1*
X1037254Y1139690D1*
X849216Y1139701D1*
X781376Y1071891D1*
X781282Y1066226D1*
X780141Y1059020D1*
X777887Y1052082D1*
X774575Y1045583D1*
X770287Y1039681D1*
X765129Y1034522D1*
X759227Y1030234D1*
X752727Y1026923D1*
X745789Y1024668D1*
X738584Y1023527D1*
X731289D1*
X724083Y1024668D1*
X717145Y1026923D1*
X710646Y1030234D1*
X704744Y1034522D1*
X699585Y1039681D1*
X695297Y1045583D1*
X691986Y1052082D1*
X689731Y1059020D1*
X688590Y1066226D1*
X688476Y1069118D1*
X683585Y1071259D1*
X677365Y1075071D1*
X671818Y1079809D1*
X667080Y1085356D1*
X663268Y1091576D1*
X660477Y1098316D1*
X658932Y1104612D1*
X655692Y1101905D1*
X651489Y1099330D1*
X646935Y1097443D1*
X642143Y1096293D1*
X637219Y1095906D1*
X629315Y1094444D1*
X623767Y1089706D1*
X617547Y1085894D1*
X610808Y1083103D1*
X603714Y1081400D1*
X596441Y1080827D1*
X591930Y1081073D1*
X598895Y1076886D1*
X604442Y1072148D1*
X609180Y1066601D1*
X612991Y1060381D1*
X615783Y1053641D1*
X617486Y1046547D1*
X618058Y1039275D1*
X617486Y1032002D1*
X615783Y1024909D1*
X612991Y1018169D1*
X609180Y1011949D1*
X604442Y1006402D1*
X598895Y1001664D1*
X592675Y997852D1*
X585935Y995061D1*
X578841Y993358D1*
X571569Y992785D1*
X564296Y993358D1*
X557203Y995061D1*
X550463Y997852D1*
X544243Y1001664D1*
X538696Y1006402D1*
X533958Y1011949D1*
X530146Y1018169D1*
X527355Y1024909D1*
X525652Y1032002D1*
X525079Y1039275D1*
X525652Y1046547D1*
X527355Y1053641D1*
X528268Y1056116D1*
X525905Y1059448D1*
X523667Y1063840D1*
X522144Y1068527D1*
X521373Y1073396D1*
X521276Y1140165D1*
Y1203357D1*
X517305Y1195569D1*
X512095Y1188398D1*
X505827Y1182130D1*
X498655Y1176919D1*
X490757Y1172895D1*
X482327Y1170156D1*
X473572Y1168769D1*
X464708D1*
X455952Y1170156D1*
X447522Y1172895D1*
X440062Y1176674D1*
X440859Y788975D1*
X449048Y792367D1*
X457668Y794436D1*
X466504Y795132D1*
X468392Y795058D1*
X465612Y799784D1*
X462821Y806524D1*
X461118Y813618D1*
X460545Y820890D1*
X461118Y828163D1*
X462821Y835256D1*
X465612Y841996D1*
X469424Y848216D1*
X474162Y853763D1*
X479709Y858501D1*
X485929Y862313D1*
X492669Y865104D1*
X499762Y866807D1*
X507035Y867380D1*
X514307Y866807D1*
X521401Y865104D1*
X528140Y862313D1*
X534360Y858501D1*
X539908Y853763D1*
X544645Y848216D1*
X548457Y841996D1*
X551249Y835256D1*
X552952Y828163D1*
X553524Y820890D1*
X552952Y813618D1*
X551249Y806524D1*
X548457Y799784D1*
X544645Y793564D1*
X539908Y788017D1*
X534360Y783279D1*
X528140Y779468D1*
X521401Y776676D1*
X514307Y774973D1*
X510126Y774522D1*
X514670Y768158D1*
X518694Y760260D1*
X521433Y751829D1*
X522820Y743074D1*
Y734210D1*
X1346254Y1848768D2*
Y1828334D1*
X1234036D1*
X1236480Y1823300D1*
X1238734Y1816362D1*
X1239876Y1809157D1*
Y1801862D1*
X1238734Y1794657D1*
X1236480Y1787719D1*
X1233168Y1781219D1*
X1228880Y1775317D1*
X1224947Y1771291D1*
X1224843Y1681329D1*
X1224072Y1676460D1*
X1222549Y1671773D1*
X1220312Y1667381D1*
X1217414Y1663393D1*
X1170270Y1616112D1*
X1131710Y1577689D1*
X1127722Y1574792D1*
X1123331Y1572554D1*
X1118643Y1571031D1*
X1113775Y1570260D1*
X1047006Y1570163D1*
X979651D1*
X982384Y1565492D1*
X985175Y1558752D1*
X986878Y1551659D1*
X987451Y1544386D1*
X986878Y1537114D1*
X985175Y1530020D1*
X982384Y1523281D1*
X978572Y1517061D1*
X973834Y1511513D1*
X972379Y1510168D1*
X972275Y1394401D1*
X971504Y1389533D1*
X969981Y1384845D1*
X967743Y1380453D1*
X964846Y1376466D1*
X914785Y1326267D1*
X911037Y1323066D1*
X906834Y1320491D1*
X902281Y1318605D1*
X897488Y1317454D1*
X892564Y1317068D1*
X788761Y1317067D1*
X783410Y1311728D1*
X1157608D1*
X1158335Y1314198D1*
X1153164Y1315130D1*
X1146226Y1317384D1*
X1139726Y1320696D1*
X1133824Y1324984D1*
X1128665Y1330143D1*
X1124377Y1336044D1*
X1121066Y1342544D1*
X1118811Y1349482D1*
X1117670Y1356688D1*
Y1363983D1*
X1118811Y1371188D1*
X1121066Y1378126D1*
X1124377Y1384626D1*
X1128665Y1390528D1*
X1133824Y1395686D1*
X1139726Y1399974D1*
X1146226Y1403286D1*
X1153164Y1405540D1*
X1160369Y1406681D1*
X1167664D1*
X1171133Y1406271D1*
X1171124Y1512693D1*
X1166286Y1514417D1*
X1159786Y1517729D1*
X1153884Y1522017D1*
X1148726Y1527175D1*
X1144438Y1533077D1*
X1141126Y1539577D1*
X1138872Y1546515D1*
X1137730Y1553720D1*
Y1561016D1*
X1138872Y1568221D1*
X1141126Y1575159D1*
X1144438Y1581659D1*
X1148726Y1587560D1*
X1153884Y1592719D1*
X1159786Y1597007D1*
X1166286Y1600319D1*
X1173224Y1602573D1*
X1180429Y1603714D1*
X1187724D1*
X1194929Y1602573D1*
X1201867Y1600319D1*
X1208367Y1597007D1*
X1214269Y1592719D1*
X1219428Y1587560D1*
X1223715Y1581659D1*
X1227027Y1575159D1*
X1229282Y1568221D1*
X1230423Y1561016D1*
Y1553720D1*
X1229974Y1549998D1*
X1231825Y1546062D1*
X1233239Y1541340D1*
X1233897Y1536446D1*
X1233946Y1334087D1*
X1237886Y1329984D1*
X1242173Y1324083D1*
X1245485Y1317583D1*
X1247740Y1310645D1*
X1248881Y1303439D1*
Y1296144D1*
X1247740Y1288939D1*
X1245485Y1282001D1*
X1242173Y1275501D1*
X1237886Y1269599D1*
X1232727Y1264441D1*
X1226825Y1260153D1*
X1224474Y1258836D1*
X1253530Y1229644D1*
X1256427Y1225657D1*
X1258665Y1221265D1*
X1260188Y1216577D1*
X1260959Y1211709D1*
X1261056Y1144940D1*
Y1134067D1*
X1359873Y1035257D1*
X1420084Y1035440D1*
X1415152Y1040000D1*
X1410592Y1044932D1*
X1406434Y1050207D1*
X1402702Y1055792D1*
X1399420Y1061652D1*
X1396608Y1067752D1*
X1394283Y1074054D1*
X1392460Y1080519D1*
X1391150Y1087107D1*
X1390360Y1093777D1*
X1390096Y1100489D1*
X1390360Y1107200D1*
X1391150Y1113871D1*
X1392460Y1120459D1*
X1394283Y1126923D1*
X1396608Y1133225D1*
X1399420Y1139325D1*
X1402702Y1145186D1*
X1406434Y1150771D1*
X1410592Y1156046D1*
X1415152Y1160978D1*
X1420084Y1165537D1*
X1425359Y1169696D1*
X1430944Y1173427D1*
X1436805Y1176710D1*
X1442904Y1179522D1*
X1449206Y1181846D1*
X1455671Y1183670D1*
X1462259Y1184980D1*
X1468929Y1185770D1*
X1475641Y1186033D1*
X1482353Y1185770D1*
X1489023Y1184980D1*
X1495611Y1183670D1*
X1502076Y1181846D1*
X1508377Y1179522D1*
X1514477Y1176710D1*
X1520338Y1173427D1*
X1525923Y1169696D1*
X1531198Y1165537D1*
X1536130Y1160978D1*
X1539959Y1156835D1*
X1538513Y1450875D1*
X1532676Y1447461D1*
X1524487Y1444068D1*
X1515868Y1441999D1*
X1507031Y1441304D1*
X1498194Y1441999D1*
X1489574Y1444068D1*
X1481385Y1447461D1*
X1473827Y1452092D1*
X1467087Y1457849D1*
X1461330Y1464589D1*
X1456698Y1472147D1*
X1453306Y1480337D1*
X1451237Y1488956D1*
X1450541Y1497793D1*
X1451237Y1506630D1*
X1453306Y1515249D1*
X1456698Y1523439D1*
X1461330Y1530997D1*
X1467087Y1537737D1*
X1473827Y1543494D1*
X1481385Y1548126D1*
X1489574Y1551518D1*
X1498194Y1553587D1*
X1507031Y1554283D1*
X1515868Y1553587D1*
X1524487Y1551518D1*
X1532676Y1548126D1*
X1538059Y1544948D1*
X1536546Y1853132D1*
X1532719Y1848136D1*
X1526451Y1841868D1*
X1519280Y1836658D1*
X1511382Y1832634D1*
X1502952Y1829895D1*
X1494196Y1828508D1*
X1485332D1*
X1476577Y1829895D1*
X1468147Y1832634D1*
X1460249Y1836658D1*
X1453077Y1841868D1*
X1446809Y1848136D1*
X1441599Y1855308D1*
X1439779Y1858558D1*
X1435465Y1851620D1*
X1429708Y1844879D1*
X1422968Y1839122D1*
X1415410Y1834491D1*
X1407221Y1831099D1*
X1398601Y1829029D1*
X1389764Y1828334D1*
X1380927Y1829029D1*
X1372308Y1831099D1*
X1364119Y1834491D1*
X1356561Y1839122D1*
X1349820Y1844879D1*
X1346262Y1848830D1*
X1233275Y1829590D2*
Y1927123D1*
X1026219Y1927955D1*
X1031396Y1923376D1*
X1037153Y1916636D1*
X1041784Y1909078D1*
X1045177Y1900888D1*
X1047246Y1892269D1*
X1047941Y1883432D1*
X1047246Y1874595D1*
X1045177Y1865976D1*
X1041784Y1857787D1*
X1037153Y1850229D1*
X1031396Y1843488D1*
X1024656Y1837731D1*
X1017098Y1833100D1*
X1008908Y1829708D1*
X1000289Y1827638D1*
X991452Y1826943D1*
X983596Y1827522D1*
X946148Y1790209D1*
X941833Y1787074D1*
X937081Y1784652D1*
X932009Y1783004D1*
X926741Y1782170D1*
X868956Y1782065D1*
X821409D1*
X817027Y1778444D1*
X810807Y1774632D1*
X804067Y1771840D1*
X796974Y1770137D1*
X789701Y1769565D1*
X788177Y1769625D1*
X789835Y1765552D1*
X790985Y1760759D1*
X791372Y1755846D1*
Y1470602D1*
X795830Y1467736D1*
X801378Y1462998D1*
X806115Y1457451D1*
X809927Y1451231D1*
X812719Y1444491D1*
X814422Y1437398D1*
X814994Y1430125D1*
X814422Y1422853D1*
X812719Y1415759D1*
X809927Y1409019D1*
X807565Y1404969D1*
X860718Y1404972D1*
X876877Y1421120D1*
X876961Y1584788D1*
X877732Y1589656D1*
X879255Y1594344D1*
X881493Y1598735D1*
X884390Y1602723D1*
X905315Y1623785D1*
X909063Y1626986D1*
X913265Y1629561D1*
X917819Y1631447D1*
X922612Y1632598D1*
X927525Y1632985D1*
X1098298D1*
X1162100Y1696786D1*
X1162119Y1771243D1*
X1158179Y1775317D1*
X1153891Y1781219D1*
X1150579Y1787719D1*
X1148324Y1794657D1*
X1147183Y1801862D1*
Y1809157D1*
X1148324Y1816362D1*
X1150579Y1823300D1*
X1153891Y1829800D1*
X1158179Y1835702D1*
X1163337Y1840861D1*
X1169239Y1845149D1*
X1175739Y1848460D1*
X1182677Y1850715D1*
X1189882Y1851856D1*
X1197177D1*
X1204382Y1850715D1*
X1211320Y1848460D1*
X1217820Y1845149D1*
X1223722Y1840861D1*
X1228880Y1835702D1*
X1233168Y1829800D1*
X805950Y715119D2*
X804720Y707352D1*
X802290Y699874D1*
X798720Y692867D1*
X794098Y686506D1*
X788537Y680945D1*
X782176Y676323D1*
X775170Y672753D1*
X767691Y670323D1*
X759924Y669093D1*
X752061D1*
X744294Y670323D1*
X736816Y672753D1*
X729809Y676323D1*
X723448Y680945D1*
X717888Y686506D1*
X713266Y692867D1*
X709696Y699874D1*
X707266Y707352D1*
X706036Y715119D1*
Y722982D1*
X707266Y730749D1*
X709696Y738227D1*
X713266Y745234D1*
X717888Y751595D1*
X723448Y757156D1*
X729809Y761778D1*
X736816Y765347D1*
X744294Y767777D1*
X752061Y769007D1*
X759924D1*
X767691Y767777D1*
X775170Y765347D1*
X782176Y761778D1*
X788537Y757156D1*
X794098Y751595D1*
X798720Y745234D1*
X802290Y738227D1*
X804720Y730749D1*
X805950Y722982D1*
Y715119D1*
X1459006Y1697809D2*
X1457620Y1689053D1*
X1454880Y1680623D1*
X1450856Y1672725D1*
X1445646Y1665554D1*
X1439378Y1659286D1*
X1432206Y1654075D1*
X1424308Y1650051D1*
X1415878Y1647312D1*
X1407123Y1645925D1*
X1398259D1*
X1389504Y1647312D1*
X1381073Y1650051D1*
X1373175Y1654075D1*
X1366004Y1659286D1*
X1359736Y1665554D1*
X1354526Y1672725D1*
X1352705Y1675975D1*
X1348392Y1669037D1*
X1342635Y1662297D1*
X1335895Y1656540D1*
X1328337Y1651908D1*
X1320147Y1648516D1*
X1311528Y1646447D1*
X1302691Y1645751D1*
X1293854Y1646447D1*
X1285235Y1648516D1*
X1277045Y1651908D1*
X1269487Y1656540D1*
X1262747Y1662297D1*
X1256990Y1669037D1*
X1252358Y1676595D1*
X1248966Y1684784D1*
X1246897Y1693404D1*
X1246201Y1702241D1*
X1246897Y1711078D1*
X1248966Y1719697D1*
X1252358Y1727886D1*
X1256990Y1735444D1*
X1262747Y1742185D1*
X1269487Y1747942D1*
X1277045Y1752573D1*
X1285235Y1755965D1*
X1293854Y1758035D1*
X1302691Y1758730D1*
X1311528Y1758035D1*
X1320147Y1755965D1*
X1328337Y1752573D1*
X1335895Y1747942D1*
X1342635Y1742185D1*
X1348392Y1735444D1*
X1352676Y1728506D1*
X1356990Y1735444D1*
X1362747Y1742185D1*
X1369487Y1747942D1*
X1377045Y1752573D1*
X1385235Y1755965D1*
X1393854Y1758035D1*
X1402691Y1758730D1*
X1411528Y1758035D1*
X1420147Y1755965D1*
X1428337Y1752573D1*
X1435895Y1747942D1*
X1442635Y1742185D1*
X1448392Y1735444D1*
X1453023Y1727886D1*
X1456416Y1719697D1*
X1458485Y1711078D1*
X1459180Y1702241D1*
X1459006Y1697809D1*
X1293112Y813141D2*
X1290146Y820542D1*
X1287734Y830592D1*
X1286923Y840894D1*
X1287734Y851197D1*
X1289680Y859593D1*
X1156979Y992413D1*
X1154082Y996401D1*
X1151844Y1000792D1*
X1150321Y1005480D1*
X1149550Y1010348D1*
X1149453Y1022609D1*
X1143328Y1018854D1*
X1136588Y1016062D1*
X1129495Y1014359D1*
X1122222Y1013787D1*
X1120242Y1013864D1*
X1102872Y996642D1*
X1101868Y994276D1*
X1104660Y987536D1*
X1106363Y980442D1*
X1106935Y973170D1*
X1106363Y965897D1*
X1104660Y958804D1*
X1101868Y952064D1*
X1098056Y945844D1*
X1093318Y940297D1*
X1087771Y935559D1*
X1081551Y931747D1*
X1074811Y928956D1*
X1067718Y927253D1*
X1060445Y926680D1*
X1053173Y927253D1*
X1046079Y928956D1*
X1039340Y931747D1*
X1033120Y935559D1*
X1027572Y940297D1*
X1022835Y945844D1*
X1021448Y947919D1*
X1021455Y884340D1*
X1024956Y888253D1*
X1030503Y892991D1*
X1036723Y896802D1*
X1043463Y899594D1*
X1050556Y901297D1*
X1057829Y901869D1*
X1065101Y901297D1*
X1072195Y899594D1*
X1078934Y896802D1*
X1085154Y892991D1*
X1090702Y888253D1*
X1095439Y882706D1*
X1099251Y876486D1*
X1102043Y869746D1*
X1103746Y862652D1*
X1104318Y855380D1*
X1103746Y848107D1*
X1102043Y841014D1*
X1099251Y834274D1*
X1095439Y828054D1*
X1090702Y822507D1*
X1085154Y817769D1*
X1078934Y813957D1*
X1077186Y813151D1*
X1293021Y813157D1*
X1397110Y1534273D2*
X1395969Y1527068D1*
X1393715Y1520130D1*
X1390403Y1513630D1*
X1386115Y1507728D1*
X1380957Y1502570D1*
X1375055Y1498282D1*
X1368555Y1494970D1*
X1361617Y1492715D1*
X1354412Y1491574D1*
X1347117D1*
X1339912Y1492715D1*
X1332974Y1494970D1*
X1326474Y1498282D1*
X1320572Y1502570D1*
X1315413Y1507728D1*
X1311125Y1513630D1*
X1307814Y1520130D1*
X1305559Y1527068D1*
X1304418Y1534273D1*
Y1541568D1*
X1305559Y1548773D1*
X1307814Y1555711D1*
X1311125Y1562211D1*
X1315413Y1568113D1*
X1320572Y1573271D1*
X1326474Y1577559D1*
X1332974Y1580871D1*
X1339912Y1583125D1*
X1347117Y1584267D1*
X1354412D1*
X1361617Y1583125D1*
X1368555Y1580871D1*
X1375055Y1577559D1*
X1380957Y1573271D1*
X1386115Y1568113D1*
X1390403Y1562211D1*
X1393715Y1555711D1*
X1395969Y1548773D1*
X1397110Y1541568D1*
Y1534273D1*
X1148303Y1769630D2*
X1147162Y1762425D1*
X1144908Y1755487D1*
X1141596Y1748987D1*
X1137308Y1743085D1*
X1132150Y1737927D1*
X1126248Y1733639D1*
X1119748Y1730327D1*
X1112810Y1728072D1*
X1105605Y1726931D1*
X1098310D1*
X1091104Y1728072D1*
X1084166Y1730327D1*
X1077667Y1733639D1*
X1071765Y1737927D1*
X1066606Y1743085D1*
X1062318Y1748987D1*
X1059007Y1755487D1*
X1056752Y1762425D1*
X1055611Y1769630D1*
Y1776925D1*
X1056752Y1784130D1*
X1059007Y1791068D1*
X1062318Y1797568D1*
X1066606Y1803470D1*
X1071765Y1808628D1*
X1077667Y1812916D1*
X1084166Y1816228D1*
X1091104Y1818482D1*
X1098310Y1819624D1*
X1105605D1*
X1112810Y1818482D1*
X1119748Y1816228D1*
X1126248Y1812916D1*
X1132150Y1808628D1*
X1137308Y1803470D1*
X1141596Y1797568D1*
X1144908Y1791068D1*
X1147162Y1784130D1*
X1148303Y1776925D1*
Y1769630D1*
X951379Y873676D2*
X954693Y878120D1*
X958626Y882145D1*
D19*
X466641Y1583336D3*
D20*
Y1483336D3*
D19*
X477976Y1881722D3*
D20*
X577976D3*
X677976D3*
D19*
X466504Y638642D3*
D20*
Y738642D3*
D19*
X1289764Y1884823D3*
D20*
X1389764D3*
X1489764D3*
D19*
X1091452Y1883432D3*
D20*
X991452D3*
X891452D3*
D19*
X1502691Y1702241D3*
D20*
X1402691D3*
X1302691D3*
D19*
X689204Y1720235D3*
D20*
Y1620235D3*
Y1520235D3*
D30*
X1453294Y939477D3*
X1453924Y840856D3*
X1453846Y740855D3*
X1353531Y940225D3*
X1352783Y840894D3*
X1353373Y740225D3*
D36*
X1467267Y456724D3*
X1207527Y456850D3*
D19*
X1507031Y1397793D3*
D20*
Y1497793D3*
D19*
X469140Y1125085D3*
D20*
Y1225085D3*
M02*
