M48
INCH
T01C0.0191
T02C0.0197
T03C0.038
T04C0.0394
T05C0.0472
T06C0.0551
T07C0.1181
%
T01
X+007688Y+010362
X+008019Y+010032
X+008105Y+009132
X+006637Y+008822
X+005070Y+008209
X+005716Y+010393
X+005964Y+011273
X+005926Y+012364
X+005182Y+013731
X+008056Y+013947
X+008329Y+012263
X+009154Y+011380
X+008942Y+010684
X+007349Y+010699
X+007047Y+011127
X+007301Y+011528
X+010710Y+011021
X+011222Y+010722
X+011367Y+010157
X+010604Y+009732
X+010578Y+008554
X+009900Y+008479
X+011777Y+008284
X+012315Y+007294
X+013376Y+006120
X+011596Y+005141
X+011282Y+005680
X+010182Y+005141
X+009776Y+005647
X+007822Y+005264
X+011415Y+011711
X+012798Y+011578
X+012025Y+012998
X+011640Y+013603
X+011841Y+015574
X+009970Y+016848
X+009410Y+015444
X+007897Y+018161
X+011423Y+017879
X+013706Y+017770
X+014145Y+016076
X+014048Y+013931
T02
X+014673Y+004429G85X+014673Y+004705
X+012075Y+004431G85X+012075Y+004706
T03
X+004666Y+015833
X+004666Y+014833
X+004687Y+012702
X+004687Y+011702
X+004687Y+010702
X+004665Y+007386
X+004665Y+006386
X+006892Y+015202
X+006892Y+016202
X+006892Y+017202
X+006780Y+018817
X+005780Y+018817
X+004780Y+018817
X+009057Y+018821
X+010057Y+018821
X+011057Y+018821
X+013788Y+018821
X+014788Y+018821
T04
X+014533Y+009395
X+014539Y+008409
X+014538Y+007409
X+013534Y+007402
X+013528Y+008409
X+013535Y+009402
T05
X+007560Y+004435
X+007560Y+007191
T06
X+014983Y+016672
X+014983Y+012672
T07
X+004945Y+004984
X+014756Y+011005
X+005059Y+017248
T00
M30
