G04 DipTrace 3.3.1.3*
G04 Top.gbr*
%MOIN*%
G04 #@! TF.FileFunction,Copper,L1,Top*
G04 #@! TF.Part,Single*
%AMOUTLINE0*
4,1,4,
-0.016703,-0.030623,
-0.030623,-0.016703,
0.016703,0.030623,
0.030623,0.016703,
-0.016703,-0.030623,
0*%
%AMOUTLINE3*
4,1,4,
-0.030623,0.016703,
-0.016703,0.030623,
0.030623,-0.016703,
0.016703,-0.030623,
-0.030623,0.016703,
0*%
%AMOUTLINE6*
4,1,4,
-0.017717,0.01378,
-0.017717,-0.01378,
0.017717,-0.01378,
0.017717,0.01378,
-0.017717,0.01378,
0*%
%AMOUTLINE7*
4,1,4,
-0.029231,0.001392,
0.001392,-0.029231,
0.029231,-0.001392,
-0.001392,0.029231,
-0.029231,0.001392,
0*%
%AMOUTLINE8*
4,1,4,
0.017717,-0.01378,
0.017717,0.01378,
-0.017717,0.01378,
-0.017717,-0.01378,
0.017717,-0.01378,
0*%
%AMOUTLINE11*
4,1,4,
0.019685,-0.021654,
0.019685,0.021654,
-0.019685,0.021654,
-0.019685,-0.021654,
0.019685,-0.021654,
0*%
%AMOUTLINE12*
4,1,4,
-0.019685,0.021654,
-0.019685,-0.021654,
0.019685,-0.021654,
0.019685,0.021654,
-0.019685,0.021654,
0*%
%AMOUTLINE13*
4,1,4,
0.021654,0.019685,
-0.021654,0.019685,
-0.021654,-0.019685,
0.021654,-0.019685,
0.021654,0.019685,
0*%
%AMOUTLINE14*
4,1,4,
-0.0275,-0.00685,
-0.0275,0.00685,
0.0275,0.00685,
0.0275,-0.00685,
-0.0275,-0.00685,
0*%
%AMOUTLINE17*
4,1,4,
0.033407,0.01392,
0.01392,0.033407,
-0.033407,-0.01392,
-0.01392,-0.033407,
0.033407,0.01392,
0*%
G04 #@! TA.AperFunction,Conductor*
%ADD10C,0.009843*%
%ADD14C,0.011*%
G04 #@! TA.AperFunction,ViaPad*
%ADD15C,0.04*%
G04 #@! TA.AperFunction,Conductor*
%ADD16C,0.015*%
%ADD17C,0.012*%
G04 #@! TA.AperFunction,CopperBalancing*
%ADD18C,0.025*%
G04 #@! TA.AperFunction,ComponentPad*
%ADD19R,0.06X0.06*%
%ADD20C,0.06*%
%ADD30C,0.07874*%
%ADD31R,0.03937X0.043307*%
%ADD33R,0.031496X0.031496*%
%ADD34R,0.035433X0.027559*%
G04 #@! TA.AperFunction,ComponentPad*
%ADD36O,0.035433X0.062992*%
%ADD37R,0.169291X0.07874*%
%ADD38R,0.055118X0.055118*%
%ADD39R,0.015748X0.05315*%
%ADD70OUTLINE0*%
%ADD73OUTLINE3*%
%ADD76OUTLINE6*%
%ADD77OUTLINE7*%
%ADD78OUTLINE8*%
%ADD81OUTLINE11*%
%ADD82OUTLINE12*%
%ADD83OUTLINE13*%
%ADD84OUTLINE14*%
%ADD87OUTLINE17*%
%FSLAX26Y26*%
G04*
G70*
G90*
G75*
G01*
G04 Top*
%LPD*%
X640651Y1065854D2*
D10*
X641894D1*
X691452Y1115411D1*
X704691Y1112682D1*
X1129833Y936987D2*
X1069415D1*
X1030910Y898482D1*
X1129833Y936987D2*
X1210554D1*
X1212776Y939209D1*
X1076382Y793920D2*
X1180881D1*
X1226561Y748241D1*
Y734268D1*
X1231464Y729365D1*
X1075863Y658944D2*
Y685045D1*
X1187144D1*
X1231464Y729365D1*
X507048Y886794D2*
Y820903D1*
X507035Y820890D1*
X896770Y1277428D2*
X841914Y1222574D1*
X869890D1*
X897085Y1195380D1*
X903805D1*
X941312Y1232886D1*
X832856Y1226338D2*
X841914Y1222574D1*
X1348561Y1470280D2*
Y1535717D1*
X1350764Y1537920D1*
X1049109Y1751818D2*
X1080499D1*
X1101957Y1773277D1*
X905586Y610052D2*
X932314D1*
X977624Y564742D1*
X1286440Y563447D2*
Y674389D1*
X1231464Y729365D1*
X1030910Y898482D2*
Y882298D1*
X1057829Y855380D1*
Y812474D1*
X1076382Y793920D1*
X600854Y1374422D2*
D14*
X721826D1*
X726326Y1369922D1*
X774277Y1321970D1*
X726326Y1369922D2*
D10*
Y1483113D1*
X689204Y1520235D1*
X600854Y1374422D2*
X538405D1*
X476128Y1312145D1*
Y1232073D1*
X469140Y1225085D1*
X1167941Y1194590D2*
X1164970D1*
X1141493Y1171112D1*
X734936Y1069873D2*
X733755D1*
X685193Y1021312D1*
X832562Y1473964D2*
X899779D1*
X901371Y1475556D1*
X919040Y1255158D2*
X923025D1*
X966897Y1299029D1*
X1014229D1*
X1047903Y1332704D1*
X1042909D1*
X963582Y1210616D2*
X1013018Y1260052D1*
Y1297818D1*
X1014229Y1299029D1*
X1013018Y1260052D2*
X1033386D1*
X1064279Y1229159D1*
X1107860D1*
X1120616Y1241915D1*
X707464Y999040D2*
Y999284D1*
X734940Y1026760D1*
X759352D1*
X768810Y1036218D1*
X963582Y1210616D2*
X962686D1*
X923182Y1171112D1*
Y1145754D1*
X915378Y1137951D1*
X1129833Y885806D2*
X1177882D1*
X1210554D1*
X1212776Y888028D1*
X1177882Y885806D2*
Y828574D1*
X1177705Y828397D1*
X905586Y558871D2*
X857436D1*
X814690D1*
X782224Y526405D1*
X905586Y635642D2*
X870145D1*
X860833Y626330D1*
Y562267D1*
X857436Y558871D1*
X905586Y763595D2*
X876187D1*
X860833Y748241D1*
Y725115D1*
Y626330D1*
X905586Y738004D2*
X873722D1*
X860833Y725115D1*
X617712Y661233D2*
X736062D1*
X778826Y618469D1*
Y529802D1*
X782224Y526405D1*
X902238Y1715398D2*
X966380D1*
X996968Y1684810D1*
X1049109Y1700637D2*
X1012794D1*
X996968Y1684810D1*
Y1676865D1*
Y1615469D1*
Y1602838D1*
X1069327Y1530478D1*
X996968Y1676865D2*
X1058624Y1615209D1*
X1174280D1*
X1265325Y1524165D1*
Y1469938D1*
X1272150D1*
X996968Y1615469D2*
X862335D1*
X829305Y1582439D1*
Y1544150D1*
X832562Y1540893D1*
X600854Y1441351D2*
X660665D1*
X682342Y1419672D1*
X1267187Y1135835D2*
Y1146717D1*
X1319179Y1198709D1*
X1375234D1*
X1380666Y1204141D1*
X1164420Y1696907D2*
X1052839D1*
X1049109Y1700637D1*
X617712Y789186D2*
X576624D1*
X556205Y809604D1*
Y867642D1*
X557817Y869254D1*
Y871672D1*
X571520Y885376D1*
X597078D1*
X598453Y886751D1*
X466641Y1483336D2*
D15*
X496973D1*
X633872Y1620235D1*
X689204D1*
X618381Y1166073D2*
D10*
Y1149256D1*
X596441Y1127317D1*
X640651Y1188344D2*
X592556Y1236440D1*
X874498Y1299700D2*
X875884D1*
X910289Y1334106D1*
X977497D1*
X1009502Y1366111D1*
X1076315Y1299297D2*
X1103409Y1326390D1*
Y1347759D1*
X1038060Y1413108D1*
X1000997D1*
X950279Y1362390D1*
X892646D1*
X852226Y1321970D1*
X990044Y847927D2*
Y888167D1*
X979729Y898482D1*
X1122222Y1060276D2*
Y1130411D1*
X1041184Y1211449D1*
X1008959D1*
X985854Y1188344D1*
X1272150Y1403008D2*
X1348218D1*
X1348561Y1403351D1*
X507048Y937976D2*
X598453Y937932D1*
X627460D1*
X644204Y921188D1*
Y901682D1*
X663662Y882224D1*
X894247Y1068376D2*
X941312Y1021312D1*
X617712Y814776D2*
X815495D1*
X991172Y990453D1*
Y1015993D1*
X963582Y1043582D1*
X618381Y1088125D2*
Y1092411D1*
X678729Y1152759D1*
X730060D1*
X618381Y1088125D2*
Y1086087D1*
X571569Y1039275D1*
X940961Y1544386D2*
X903272D1*
X901371Y1542485D1*
X1069327Y1463549D2*
X1142586D1*
X1143843Y1464806D1*
X752007Y954498D2*
X753210D1*
X801876Y1003163D1*
X1184077Y1557368D2*
X1169476D1*
X1143843Y1531735D1*
X1329208Y1136371D2*
X1351029D1*
X1366082Y1121318D1*
Y1041886D1*
X1345890Y1021695D1*
X1108970D1*
X1060445Y973170D1*
X810545Y913193D2*
X793312D1*
X774279Y932228D1*
X1267187Y1068906D2*
X1328672D1*
X1329208Y1069441D1*
X617712Y712414D2*
X653569D1*
X673592Y732438D1*
Y766575D1*
X699867Y792850D1*
X819997D1*
X1021731Y994585D1*
Y1029976D1*
X985854Y1065854D1*
X1079697Y1120798D2*
X1066548Y1107650D1*
X1008124Y1166073D1*
X477976Y1881722D2*
D16*
Y1843359D1*
X507641Y1813693D1*
X787340D1*
X789701Y1816054D1*
X1164420Y1763836D2*
D10*
X1241095D1*
X1302691Y1702241D1*
X752007Y1299700D2*
X751721D1*
X721843Y1329578D1*
X709752D1*
X702187Y1337144D1*
X1193529Y1805510D2*
Y1792945D1*
X1164420Y1763836D1*
X1312031Y563447D2*
Y522125D1*
X1304738Y514833D1*
X1160377D1*
X1159645Y514100D1*
X1018216D2*
X963256D1*
X955928Y506772D1*
X906503D1*
X905586Y507690D1*
X1337621Y563447D2*
Y611970D1*
X1128228Y568003D2*
Y555545D1*
X1046888Y474205D1*
X980935D1*
X974340Y480800D1*
X906885D1*
X905586Y482099D1*
Y686823D2*
X962166D1*
X987632Y712289D1*
Y780540D1*
X994250Y787158D1*
X1018032D1*
X1019662Y788788D1*
X905586Y661233D2*
X1009777D1*
X1014566Y656444D1*
X1019662Y729733D2*
X1073641D1*
X1076382Y726991D1*
X1014566Y597389D2*
X1070489D1*
X1075863Y592015D1*
X1064375Y1068170D2*
X1028079D1*
X1008124Y1088125D1*
X1289764Y1884823D2*
D17*
Y1832330D1*
X1419854Y1702241D1*
X1402691D1*
X685193Y1232886D2*
D10*
X684002D1*
X599254Y1317634D1*
X835309Y1715398D2*
Y1827289D1*
X891452Y1883432D1*
X1507031Y1497793D2*
D14*
Y1551121D1*
X1455207Y1615027D1*
Y1819381D1*
X1389764Y1884823D1*
X1455207Y1615027D2*
X1413474D1*
X1354587Y1673914D1*
Y1725250D1*
X1255016Y1824821D1*
X1230233D1*
X1193648Y1861406D1*
Y1908217D1*
X1164779Y1937086D1*
X615830D1*
X588384Y1909640D1*
Y1892130D1*
X577976Y1881722D1*
D15*
X1141493Y1171112D3*
X734936Y1069873D3*
X596441Y1127317D3*
X592556Y1236440D3*
X990044Y847927D3*
X1122222Y1060276D3*
X990044Y847927D3*
X663662Y882224D3*
X894247Y1068376D3*
X730060Y1152759D3*
X571569Y1039275D3*
X940961Y1544386D3*
X801876Y1003163D3*
X1202535Y1299792D3*
X1184077Y1557368D3*
X1060445Y973170D3*
X810545Y913193D3*
X768504Y1430125D3*
X1079697Y1120798D3*
X789701Y1816054D3*
X702187Y1337144D3*
X1193529Y1805510D3*
X1159645Y514100D3*
X1018216D3*
X1337621Y611970D3*
X1128228Y568003D3*
X1064375Y1068170D3*
X599254Y1317634D3*
X768810Y1036218D3*
X915378Y1137951D3*
X1177705Y828397D3*
X1231464Y729365D3*
X782224Y526405D3*
X507035Y820890D3*
X832856Y1226338D3*
X704691Y1112682D3*
X996968Y1684810D3*
X682342Y1419672D3*
X1350764Y1537920D3*
X1101957Y1773277D3*
X1380666Y1204141D3*
X1164016Y1360335D3*
X977624Y564742D3*
X1057829Y855380D3*
X1050450Y1883170D2*
D18*
X1159167D1*
X1044529Y1858301D2*
X1159311D1*
X920227Y1833432D2*
X962665D1*
X1020236D2*
X1153856D1*
X1515725D2*
X1531789D1*
X869235Y1808564D2*
X1017138D1*
X1489709D2*
X1531968D1*
X869235Y1783695D2*
X1001097D1*
X1489709D2*
X1532147D1*
X586898Y1758826D2*
X782204D1*
X955321D2*
X1001097D1*
X1489709D2*
X1532327D1*
X593429Y1733957D2*
X781809D1*
X955752D2*
X1001097D1*
X1489709D2*
X1532506D1*
X592460Y1709088D2*
X781809D1*
X955752D2*
X1001097D1*
X1489709D2*
X1532686D1*
X583669Y1684220D2*
X781809D1*
X955752D2*
X1001097D1*
X1232096D2*
X1246653D1*
X1489709D2*
X1532865D1*
X563430Y1659351D2*
X606264D1*
X732445D2*
X788268D1*
X949293D2*
X1002640D1*
X1228687D2*
X1263411D1*
X1489709D2*
X1533045D1*
X440455Y1634482D2*
X579889D1*
X746368D2*
X1346267D1*
X1489709D2*
X1533224D1*
X440527Y1609613D2*
X555021D1*
X747193D2*
X1371135D1*
X1503273D2*
X1533403D1*
X440598Y1584745D2*
X530117D1*
X735638D2*
X840480D1*
X966553D2*
X1143988D1*
X1224166D2*
X1400668D1*
X440670Y1559876D2*
X505250D1*
X731942D2*
X833698D1*
X987294D2*
X1076382D1*
X1232993D2*
X1307297D1*
X1394257D2*
X1456252D1*
X746224Y1535007D2*
X833698D1*
X988981D2*
X1076167D1*
X1227323D2*
X1301879D1*
X1399675D2*
X1462030D1*
X747301Y1510138D2*
X783890D1*
X974914D2*
X1020654D1*
X1211534D2*
X1285767D1*
X1411373D2*
X1449399D1*
X760147Y1485270D2*
X783890D1*
X969065D2*
X1020654D1*
X1211534D2*
X1280886D1*
X1416254D2*
X1449434D1*
X668535Y1460401D2*
X692422D1*
X969065D2*
X1020654D1*
X1211534D2*
X1280886D1*
X1416254D2*
X1462173D1*
X668535Y1435532D2*
X692422D1*
X1416254D2*
X1534695D1*
X668535Y1410663D2*
X692422D1*
X813220D2*
X951613D1*
X1087411D2*
X1223472D1*
X1416254D2*
X1534875D1*
X785015Y1385794D2*
X869187D1*
X1205398D2*
X1223472D1*
X1416254D2*
X1535054D1*
X789213Y1360926D2*
X837286D1*
X1409292D2*
X1535233D1*
X1038896Y1336057D2*
X1053632D1*
X1234105D2*
X1535413D1*
X522091Y1311188D2*
X550715D1*
X1013525D2*
X1028764D1*
X1250110D2*
X1535592D1*
X510034Y1286319D2*
X562377D1*
X973981D2*
X1013944D1*
X1249536D2*
X1535772D1*
X514879Y1261451D2*
X550858D1*
X998131D2*
X1026862D1*
X1231342D2*
X1535951D1*
X526936Y1236582D2*
X543574D1*
X1120568D2*
X1139359D1*
X1220649D2*
X1536166D1*
X526541Y1211713D2*
X550679D1*
X751320D2*
X786223D1*
X1240672D2*
X1536346D1*
X513228Y1186844D2*
X559076D1*
X764166D2*
X805816D1*
X1234787D2*
X1282681D1*
X1375740D2*
X1536525D1*
X441819Y1161976D2*
X562951D1*
X778125D2*
X928073D1*
X1209991D2*
X1261545D1*
X1396876D2*
X1413658D1*
X441890Y1137107D2*
X548490D1*
X776331D2*
X949998D1*
X1185124D2*
X1261509D1*
X441962Y1112238D2*
X549961D1*
X756595D2*
X876328D1*
X912153D2*
X944939D1*
X1156129D2*
X1218520D1*
X442034Y1087369D2*
X564100D1*
X780493D2*
X849307D1*
X1162517D2*
X1218520D1*
X442141Y1062501D2*
X528790D1*
X783328D2*
X845647D1*
X1171165D2*
X1218520D1*
X442213Y1037632D2*
X522618D1*
X835576D2*
X856879D1*
X1399711D2*
X1415129D1*
X442285Y1012763D2*
X530871D1*
X1383886D2*
X1537781D1*
X442357Y987894D2*
X465669D1*
X1255170D2*
X1305575D1*
X1500438D2*
X1537961D1*
X442429Y963025D2*
X459031D1*
X648870D2*
X670281D1*
X1260767D2*
X1289247D1*
X1517303D2*
X1538140D1*
X442500Y938157D2*
X459031D1*
X1260767D2*
X1285192D1*
X1521645D2*
X1538320D1*
X442572Y913288D2*
X459031D1*
X1260767D2*
X1290934D1*
X1516227D2*
X1538535D1*
X442644Y888419D2*
X459031D1*
X712242D2*
X730782D1*
X1260767D2*
X1304678D1*
X1501981D2*
X1538714D1*
X442716Y863550D2*
X459031D1*
X708725D2*
X817334D1*
X1260767D2*
X1288458D1*
X1518236D2*
X1538894D1*
X442787Y838682D2*
X461579D1*
X1254667D2*
X1284475D1*
X1522256D2*
X1539073D1*
X442859Y813813D2*
X458600D1*
X1207910D2*
X1290252D1*
X1516478D2*
X1539253D1*
X1232778Y788944D2*
X1306544D1*
X1496957D2*
X1539432D1*
X519436Y764075D2*
X555236D1*
X835109D2*
X856412D1*
X1264894D2*
X1289499D1*
X1417258D2*
X1539611D1*
X525500Y739207D2*
X561229D1*
X804356D2*
X858135D1*
X1421708D2*
X1539791D1*
X520010Y714338D2*
X561229D1*
X808376D2*
X849092D1*
X1416433D2*
X1539970D1*
X496793Y689469D2*
X561229D1*
X677506D2*
X713055D1*
X798938D2*
X849092D1*
X1397845D2*
X1540150D1*
X443290Y664600D2*
X566145D1*
X669288D2*
X849092D1*
X1320335D2*
X1540329D1*
X443362Y639731D2*
X561229D1*
X674205D2*
X853506D1*
X1377427D2*
X1540508D1*
X443433Y614863D2*
X561229D1*
X674205D2*
X849092D1*
X1400070D2*
X1540688D1*
X443505Y589994D2*
X561229D1*
X674205D2*
X849092D1*
X1516693D2*
X1540903D1*
X674205Y565125D2*
X852214D1*
X1516693D2*
X1541083D1*
X674205Y540256D2*
X849092D1*
X1516693D2*
X1541262D1*
X674205Y515388D2*
X849092D1*
X1516693D2*
X1541441D1*
X674169Y490519D2*
X736272D1*
X775721D2*
X849128D1*
X1509194D2*
X1541621D1*
X672410Y465650D2*
X708569D1*
X803423D2*
X850886D1*
X1085258D2*
X1160818D1*
X1513966D2*
X1541800D1*
X560236Y440781D2*
X703438D1*
X808519D2*
X1160890D1*
X1513930D2*
X1541980D1*
X438259Y1532137D2*
X445023Y1535526D1*
X453454Y1538265D1*
X462209Y1539652D1*
X471073D1*
X479828Y1538265D1*
X484731Y1536827D1*
X603679Y1655586D1*
X609581Y1659874D1*
X616081Y1663186D1*
X623019Y1665441D1*
X630224Y1666582D1*
X657089Y1666725D1*
X663558Y1670568D1*
X671748Y1673960D1*
X680367Y1676029D1*
X689204Y1676725D1*
X698041Y1676029D1*
X706660Y1673960D1*
X714850Y1670568D1*
X722408Y1665936D1*
X729148Y1660180D1*
X734905Y1653439D1*
X739536Y1645881D1*
X742929Y1637692D1*
X744998Y1629072D1*
X745693Y1620235D1*
X744998Y1611399D1*
X742929Y1602779D1*
X739536Y1594590D1*
X734905Y1587032D1*
X729148Y1580291D1*
X722408Y1574534D1*
X715469Y1570250D1*
X722408Y1565936D1*
X729148Y1560180D1*
X734905Y1553439D1*
X739536Y1545881D1*
X742929Y1537692D1*
X744998Y1529072D1*
X745693Y1520235D1*
X744998Y1511399D1*
X744575Y1509274D1*
X750211Y1503513D1*
X753108Y1499526D1*
X755346Y1495134D1*
X756869Y1490446D1*
X757640Y1485578D1*
X757737Y1483104D1*
X761232Y1476042D1*
X768504Y1476615D1*
X775777Y1476042D1*
X782871Y1474339D1*
X786386Y1473034D1*
X786388Y1522107D1*
X836159D1*
X836262Y1569091D1*
X836912Y1573196D1*
X838197Y1577149D1*
X840084Y1580853D1*
X842527Y1584216D1*
X845466Y1587155D1*
X848829Y1589598D1*
X852533Y1591486D1*
X856486Y1592770D1*
X860591Y1593420D1*
X940071Y1593502D1*
X944215Y1593176D1*
X948257Y1592205D1*
X952097Y1590615D1*
X962067Y1585809D1*
X968287Y1581997D1*
X973834Y1577259D1*
X978572Y1571712D1*
X982384Y1565492D1*
X985175Y1558752D1*
X986878Y1551659D1*
X987451Y1544386D1*
X986878Y1537114D1*
X985175Y1530020D1*
X982384Y1523281D1*
X978572Y1517061D1*
X973834Y1511513D1*
X968287Y1506776D1*
X966568Y1505627D1*
X966479Y1448950D1*
X965829Y1444844D1*
X964545Y1440891D1*
X962657Y1437187D1*
X960214Y1433824D1*
X957275Y1430885D1*
X953912Y1428442D1*
X950209Y1426555D1*
X946255Y1425270D1*
X942150Y1424620D1*
X862670Y1424539D1*
X858526Y1424865D1*
X851178Y1425821D1*
X814827D1*
X813709Y1419272D1*
X811455Y1412334D1*
X808143Y1405834D1*
X803855Y1399933D1*
X798697Y1394774D1*
X792795Y1390486D1*
X786295Y1387174D1*
X779357Y1384920D1*
X772152Y1383779D1*
X764857D1*
X757750Y1384901D1*
X762978Y1378510D1*
X767711Y1377067D1*
X771415Y1375180D1*
X774778Y1372737D1*
X813275Y1334355D1*
X851726Y1372736D1*
X855089Y1375180D1*
X858793Y1377067D1*
X862754Y1378353D1*
X870435Y1384601D1*
X874183Y1387802D1*
X878386Y1390378D1*
X882940Y1392264D1*
X887732Y1393414D1*
X892656Y1393801D1*
X937250D1*
X980597Y1436993D1*
X984584Y1439890D1*
X988976Y1442128D1*
X993664Y1443651D1*
X998532Y1444422D1*
X1023137Y1444519D1*
X1023153Y1511692D1*
X1078666D1*
X1078734Y1558341D1*
X1079385Y1562447D1*
X1080669Y1566400D1*
X1082556Y1570104D1*
X1084999Y1573467D1*
X1087939Y1576406D1*
X1091301Y1578849D1*
X1095005Y1580736D1*
X1098958Y1582021D1*
X1103064Y1582671D1*
X1145153Y1582753D1*
X1148726Y1587560D1*
X1153884Y1592719D1*
X1159786Y1597007D1*
X1166286Y1600319D1*
X1173224Y1602573D1*
X1180429Y1603714D1*
X1187724D1*
X1194929Y1602573D1*
X1201867Y1600319D1*
X1208367Y1597007D1*
X1214269Y1592719D1*
X1219428Y1587560D1*
X1223715Y1581659D1*
X1227027Y1575159D1*
X1229282Y1568221D1*
X1230423Y1561016D1*
Y1553720D1*
X1229282Y1546515D1*
X1227027Y1539577D1*
X1223715Y1533077D1*
X1219428Y1527175D1*
X1214269Y1522017D1*
X1209043Y1518181D1*
X1208952Y1438200D1*
X1208302Y1434095D1*
X1207017Y1430142D1*
X1205130Y1426438D1*
X1202687Y1423075D1*
X1199747Y1420136D1*
X1196385Y1417693D1*
X1192681Y1415806D1*
X1188728Y1414521D1*
X1184622Y1413871D1*
X1105142Y1413789D1*
X1100998Y1414115D1*
X1096949Y1415088D1*
X1080156Y1415406D1*
X1120077Y1375513D1*
X1122594Y1381441D1*
X1126405Y1387661D1*
X1131143Y1393208D1*
X1136690Y1397946D1*
X1142910Y1401758D1*
X1149650Y1404549D1*
X1156744Y1406252D1*
X1164016Y1406825D1*
X1171289Y1406252D1*
X1178382Y1404549D1*
X1185122Y1401758D1*
X1191342Y1397946D1*
X1196889Y1393208D1*
X1201627Y1387661D1*
X1205439Y1381441D1*
X1208230Y1374701D1*
X1209933Y1367608D1*
X1210506Y1360335D1*
X1209933Y1353063D1*
X1208216Y1345929D1*
X1213387Y1344997D1*
X1220325Y1342743D1*
X1226825Y1339431D1*
X1232727Y1335143D1*
X1237886Y1329984D1*
X1242173Y1324083D1*
X1245485Y1317583D1*
X1247740Y1310645D1*
X1248881Y1303439D1*
Y1296144D1*
X1247740Y1288939D1*
X1245485Y1282001D1*
X1242173Y1275501D1*
X1237886Y1269599D1*
X1232727Y1264441D1*
X1226825Y1260153D1*
X1220325Y1256841D1*
X1213387Y1254587D1*
X1206182Y1253446D1*
X1201381Y1253348D1*
X1232794Y1221809D1*
X1235237Y1218446D1*
X1237124Y1214743D1*
X1238409Y1210789D1*
X1239059Y1206684D1*
Y1202527D1*
X1238409Y1198422D1*
X1237124Y1194468D1*
X1235237Y1190765D1*
X1232794Y1187402D1*
X1176657Y1131149D1*
X1173496Y1128450D1*
X1169952Y1126278D1*
X1166112Y1124687D1*
X1162070Y1123717D1*
X1157926Y1123391D1*
X1153774Y1123719D1*
X1153633Y1094563D1*
X1157573Y1090469D1*
X1161861Y1084567D1*
X1165173Y1078067D1*
X1167427Y1071129D1*
X1168568Y1063924D1*
Y1056629D1*
X1168151Y1053103D1*
X1221037Y1053106D1*
X1221012Y1117049D1*
X1264038D1*
X1264099Y1162977D1*
X1264749Y1167082D1*
X1266034Y1171035D1*
X1267921Y1174739D1*
X1270364Y1178102D1*
X1273303Y1181041D1*
X1276666Y1183484D1*
X1280370Y1185371D1*
X1284323Y1186656D1*
X1288429Y1187306D1*
X1367909Y1187388D1*
X1372053Y1187062D1*
X1376094Y1186091D1*
X1379935Y1184501D1*
X1383479Y1182329D1*
X1386640Y1179629D1*
X1389339Y1176468D1*
X1391511Y1172924D1*
X1393102Y1169084D1*
X1394072Y1165042D1*
X1394398Y1160890D1*
Y1134882D1*
X1395105Y1133329D1*
X1396608Y1133225D1*
X1399420Y1139325D1*
X1402702Y1145186D1*
X1406434Y1150771D1*
X1410592Y1156046D1*
X1415152Y1160978D1*
X1420084Y1165537D1*
X1425359Y1169696D1*
X1430944Y1173427D1*
X1436805Y1176710D1*
X1442904Y1179522D1*
X1449206Y1181846D1*
X1455671Y1183670D1*
X1462259Y1184980D1*
X1468929Y1185770D1*
X1475641Y1186033D1*
X1482353Y1185770D1*
X1489023Y1184980D1*
X1495611Y1183670D1*
X1502076Y1181846D1*
X1508377Y1179522D1*
X1514477Y1176710D1*
X1520338Y1173427D1*
X1525923Y1169696D1*
X1531198Y1165537D1*
X1539211Y1157645D1*
X1537087Y1449954D1*
X1528648Y1445604D1*
X1520218Y1442864D1*
X1511463Y1441478D1*
X1502599D1*
X1493843Y1442864D1*
X1485413Y1445604D1*
X1477515Y1449628D1*
X1470344Y1454838D1*
X1464076Y1461106D1*
X1458865Y1468277D1*
X1454841Y1476176D1*
X1452102Y1484606D1*
X1450715Y1493361D1*
Y1502225D1*
X1452102Y1510980D1*
X1454841Y1519411D1*
X1458865Y1527309D1*
X1464076Y1534480D1*
X1470344Y1540748D1*
X1472725Y1542625D1*
X1439941Y1583064D1*
X1410964Y1583136D1*
X1406006Y1583921D1*
X1401232Y1585472D1*
X1396760Y1587751D1*
X1392699Y1590702D1*
X1345384Y1637877D1*
X1331960Y1651301D1*
X1328337Y1651908D1*
X1320147Y1648516D1*
X1311528Y1646447D1*
X1302691Y1645751D1*
X1293854Y1646447D1*
X1285235Y1648516D1*
X1277045Y1651908D1*
X1269487Y1656540D1*
X1262747Y1662297D1*
X1256990Y1669037D1*
X1252358Y1676595D1*
X1248966Y1684784D1*
X1246897Y1693404D1*
X1246201Y1702241D1*
X1246897Y1711078D1*
X1247319Y1713202D1*
X1229605Y1730905D1*
X1229529Y1670301D1*
X1228879Y1666196D1*
X1227594Y1662243D1*
X1225707Y1658539D1*
X1223264Y1655176D1*
X1220325Y1652237D1*
X1216962Y1649794D1*
X1213258Y1647907D1*
X1209305Y1646622D1*
X1205200Y1645972D1*
X1125720Y1645890D1*
X1121576Y1646216D1*
X1117534Y1647187D1*
X1113694Y1648777D1*
X1110149Y1650949D1*
X1106989Y1653649D1*
X1104289Y1656810D1*
X1102117Y1660354D1*
X1100527Y1664194D1*
X1099556Y1668236D1*
X1099230Y1672380D1*
Y1726601D1*
X1094752Y1723827D1*
X1094615Y1683170D1*
X1094533Y1666157D1*
X1093883Y1662052D1*
X1092598Y1658098D1*
X1090711Y1654395D1*
X1088268Y1651032D1*
X1085329Y1648093D1*
X1081966Y1645649D1*
X1078262Y1643762D1*
X1074309Y1642478D1*
X1070204Y1641828D1*
X1030094Y1641746D1*
X1025950Y1642072D1*
X1021908Y1643042D1*
X1018068Y1644633D1*
X1014524Y1646805D1*
X1011363Y1649504D1*
X1008663Y1652665D1*
X1006491Y1656209D1*
X1004901Y1660050D1*
X1003930Y1664092D1*
X1003604Y1668244D1*
X1003686Y1786298D1*
X1004336Y1790404D1*
X1005621Y1794357D1*
X1007508Y1798060D1*
X1009951Y1801423D1*
X1012890Y1804363D1*
X1016253Y1806806D1*
X1019957Y1808693D1*
X1023910Y1809977D1*
X1028015Y1810628D1*
X1068125Y1810709D1*
X1072277Y1810382D1*
X1074631Y1810888D1*
X1080851Y1814700D1*
X1087591Y1817492D1*
X1094685Y1819195D1*
X1101957Y1819767D1*
X1109230Y1819195D1*
X1116323Y1817492D1*
X1123024Y1814718D1*
X1148004Y1814854D1*
X1149315Y1819876D1*
X1152107Y1826616D1*
X1155919Y1832836D1*
X1160656Y1838383D1*
X1166204Y1843121D1*
X1167022Y1843667D1*
X1164093Y1849164D1*
X1162542Y1853938D1*
X1161756Y1858896D1*
X1161658Y1894958D1*
X1151515Y1905110D1*
X1043641Y1905050D1*
X1046381Y1896619D1*
X1047767Y1887864D1*
Y1879000D1*
X1046381Y1870245D1*
X1043641Y1861815D1*
X1039617Y1853917D1*
X1034407Y1846745D1*
X1028139Y1840477D1*
X1020968Y1835267D1*
X1013070Y1831243D1*
X1004639Y1828504D1*
X995884Y1827117D1*
X987020D1*
X978265Y1828504D1*
X969834Y1831243D1*
X961936Y1835267D1*
X954765Y1840477D1*
X948497Y1846745D1*
X943287Y1853917D1*
X941467Y1857167D1*
X937153Y1850229D1*
X931396Y1843488D1*
X924656Y1837731D1*
X917098Y1833100D1*
X908908Y1829708D1*
X900289Y1827638D1*
X891452Y1826943D1*
X882615Y1827638D1*
X880491Y1828061D1*
X866696Y1814254D1*
X866720Y1780604D1*
X928844Y1780507D1*
X932950Y1779857D1*
X936903Y1778572D1*
X940606Y1776685D1*
X943969Y1774242D1*
X946909Y1771303D1*
X949352Y1767940D1*
X951239Y1764236D1*
X952523Y1760283D1*
X953174Y1756177D1*
X953255Y1676697D1*
X952929Y1672553D1*
X951959Y1668512D1*
X950368Y1664671D1*
X948196Y1661127D1*
X945497Y1657966D1*
X942336Y1655267D1*
X938792Y1653095D1*
X934951Y1651504D1*
X930910Y1650534D1*
X926757Y1650208D1*
X808703Y1650290D1*
X804598Y1650940D1*
X800644Y1652224D1*
X796941Y1654111D1*
X793578Y1656555D1*
X790639Y1659494D1*
X788195Y1662857D1*
X786308Y1666560D1*
X785024Y1670514D1*
X784374Y1674619D1*
X784292Y1754099D1*
X784618Y1758243D1*
X785588Y1762285D1*
X787179Y1766125D1*
X788200Y1767947D1*
X786054Y1769708D1*
X778849Y1770849D1*
X771911Y1773104D1*
X765411Y1776416D1*
X760774Y1779706D1*
X571497Y1779704D1*
X575091Y1775110D1*
X578823Y1769526D1*
X582105Y1763665D1*
X584917Y1757565D1*
X587241Y1751263D1*
X589065Y1744799D1*
X590375Y1738211D1*
X591165Y1731540D1*
X591428Y1724829D1*
X591165Y1718117D1*
X590375Y1711446D1*
X589065Y1704859D1*
X587241Y1698394D1*
X584917Y1692092D1*
X582105Y1685992D1*
X578823Y1680132D1*
X575091Y1674547D1*
X570932Y1669272D1*
X566373Y1664339D1*
X561441Y1659780D1*
X556166Y1655622D1*
X550581Y1651890D1*
X544720Y1648608D1*
X538620Y1645796D1*
X532318Y1643471D1*
X525854Y1641648D1*
X519266Y1640337D1*
X512595Y1639548D1*
X505884Y1639284D1*
X499172Y1639548D1*
X492502Y1640337D1*
X485914Y1641648D1*
X479449Y1643471D1*
X473147Y1645796D1*
X467047Y1648608D1*
X461187Y1651890D1*
X455602Y1655622D1*
X450327Y1659780D1*
X445395Y1664339D1*
X437830Y1673084D1*
X438250Y1532168D1*
X522820Y734210D2*
X521433Y725455D1*
X518694Y717025D1*
X514670Y709127D1*
X509459Y701955D1*
X503191Y695687D1*
X496020Y690477D1*
X488122Y686453D1*
X479692Y683714D1*
X470937Y682327D1*
X462072D1*
X453317Y683714D1*
X444887Y686453D1*
X440723Y688386D1*
X441080Y565165D1*
X449783Y571303D1*
X455643Y574585D1*
X461743Y577397D1*
X468045Y579722D1*
X474510Y581545D1*
X481097Y582855D1*
X487768Y583645D1*
X494480Y583909D1*
X501191Y583645D1*
X507862Y582855D1*
X514450Y581545D1*
X520914Y579722D1*
X527216Y577397D1*
X533316Y574585D1*
X539176Y571303D1*
X544761Y567571D1*
X550036Y563413D1*
X554969Y558853D1*
X559528Y553921D1*
X563993Y548188D1*
X563722Y554760D1*
X563804Y567799D1*
X564048Y573467D1*
X563722Y580351D1*
X563804Y593390D1*
X564048Y599057D1*
X563722Y605941D1*
X563804Y618980D1*
X564048Y624648D1*
X563722Y631532D1*
X563804Y644571D1*
X564454Y648677D1*
X565739Y652630D1*
X567626Y656333D1*
X570069Y659696D1*
X571481Y661242D1*
X568781Y664403D1*
X566609Y667947D1*
X565019Y671787D1*
X564048Y675829D1*
X563722Y682713D1*
X563804Y695752D1*
X564048Y701420D1*
X563722Y708304D1*
X563804Y721343D1*
X564048Y727010D1*
X563722Y733894D1*
X563804Y746933D1*
X564048Y752601D1*
X563722Y759485D1*
Y760544D1*
X558161Y763774D1*
X554413Y766975D1*
X536474Y784914D1*
X531325Y781251D1*
X524825Y777940D1*
X517887Y775685D1*
X510126Y774522D1*
X514670Y768158D1*
X518694Y760260D1*
X521433Y751829D1*
X522820Y743074D1*
Y734210D1*
X440420Y788729D2*
X444887Y790832D1*
X453317Y793571D1*
X462072Y794958D1*
X468392Y795058D1*
X465612Y799784D1*
X462821Y806524D1*
X461118Y813618D1*
X460545Y820890D1*
X461118Y828163D1*
X462821Y835256D1*
X465164Y841025D1*
X462839Y846207D1*
X461869Y850249D1*
X461542Y854393D1*
X461624Y972456D1*
X462274Y976561D1*
X463559Y980514D1*
X465446Y984218D1*
X467889Y987581D1*
X470828Y990520D1*
X474191Y992963D1*
X477895Y994850D1*
X481848Y996135D1*
X485954Y996785D1*
X526064Y996867D1*
X530207Y996541D1*
X534249Y995570D1*
X538090Y993980D1*
X541634Y991808D1*
X544795Y989108D1*
X547494Y985947D1*
X549666Y982403D1*
X551257Y978563D1*
X552227Y974521D1*
X552553Y970369D1*
X552948Y970334D1*
X553274Y974478D1*
X554244Y978520D1*
X555835Y982360D1*
X558007Y985904D1*
X560707Y989065D1*
X563867Y991764D1*
X565604Y992924D1*
X557203Y995061D1*
X550463Y997852D1*
X544243Y1001664D1*
X538696Y1006402D1*
X533958Y1011949D1*
X530146Y1018169D1*
X527355Y1024909D1*
X525652Y1032002D1*
X525079Y1039275D1*
X525652Y1046547D1*
X527355Y1053641D1*
X530146Y1060381D1*
X533958Y1066601D1*
X538696Y1072148D1*
X544243Y1076886D1*
X550463Y1080697D1*
X557203Y1083489D1*
X564296Y1085192D1*
X565188Y1085298D1*
X567619Y1088631D1*
X566249Y1091966D1*
X561091Y1097124D1*
X556803Y1103026D1*
X553491Y1109526D1*
X551236Y1116464D1*
X550095Y1123669D1*
Y1130964D1*
X551236Y1138170D1*
X553491Y1145108D1*
X556803Y1151607D1*
X561091Y1157509D1*
X566249Y1162668D1*
X568567Y1164495D1*
X565170Y1168935D1*
X563283Y1172639D1*
X561999Y1176592D1*
X561349Y1180698D1*
Y1184854D1*
X561999Y1188960D1*
X563283Y1192913D1*
X565175Y1196624D1*
X565230Y1198829D1*
X559683Y1203567D1*
X554945Y1209114D1*
X551133Y1215334D1*
X548341Y1222074D1*
X546639Y1229168D1*
X546066Y1236440D1*
X546639Y1243713D1*
X548341Y1250806D1*
X551133Y1257546D1*
X554945Y1263766D1*
X559683Y1269313D1*
X565230Y1274051D1*
X571450Y1277863D1*
X573612Y1278860D1*
X569061Y1282283D1*
X563903Y1287442D1*
X559615Y1293344D1*
X556303Y1299844D1*
X554049Y1306782D1*
X552908Y1313987D1*
Y1321282D1*
X553339Y1324921D1*
X548312Y1327308D1*
X544949Y1329751D1*
X542005Y1332697D1*
X541128Y1332724D1*
X507559Y1299154D1*
X507539Y1266536D1*
X512095Y1261772D1*
X517305Y1254600D1*
X521329Y1246702D1*
X524068Y1238272D1*
X525455Y1229517D1*
Y1220652D1*
X524068Y1211897D1*
X521329Y1203467D1*
X517305Y1195569D1*
X512095Y1188398D1*
X505827Y1182130D1*
X498655Y1176919D1*
X490757Y1172895D1*
X482327Y1170156D1*
X473572Y1168769D1*
X464708D1*
X455952Y1170156D1*
X447522Y1172895D1*
X439293Y1177141D1*
X440426Y788722D1*
X962312Y1127096D2*
X956070Y1133799D1*
X950412Y1138996D1*
X935086Y1154437D1*
X932643Y1157800D1*
X930756Y1161504D1*
X929471Y1165457D1*
X928821Y1169563D1*
Y1173719D1*
X929067Y1175793D1*
X922268Y1169968D1*
X918065Y1167392D1*
X913511Y1165506D1*
X908719Y1164356D1*
X902461Y1163969D1*
X894620Y1164066D1*
X889752Y1164837D1*
X885064Y1166360D1*
X880672Y1168598D1*
X876685Y1171495D1*
X859675Y1188368D1*
X853962Y1184915D1*
X847222Y1182124D1*
X840129Y1180421D1*
X832856Y1179848D1*
X825584Y1180421D1*
X818490Y1182124D1*
X811750Y1184915D1*
X805530Y1188727D1*
X799983Y1193465D1*
X795245Y1199012D1*
X791434Y1205232D1*
X788642Y1211972D1*
X786939Y1219065D1*
X786367Y1226338D1*
X786939Y1233610D1*
X788642Y1240704D1*
X791434Y1247444D1*
X795245Y1253664D1*
X799983Y1259211D1*
X805530Y1263949D1*
X811750Y1267760D1*
X818943Y1270680D1*
X816786Y1272622D1*
X810640Y1273545D1*
X806544Y1269912D1*
X801361Y1264266D1*
X785914Y1248934D1*
X781789Y1245155D1*
X779090Y1241994D1*
X763642Y1226662D1*
X759518Y1222884D1*
X756818Y1219724D1*
X741371Y1204392D1*
X737247Y1200613D1*
X735954Y1198973D1*
X744426Y1196973D1*
X751165Y1194182D1*
X757385Y1190370D1*
X762933Y1185632D1*
X767670Y1180085D1*
X771482Y1173865D1*
X774274Y1167125D1*
X775977Y1160032D1*
X776549Y1152759D1*
X775977Y1145486D1*
X774274Y1138393D1*
X771482Y1131653D1*
X767670Y1125433D1*
X762933Y1119886D1*
X757385Y1115148D1*
X753343Y1112556D1*
X759227Y1109512D1*
X765129Y1105224D1*
X770287Y1100066D1*
X774575Y1094164D1*
X777887Y1087664D1*
X780141Y1080726D1*
X781282Y1073521D1*
Y1066226D1*
X780141Y1059020D1*
X777887Y1052082D1*
X774575Y1045583D1*
X770287Y1039681D1*
X765129Y1034522D1*
X759523Y1030432D1*
X762015Y1028818D1*
X764265Y1030489D1*
X769003Y1036036D1*
X774550Y1040774D1*
X780770Y1044586D1*
X787510Y1047377D1*
X794603Y1049080D1*
X801876Y1049653D1*
X809148Y1049080D1*
X816242Y1047377D1*
X822982Y1044586D1*
X829202Y1040774D1*
X834749Y1036036D1*
X839487Y1030489D1*
X843298Y1024269D1*
X846090Y1017529D1*
X847434Y1012240D1*
X862861Y1027536D1*
X864501Y1028828D1*
X864055Y1033025D1*
X858896Y1038183D1*
X854608Y1044085D1*
X851297Y1050585D1*
X849042Y1057523D1*
X847901Y1064728D1*
Y1072023D1*
X849042Y1079229D1*
X851297Y1086167D1*
X854608Y1092667D1*
X858896Y1098568D1*
X864055Y1103727D1*
X869957Y1108015D1*
X876456Y1111327D1*
X883394Y1113581D1*
X890600Y1114722D1*
X897895D1*
X905100Y1113581D1*
X912038Y1111327D1*
X918538Y1108015D1*
X924440Y1103727D1*
X929598Y1098568D1*
X931690Y1095914D1*
X936723Y1101513D1*
X951945Y1116620D1*
X956070Y1120399D1*
X958995Y1123784D1*
X998404Y1245130D2*
X1002556Y1245457D1*
X1006700Y1245131D1*
X1010741Y1244161D1*
X1012700Y1243438D1*
X1018145Y1242860D1*
X1043649Y1242763D1*
X1048517Y1241992D1*
X1050900Y1241320D1*
X1050370Y1242288D1*
X1046825Y1244460D1*
X1043659Y1247165D1*
X1022766Y1268174D1*
X1020323Y1271536D1*
X1018436Y1275240D1*
X1017151Y1279193D1*
X1016501Y1283299D1*
Y1287456D1*
X1017151Y1291561D1*
X1018436Y1295514D1*
X1020323Y1299218D1*
X1022766Y1302581D1*
X1063431Y1343362D1*
X1053566Y1353180D1*
X1012786Y1312561D1*
X1009423Y1310118D1*
X1005719Y1308231D1*
X1001766Y1306946D1*
X997660Y1306296D1*
X991757Y1306118D1*
X987203Y1304232D1*
X982410Y1303081D1*
X977487Y1302695D1*
X952485D1*
X953555Y1298276D1*
X953881Y1294132D1*
X953553Y1289980D1*
X953870Y1289673D1*
X958014Y1289999D1*
X962158Y1289673D1*
X966199Y1288703D1*
X970040Y1287112D1*
X973584Y1284940D1*
X976745Y1282241D1*
X992076Y1266793D1*
X994520Y1263431D1*
X996407Y1259727D1*
X997691Y1255774D1*
X998342Y1251668D1*
Y1247511D1*
X998096Y1245438D1*
X626447Y995268D2*
X612156Y1009675D1*
X610863Y1011315D1*
X609180Y1011949D1*
X604442Y1006402D1*
X598895Y1001664D1*
X592675Y997852D1*
X590434Y996820D1*
X619547Y996742D1*
X623653Y996092D1*
X625662Y995524D1*
X621038Y1000677D1*
X649734Y971983D2*
X642375Y979341D1*
X643633Y974478D1*
X643959Y970334D1*
Y964628D1*
X647860Y961817D1*
X666415Y943399D1*
X669616Y939651D1*
X672191Y935448D1*
X674077Y930895D1*
X674749Y928511D1*
X678028Y926438D1*
X684768Y923646D1*
X690988Y919834D1*
X696535Y915097D1*
X701273Y909549D1*
X705084Y903329D1*
X707876Y896590D1*
X709579Y889496D1*
X710151Y882224D1*
X709579Y874951D1*
X707876Y867858D1*
X705084Y861118D1*
X701273Y854898D1*
X696535Y849351D1*
X692992Y846193D1*
X802479Y846187D1*
X825433Y869136D1*
X817818Y867276D1*
X810545Y866704D1*
X803273Y867276D1*
X796179Y868979D1*
X789439Y871771D1*
X783219Y875583D1*
X777672Y880320D1*
X775785Y882362D1*
X771415Y879018D1*
X767711Y877131D1*
X763758Y875846D1*
X759652Y875196D1*
X755496D1*
X751390Y875846D1*
X747437Y877131D1*
X743733Y879018D1*
X740370Y881461D1*
X723511Y898321D1*
X719733Y902444D1*
X716567Y905150D1*
X701241Y920591D1*
X697462Y924716D1*
X694301Y927415D1*
X678969Y942862D1*
X676526Y946225D1*
X674639Y949929D1*
X673354Y953882D1*
X672704Y957988D1*
Y962144D1*
X672950Y964218D1*
X672634Y964525D1*
X668490Y964199D1*
X664346Y964525D1*
X660304Y965495D1*
X656464Y967086D1*
X652920Y969258D1*
X649754Y971963D1*
X643310Y978407D1*
X1125283Y1220016D2*
X1142537Y1237271D1*
X1130612Y1249182D1*
X1113357Y1231888D1*
X1125264Y1220004D1*
X1134123Y1228856D1*
X1534146Y1849946D2*
X1529708Y1844879D1*
X1522968Y1839122D1*
X1515410Y1834491D1*
X1507221Y1831099D1*
X1498601Y1829029D1*
X1489764Y1828334D1*
X1485869Y1828487D1*
X1486802Y1824385D1*
X1487196Y1819371D1*
Y1626360D1*
X1533381Y1569259D1*
X1535898Y1564904D1*
X1536217Y1568620D1*
X1534156Y1849908D1*
X805950Y439528D2*
X805753Y437864D1*
X1163992Y435521D1*
X1163321Y443084D1*
X1163292Y467754D1*
X1155997D1*
X1148792Y468895D1*
X1141854Y471150D1*
X1135354Y474461D1*
X1129452Y478749D1*
X1124294Y483908D1*
X1120006Y489810D1*
X1116694Y496310D1*
X1115811Y498704D1*
X1067287Y450320D1*
X1063300Y447423D1*
X1058908Y445185D1*
X1054220Y443662D1*
X1049352Y442891D1*
X980935Y442794D1*
X976021Y443181D1*
X971228Y444332D1*
X966675Y446218D1*
X962465Y448799D1*
X955968Y449389D1*
X938851D1*
X933086Y448759D1*
X876007Y448841D1*
X871902Y449491D1*
X867949Y450775D1*
X864245Y452662D1*
X860882Y455106D1*
X857943Y458045D1*
X855500Y461408D1*
X853613Y465111D1*
X852328Y469065D1*
X851678Y473170D1*
Y491028D1*
X851922Y496695D1*
X851596Y503579D1*
X851678Y516618D1*
X851922Y522286D1*
X851596Y529170D1*
X851678Y542209D1*
X852328Y546314D1*
X853613Y550268D1*
X855500Y553971D1*
X857943Y557334D1*
X859355Y558880D1*
X856655Y562041D1*
X854483Y565585D1*
X852893Y569425D1*
X851922Y573467D1*
X851596Y580351D1*
X851678Y593390D1*
X851922Y599057D1*
X851596Y605941D1*
X851678Y618980D1*
X852328Y623086D1*
X853613Y627039D1*
X855500Y630743D1*
X857943Y634106D1*
X859355Y635651D1*
X856655Y638812D1*
X854483Y642356D1*
X852893Y646197D1*
X851922Y650239D1*
X851596Y657123D1*
X851678Y670162D1*
X851922Y675829D1*
X851596Y682713D1*
X851678Y695752D1*
X851922Y701420D1*
X851596Y708304D1*
X851678Y721343D1*
X852328Y725448D1*
X853613Y729401D1*
X855500Y733105D1*
X857943Y736468D1*
X860882Y739407D1*
X864245Y741850D1*
X867949Y743737D1*
X871902Y745022D1*
X876007Y745672D1*
X933086Y745754D1*
X937230Y745428D1*
X941272Y744457D1*
X945112Y742867D1*
X948656Y740695D1*
X951817Y737995D1*
X954516Y734834D1*
X955676Y733098D1*
X956221Y739848D1*
Y769453D1*
X953229Y765132D1*
X950289Y762192D1*
X946927Y759749D1*
X943223Y757862D1*
X939270Y756578D1*
X935164Y755927D1*
X878086Y755846D1*
X873942Y756172D1*
X869900Y757142D1*
X866060Y758733D1*
X862516Y760905D1*
X859355Y763604D1*
X856655Y766765D1*
X854483Y770309D1*
X852893Y774149D1*
X851921Y778199D1*
X849070Y777502D1*
X840396Y768965D1*
X836409Y766067D1*
X832017Y763830D1*
X827329Y762307D1*
X822461Y761536D1*
X782713Y761439D1*
X788537Y757156D1*
X794098Y751595D1*
X798720Y745234D1*
X802290Y738227D1*
X804720Y730749D1*
X805950Y722982D1*
Y715119D1*
X804720Y707352D1*
X802290Y699874D1*
X798720Y692867D1*
X794098Y686506D1*
X788537Y680945D1*
X782176Y676323D1*
X775170Y672753D1*
X767691Y670323D1*
X759924Y669093D1*
X752061D1*
X744294Y670323D1*
X736816Y672753D1*
X729809Y676323D1*
X723448Y680945D1*
X717888Y686506D1*
X713266Y692867D1*
X709696Y699874D1*
X707266Y707352D1*
X706036Y715119D1*
Y722982D1*
X707266Y730749D1*
X709696Y738227D1*
X713266Y745234D1*
X717888Y751595D1*
X723448Y757156D1*
X729311Y761444D1*
X712882Y761439D1*
X705001Y753562D1*
X704906Y729973D1*
X704135Y725105D1*
X702612Y720417D1*
X700375Y716025D1*
X697477Y712038D1*
X675780Y690203D1*
X672024Y686997D1*
X671701Y682713D1*
X671375Y675829D1*
X670405Y671787D1*
X668814Y667947D1*
X666642Y664403D1*
X663943Y661224D1*
X666642Y658063D1*
X668814Y654519D1*
X670405Y650678D1*
X671375Y646637D1*
X671701Y639752D1*
X671620Y626714D1*
X671375Y621046D1*
X671701Y614162D1*
X671620Y601123D1*
X671375Y595455D1*
X671701Y588571D1*
X671620Y575532D1*
X671375Y569865D1*
X671701Y562981D1*
X671620Y549942D1*
X671375Y544274D1*
X671701Y537390D1*
X671620Y524351D1*
X671375Y518684D1*
X671701Y511800D1*
X671620Y498761D1*
X671375Y493093D1*
X671701Y486209D1*
X671620Y473170D1*
X670969Y469065D1*
X669685Y465111D1*
X667798Y461408D1*
X665355Y458045D1*
X662415Y455106D1*
X659053Y452663D1*
X655349Y450775D1*
X651396Y449491D1*
X647290Y448841D1*
X590212Y448759D1*
X586068Y449085D1*
X582026Y450056D1*
X578186Y451646D1*
X574642Y453818D1*
X571481Y456518D1*
X570064Y458051D1*
X563687Y448082D1*
X556483Y439513D1*
X706120Y438517D1*
X706036Y447392D1*
X707266Y455158D1*
X709696Y462637D1*
X713266Y469643D1*
X717888Y476005D1*
X723448Y481565D1*
X729809Y486187D1*
X736816Y489757D1*
X744294Y492187D1*
X752061Y493417D1*
X759924D1*
X767691Y492187D1*
X775170Y489757D1*
X782176Y486187D1*
X788537Y481565D1*
X794098Y476005D1*
X798720Y469643D1*
X802290Y462637D1*
X804720Y455158D1*
X805950Y447392D1*
Y439528D1*
X694927Y1464073D2*
X689204Y1463746D1*
X680367Y1464441D1*
X671748Y1466511D1*
X665871Y1468837D1*
X666044Y1456692D1*
Y1406418D1*
X694906Y1406411D1*
X694915Y1464046D1*
X1518951Y934310D2*
X1517334Y924102D1*
X1514141Y914274D1*
X1509449Y905065D1*
X1503375Y896705D1*
X1497239Y890480D1*
X1504004Y883629D1*
X1510079Y875268D1*
X1514771Y866060D1*
X1517964Y856231D1*
X1519581Y846023D1*
Y835689D1*
X1517964Y825482D1*
X1514771Y815653D1*
X1510079Y806445D1*
X1504004Y798084D1*
X1496697Y790776D1*
X1488336Y784702D1*
X1479128Y780010D1*
X1469299Y776816D1*
X1459092Y775200D1*
X1448757D1*
X1438550Y776816D1*
X1428721Y780010D1*
X1419513Y784702D1*
X1411152Y790776D1*
X1403844Y798084D1*
X1403357Y798702D1*
X1399352Y794324D1*
X1395539Y790802D1*
X1399943Y786795D1*
X1406655Y778936D1*
X1412055Y770125D1*
X1416009Y760577D1*
X1418422Y750528D1*
X1419233Y740225D1*
X1418422Y729922D1*
X1416009Y719873D1*
X1412055Y710325D1*
X1406655Y701514D1*
X1399943Y693655D1*
X1392085Y686943D1*
X1383273Y681544D1*
X1373725Y677589D1*
X1363676Y675176D1*
X1353373Y674365D1*
X1343071Y675176D1*
X1333021Y677589D1*
X1323474Y681544D1*
X1315451Y686416D1*
X1316983Y681722D1*
X1317754Y676853D1*
X1317851Y654043D1*
X1323255Y656184D1*
X1330349Y657887D1*
X1337621Y658460D1*
X1344894Y657887D1*
X1351987Y656184D1*
X1358727Y653393D1*
X1364947Y649581D1*
X1370494Y644843D1*
X1375232Y639296D1*
X1379044Y633076D1*
X1381835Y626336D1*
X1383538Y619243D1*
X1383967Y616511D1*
X1397576D1*
Y523032D1*
X1406067Y523013D1*
X1406095Y608974D1*
X1514192D1*
Y500877D1*
X1499372D1*
X1503030Y496487D1*
X1506655Y490572D1*
X1509309Y484164D1*
X1510929Y477418D1*
X1511473Y470503D1*
X1511337Y439476D1*
X1510376Y433249D1*
X1544572Y433030D1*
X1540059Y1044186D1*
X1531198Y1035440D1*
X1525923Y1031282D1*
X1520338Y1027550D1*
X1514477Y1024268D1*
X1508377Y1021456D1*
X1502076Y1019131D1*
X1495611Y1017308D1*
X1489023Y1015997D1*
X1482353Y1015208D1*
X1475641Y1014944D1*
X1468929Y1015208D1*
X1462259Y1015997D1*
X1455671Y1017308D1*
X1449206Y1019131D1*
X1442904Y1021456D1*
X1436805Y1024268D1*
X1430944Y1027550D1*
X1425359Y1031282D1*
X1420084Y1035440D1*
X1415152Y1040000D1*
X1410592Y1044932D1*
X1406434Y1050207D1*
X1402702Y1055792D1*
X1397498Y1065822D1*
X1397396Y1039422D1*
X1396625Y1034554D1*
X1395102Y1029866D1*
X1392864Y1025474D1*
X1389967Y1021487D1*
X1372028Y1003411D1*
X1378734Y1001071D1*
X1387942Y996379D1*
X1396303Y990305D1*
X1403723Y982855D1*
X1410522Y989557D1*
X1418883Y995631D1*
X1428091Y1000323D1*
X1437920Y1003517D1*
X1448127Y1005133D1*
X1458462D1*
X1468669Y1003517D1*
X1478498Y1000323D1*
X1487706Y995631D1*
X1496067Y989557D1*
X1503375Y982249D1*
X1509449Y973888D1*
X1514141Y964680D1*
X1517334Y954852D1*
X1518951Y944644D1*
Y934310D1*
X1309942Y890899D2*
X1303451Y897453D1*
X1297376Y905813D1*
X1292684Y915022D1*
X1289491Y924850D1*
X1287874Y935058D1*
Y945392D1*
X1289491Y955600D1*
X1292684Y965428D1*
X1297376Y974636D1*
X1303451Y982997D1*
X1310743Y990291D1*
X1250546Y990284D1*
X1253222Y987181D1*
X1255394Y983637D1*
X1256985Y979796D1*
X1257955Y975755D1*
X1258281Y971603D1*
X1258200Y853548D1*
X1257549Y849443D1*
X1256265Y845489D1*
X1254378Y841786D1*
X1251935Y838423D1*
X1248995Y835484D1*
X1245633Y833040D1*
X1241929Y831153D1*
X1237976Y829869D1*
X1233870Y829219D1*
X1193760Y829137D1*
X1189616Y829463D1*
X1185575Y830433D1*
X1181734Y832024D1*
X1178190Y834196D1*
X1175029Y836896D1*
X1172325Y840063D1*
X1171434Y839564D1*
X1168991Y836201D1*
X1166052Y833262D1*
X1162689Y830819D1*
X1158985Y828932D1*
X1155032Y827647D1*
X1150927Y826997D1*
X1122545Y826915D1*
X1131501Y825331D1*
X1183346Y825234D1*
X1188214Y824463D1*
X1192902Y822940D1*
X1197293Y820703D1*
X1201281Y817805D1*
X1245543Y773681D1*
X1252570Y770788D1*
X1258790Y766976D1*
X1264337Y762238D1*
X1269075Y756691D1*
X1272886Y750471D1*
X1275678Y743731D1*
X1277381Y736638D1*
X1277953Y729365D1*
X1277875Y727385D1*
X1294451Y710800D1*
X1290737Y719873D1*
X1288324Y729922D1*
X1287514Y740225D1*
X1288324Y750528D1*
X1290737Y760577D1*
X1294692Y770125D1*
X1300092Y778936D1*
X1306803Y786795D1*
X1310617Y790317D1*
X1306213Y794324D1*
X1299501Y802183D1*
X1294101Y810995D1*
X1290146Y820542D1*
X1287734Y830592D1*
X1286923Y840894D1*
X1287734Y851197D1*
X1290146Y861246D1*
X1294101Y870794D1*
X1299501Y879606D1*
X1306213Y887464D1*
X1309906Y890878D1*
X1235162Y1451151D2*
X1283355D1*
X1283452Y1496886D1*
X1284102Y1500991D1*
X1285387Y1504945D1*
X1287274Y1508648D1*
X1289717Y1512011D1*
X1292657Y1514950D1*
X1296019Y1517394D1*
X1299723Y1519281D1*
X1303676Y1520565D1*
X1305724Y1520972D1*
X1306550Y1523554D1*
X1304847Y1530648D1*
X1304275Y1537920D1*
X1304847Y1545193D1*
X1306550Y1552287D1*
X1309342Y1559026D1*
X1313154Y1565246D1*
X1317891Y1570794D1*
X1323438Y1575531D1*
X1329659Y1579343D1*
X1336398Y1582135D1*
X1343492Y1583838D1*
X1350764Y1584410D1*
X1358037Y1583838D1*
X1365130Y1582135D1*
X1371870Y1579343D1*
X1378090Y1575531D1*
X1383637Y1570794D1*
X1388375Y1565246D1*
X1392187Y1559026D1*
X1394978Y1552287D1*
X1396681Y1545193D1*
X1397254Y1537920D1*
X1396681Y1530648D1*
X1394978Y1523554D1*
X1393838Y1520464D1*
X1399288Y1518410D1*
X1402832Y1516238D1*
X1405993Y1513539D1*
X1408692Y1510378D1*
X1410864Y1506834D1*
X1412455Y1502993D1*
X1413425Y1498951D1*
X1413751Y1494808D1*
X1413670Y1376745D1*
X1413019Y1372639D1*
X1411735Y1368686D1*
X1409848Y1364983D1*
X1407404Y1361620D1*
X1404465Y1358681D1*
X1401102Y1356237D1*
X1397399Y1354350D1*
X1393446Y1353066D1*
X1389340Y1352415D1*
X1309860Y1352334D1*
X1305716Y1352660D1*
X1301674Y1353630D1*
X1299716Y1354354D1*
X1290766Y1354865D1*
X1225976D1*
Y1451151D1*
X1235162D1*
X883452Y1727583D2*
Y1703182D1*
X900241Y1703187D1*
X900276Y1727617D1*
X883453Y1727609D1*
X883452Y1707674D1*
D19*
X466641Y1583336D3*
D20*
Y1483336D3*
D19*
X477976Y1881722D3*
D20*
X577976D3*
X677976D3*
D19*
X466504Y638642D3*
D20*
Y738642D3*
D70*
X1008124Y1166073D3*
X985852Y1188344D3*
X963582Y1210616D3*
X941310Y1232886D3*
X919040Y1255158D3*
X896768Y1277428D3*
X874498Y1299700D3*
X852226Y1321970D3*
D73*
X774277D3*
X752007Y1299700D3*
X729735Y1277428D3*
X707464Y1255158D3*
X685193Y1232886D3*
X662922Y1210616D3*
X640651Y1188344D3*
X618380Y1166073D3*
D70*
Y1088125D3*
X640651Y1065854D3*
X662922Y1043582D3*
X685193Y1021312D3*
X707464Y999040D3*
X729735Y976770D3*
X752007Y954498D3*
X774277Y932228D3*
D73*
X852226D3*
X874498Y954498D3*
X896768Y976770D3*
X919040Y999040D3*
X941310Y1021312D3*
X963582Y1043582D3*
X985852Y1065854D3*
X1008124Y1088125D3*
D76*
X598453Y886751D3*
Y937932D3*
D77*
X1167941Y1194590D3*
X1120616Y1241915D3*
D78*
X1212776Y939209D3*
Y888028D3*
X1129833Y936987D3*
Y885806D3*
D76*
X1049109Y1700637D3*
Y1751818D3*
D19*
X1289764Y1884823D3*
D20*
X1389764D3*
X1489764D3*
D19*
X1091452Y1883432D3*
D20*
X991452D3*
X891452D3*
D19*
X1502691Y1702241D3*
D20*
X1402691D3*
X1302691D3*
D19*
X689204Y1720235D3*
D20*
Y1620235D3*
Y1520235D3*
D30*
X1453294Y939477D3*
X1453924Y840856D3*
X1453846Y740855D3*
X1353531Y940225D3*
X1352783Y840894D3*
X1353373Y740225D3*
D81*
X1164420Y1763836D3*
Y1696907D3*
D31*
X832562Y1540893D3*
Y1473964D3*
X1272150Y1469938D3*
Y1403008D3*
X1069327Y1530478D3*
Y1463549D3*
X1267187Y1135835D3*
Y1068906D3*
D33*
X1019662Y788788D3*
Y729733D3*
X1014566Y656444D3*
Y597389D3*
D78*
X507048Y937976D3*
Y886794D3*
D81*
X600854Y1441351D3*
Y1374422D3*
D82*
X1348561Y1403351D3*
Y1470280D3*
D81*
X901371Y1542485D3*
Y1475556D3*
X1143843Y1531735D3*
Y1464806D3*
X1329208Y1136371D3*
Y1069441D3*
D83*
X835309Y1715398D3*
X902238D3*
D31*
X1076382Y726991D3*
Y793920D3*
X1075863Y592015D3*
Y658944D3*
D34*
X979729Y898482D3*
X1030910D3*
D84*
X905586Y814776D3*
Y789186D3*
Y763595D3*
Y738004D3*
Y712414D3*
Y686823D3*
Y661233D3*
Y610052D3*
Y635642D3*
Y584461D3*
Y558871D3*
Y533280D3*
Y507690D3*
Y482099D3*
X617712Y814776D3*
Y789186D3*
Y763595D3*
Y738004D3*
Y712414D3*
Y686823D3*
Y661233D3*
Y635642D3*
Y610052D3*
Y584461D3*
Y558871D3*
Y533280D3*
Y507690D3*
Y482099D3*
D36*
X1467267Y456724D3*
X1207527Y456850D3*
D37*
X1337314Y457154D3*
D38*
X1215582Y554871D3*
X1460144Y554926D3*
D39*
X1388802Y563447D3*
X1363212D3*
X1337621D3*
X1312031D3*
X1286440D3*
D19*
X1507031Y1397793D3*
D20*
Y1497793D3*
D87*
X1009502Y1366111D3*
X1042909Y1332704D3*
X1076315Y1299297D3*
D19*
X469140Y1125085D3*
D20*
Y1225085D3*
M02*
