G04 DipTrace 3.3.1.3*
G04 Top.gbr*
%MOIN*%
G04 #@! TF.FileFunction,Copper,L1,Top*
G04 #@! TF.Part,Single*
%AMOUTLINE0*
4,1,4,
-0.016703,-0.030623,
-0.030623,-0.016703,
0.016703,0.030623,
0.030623,0.016703,
-0.016703,-0.030623,
0*%
%AMOUTLINE3*
4,1,4,
-0.030623,0.016703,
-0.016703,0.030623,
0.030623,-0.016703,
0.016703,-0.030623,
-0.030623,0.016703,
0*%
%AMOUTLINE6*
4,1,4,
-0.017717,0.01378,
-0.017717,-0.01378,
0.017717,-0.01378,
0.017717,0.01378,
-0.017717,0.01378,
0*%
%AMOUTLINE7*
4,1,4,
-0.029231,0.001392,
0.001392,-0.029231,
0.029231,-0.001392,
-0.001392,0.029231,
-0.029231,0.001392,
0*%
%AMOUTLINE10*
4,1,4,
0.017717,-0.01378,
0.017717,0.01378,
-0.017717,0.01378,
-0.017717,-0.01378,
0.017717,-0.01378,
0*%
%AMOUTLINE11*
4,1,4,
0.021654,0.019685,
-0.021654,0.019685,
-0.021654,-0.019685,
0.021654,-0.019685,
0.021654,0.019685,
0*%
%AMOUTLINE12*
4,1,4,
-0.019685,0.021654,
-0.019685,-0.021654,
0.019685,-0.021654,
0.019685,0.021654,
-0.019685,0.021654,
0*%
%AMOUTLINE13*
4,1,4,
0.019685,-0.021654,
0.019685,0.021654,
-0.019685,0.021654,
-0.019685,-0.021654,
0.019685,-0.021654,
0*%
%AMOUTLINE14*
4,1,4,
0.033407,0.01392,
0.01392,0.033407,
-0.033407,-0.01392,
-0.01392,-0.033407,
0.033407,0.01392,
0*%
%AMOUTLINE15*
4,1,4,
-0.0275,-0.00685,
-0.0275,0.00685,
0.0275,0.00685,
0.0275,-0.00685,
-0.0275,-0.00685,
0*%
G04 #@! TA.AperFunction,Conductor*
%ADD10C,0.009843*%
G04 #@! TA.AperFunction,ViaPad*
%ADD14C,0.04*%
G04 #@! TA.AperFunction,Conductor*
%ADD15C,0.015*%
G04 #@! TA.AperFunction,CopperBalancing*
%ADD16C,0.025*%
G04 #@! TA.AperFunction,ComponentPad*
%ADD17R,0.06X0.06*%
%ADD18C,0.06*%
%ADD28C,0.07874*%
%ADD29R,0.03937X0.043307*%
%ADD31R,0.031496X0.031496*%
%ADD32R,0.035433X0.027559*%
G04 #@! TA.AperFunction,ComponentPad*
%ADD34O,0.035433X0.062992*%
%ADD35R,0.169291X0.07874*%
%ADD36R,0.055118X0.055118*%
%ADD37R,0.015748X0.05315*%
%ADD69OUTLINE0*%
%ADD72OUTLINE3*%
%ADD75OUTLINE6*%
%ADD76OUTLINE7*%
%ADD79OUTLINE10*%
%ADD80OUTLINE11*%
%ADD81OUTLINE12*%
%ADD82OUTLINE13*%
%ADD83OUTLINE14*%
%ADD84OUTLINE15*%
%FSLAX26Y26*%
G04*
G70*
G90*
G75*
G01*
G04 Top*
%LPD*%
X466641Y1483336D2*
D14*
X496973D1*
X633872Y1620235D1*
X689204D1*
X1167941Y1194590D2*
D10*
X1164970D1*
X1141493Y1171112D1*
X734936Y1069873D2*
X733755D1*
X685193Y1021312D1*
X832562Y1473964D2*
X899779D1*
X901371Y1475556D1*
X617712Y789186D2*
X576624D1*
X556205Y809604D1*
Y867642D1*
X557817Y869254D1*
Y871672D1*
X571520Y885376D1*
X597078D1*
X598453Y886751D1*
X477976Y1881722D2*
D15*
Y1843359D1*
X507641Y1813693D1*
X787340D1*
X789701Y1816054D1*
X905731Y1882134D2*
D10*
Y1843497D1*
X836578Y1774343D1*
Y1716667D1*
X835309Y1715398D1*
Y1679842D1*
X814154Y1658687D1*
X775209D1*
X763407Y1646885D1*
Y1488008D1*
X708789Y1433390D1*
Y1342918D1*
X752007Y1299700D1*
X1070973Y1102082D2*
Y1103224D1*
X1008124Y1166073D1*
X919040Y1255158D2*
X923025D1*
X966897Y1299029D1*
X1014229D1*
X1047903Y1332704D1*
X1042909D1*
X963582Y1210616D2*
X1013018Y1260052D1*
Y1297818D1*
X1014229Y1299029D1*
X1013018Y1260052D2*
X1033386D1*
X1064279Y1229159D1*
X1107860D1*
X1120616Y1241915D1*
X707464Y999040D2*
Y999284D1*
X734940Y1026760D1*
X759352D1*
X768810Y1036218D1*
X963582Y1210616D2*
X962686D1*
X923182Y1171112D1*
Y1145754D1*
X915378Y1137951D1*
X1129833Y885806D2*
X1177882D1*
X1210554D1*
X1212776Y888028D1*
X1177882Y885806D2*
Y828574D1*
X1177705Y828397D1*
X905586Y558871D2*
X857436D1*
X814690D1*
X782224Y526405D1*
X905586Y635642D2*
X870145D1*
X860833Y626330D1*
Y562267D1*
X857436Y558871D1*
X905586Y763595D2*
X876187D1*
X860833Y748241D1*
Y725115D1*
Y626330D1*
X905586Y738004D2*
X873722D1*
X860833Y725115D1*
X617712Y661233D2*
X736062D1*
X778826Y618469D1*
Y529802D1*
X782224Y526405D1*
X902238Y1715398D2*
X966380D1*
X996968Y1684810D1*
X1093709Y1705159D2*
X1017317D1*
X996968Y1684810D1*
Y1618546D1*
X1069327Y1546187D1*
X996968Y1618546D2*
Y1615413D1*
X1221088D1*
X1295754Y1540747D1*
X996968Y1615469D2*
X862335D1*
X829305Y1582439D1*
Y1544150D1*
X832562Y1540893D1*
X576066Y1375312D2*
X520372D1*
X518161Y1373100D1*
X1291369Y1324745D2*
Y1335627D1*
X1343361Y1387619D1*
X1399417D1*
X1404848Y1393050D1*
X618380Y1166073D2*
Y1149255D1*
X596441Y1127317D1*
X689204Y1520235D2*
X681540D1*
Y1403326D1*
X676275Y1408591D1*
X642995Y1375312D1*
X681540Y1403326D2*
Y1325624D1*
X729735Y1277428D1*
X640651Y1188344D2*
X592556Y1236440D1*
X1019662Y729733D2*
X1073641D1*
X1076382Y726991D1*
X1014566Y597389D2*
X1070489D1*
X1075863Y592015D1*
X874498Y1299700D2*
X875884D1*
X910289Y1334106D1*
X977497D1*
X1009502Y1366111D1*
X1076315Y1299297D2*
X1103409Y1326390D1*
Y1347759D1*
X1038060Y1413108D1*
X1000997D1*
X950279Y1362390D1*
X892646D1*
X852226Y1321970D1*
X1281620Y1758871D2*
X1346138D1*
X1370611Y1776985D1*
X1312031Y563447D2*
Y522125D1*
X1304738Y514833D1*
X1160378D1*
X1159645Y514100D1*
X1018216D2*
X963256D1*
X955928Y506772D1*
X906503D1*
X905586Y507690D1*
X1337621Y563447D2*
Y611970D1*
X1128228Y568003D2*
Y555545D1*
X1046888Y474205D1*
X980936D1*
X974340Y480800D1*
X906885D1*
X905586Y482099D1*
X990044Y847927D2*
Y888167D1*
X979729Y898482D1*
X1122222Y1072159D2*
Y1130411D1*
X1041184Y1211449D1*
X1008957D1*
X985852Y1188344D1*
X1295754Y1473818D2*
X1371822D1*
X1372165Y1474161D1*
X507048Y937976D2*
X598453Y937932D1*
X627460D1*
X644204Y921188D1*
Y901682D1*
X663662Y882224D1*
X894247Y1068376D2*
Y1068375D1*
X941310Y1021312D1*
X1192007Y1703792D2*
X1277722D1*
X1281620Y1707690D1*
X1378036D1*
X1477435Y1608291D1*
Y1378752D1*
X1416587Y1317905D1*
Y1176280D1*
X1292179Y1051872D1*
Y801419D1*
X1353373Y740225D1*
X617712Y814776D2*
X795498D1*
X815495D1*
X991172Y990453D1*
Y1015991D1*
X963582Y1043582D1*
X795498Y814776D2*
X624494Y985780D1*
X556221D1*
X525010Y1016991D1*
Y1213829D1*
X468688Y1270150D1*
X905586Y661233D2*
X1009777D1*
X1014566Y656444D1*
X618380Y1088125D2*
Y1092410D1*
X678729Y1152759D1*
X730060D1*
X618380Y1088125D2*
Y1086086D1*
X571569Y1039275D1*
X940961Y1544386D2*
X903272D1*
X901371Y1542485D1*
X1069327Y1479258D2*
X1142586D1*
X1143843Y1480515D1*
X752007Y954498D2*
X753210D1*
X801876Y1003163D1*
X1184077Y1557368D2*
X1153767D1*
X1143843Y1547444D1*
X1353390Y1325280D2*
X1375212D1*
X1390264Y1310228D1*
Y1187321D1*
X1185489Y982545D1*
X1069821D1*
X1060445Y973170D1*
X810545Y913193D2*
X793312D1*
X774277Y932228D1*
X1291369Y1257815D2*
X1352855D1*
X1353390Y1258351D1*
X617712Y712414D2*
X653569D1*
X673592Y732438D1*
Y766575D1*
X699867Y792850D1*
X819997D1*
X1021731Y994585D1*
Y1027478D1*
Y1029974D1*
X985852Y1065854D1*
X1021731Y1027478D2*
X1124894D1*
X1136666Y1015707D1*
X905586Y686823D2*
X962166D1*
X987632Y712289D1*
Y780540D1*
X994250Y787158D1*
X1018032D1*
X1019662Y788788D1*
X640651Y1065854D2*
X641894D1*
X691452Y1115411D1*
X704691Y1112682D1*
X1129833Y936987D2*
X1069415D1*
X1030910Y898482D1*
X1129833Y936987D2*
X1210554D1*
X1212776Y939209D1*
X1076382Y793920D2*
X1180881D1*
X1226561Y748241D1*
Y734268D1*
X1231464Y729365D1*
X1075863Y658944D2*
Y685045D1*
X1187144D1*
X1231464Y729365D1*
X507048Y886794D2*
Y820903D1*
X507035Y820890D1*
X896768Y1277428D2*
X841914Y1222574D1*
X869890D1*
X897085Y1195380D1*
X903804D1*
X941310Y1232886D1*
X832856Y1226338D2*
X841914Y1222574D1*
X1372165Y1541090D2*
Y1565221D1*
X1414494Y1607550D1*
X1093709Y1756340D2*
X1110734D1*
X1142301Y1787907D1*
X1192007Y1754973D2*
X1175235D1*
X1142301Y1787907D1*
X905586Y610052D2*
X932314D1*
X977624Y564742D1*
X1286440Y563447D2*
Y674389D1*
X1231464Y729365D1*
X1030910Y898482D2*
Y882298D1*
X1057829Y855380D1*
Y812474D1*
X1076382Y793920D1*
D14*
X1141493Y1171112D3*
X734936Y1069873D3*
X789701Y1816054D3*
X805578Y1394718D3*
X1070973Y1102082D3*
X596441Y1127317D3*
X592556Y1236440D3*
X1370611Y1776985D3*
X1159645Y514100D3*
X1018216D3*
X1337621Y611970D3*
X1128228Y568003D3*
X990044Y847927D3*
X1122222Y1072159D3*
X990044Y847927D3*
X663662Y882224D3*
X894247Y1068376D3*
X730060Y1152759D3*
X571569Y1039275D3*
X940961Y1544386D3*
X801876Y1003163D3*
X1202535Y1299792D3*
X1184077Y1557368D3*
X1060445Y973170D3*
X810545Y913193D3*
X1136666Y1015707D3*
X768810Y1036218D3*
X915378Y1137951D3*
X1177705Y828397D3*
X1231464Y729365D3*
X782224Y526405D3*
X507035Y820890D3*
X832856Y1226338D3*
X704691Y1112682D3*
X996968Y1684810D3*
X518161Y1373100D3*
X1414494Y1607550D3*
X1142301Y1787907D3*
X1404848Y1393050D3*
X1164016Y1360335D3*
X977624Y564742D3*
X1279798Y1157810D3*
X1057829Y855380D3*
X1058417Y1908039D2*
D16*
X1426109D1*
X1064696Y1883170D2*
X1419794D1*
X1059457Y1858301D2*
X1425069D1*
X937989Y1833432D2*
X974615D1*
X1036850D2*
X1130388D1*
X1154228D2*
X1447676D1*
X1509911D2*
X1531789D1*
X917714Y1808564D2*
X1054637D1*
X1407247D2*
X1531968D1*
X892847Y1783695D2*
X1045701D1*
X1419124D2*
X1532148D1*
X586898Y1758826D2*
X782204D1*
X955321D2*
X1045701D1*
X1415894D2*
X1532327D1*
X593430Y1733957D2*
X781809D1*
X955752D2*
X1045701D1*
X1397773D2*
X1532506D1*
X592460Y1709088D2*
X781809D1*
X955752D2*
X1045701D1*
X1423574D2*
X1461671D1*
X583669Y1684220D2*
X754430D1*
X955752D2*
X1045701D1*
X563430Y1659351D2*
X606264D1*
X949293D2*
X1049361D1*
X1324283D2*
X1379460D1*
X440455Y1634482D2*
X579889D1*
X836688D2*
X1374113D1*
X440527Y1609613D2*
X555022D1*
X797323D2*
X1365537D1*
X440599Y1584745D2*
X530117D1*
X797323D2*
X840480D1*
X966553D2*
X1079432D1*
X1224166D2*
X1312644D1*
X440670Y1559876D2*
X505250D1*
X797323D2*
X833697D1*
X987294D2*
X1076167D1*
X1232993D2*
X1304462D1*
X616897Y1535007D2*
X632172D1*
X797323D2*
X833697D1*
X988981D2*
X1076167D1*
X1227323D2*
X1304462D1*
X592029Y1510138D2*
X631132D1*
X974914D2*
X1020654D1*
X1211535D2*
X1247083D1*
X567162Y1485270D2*
X642327D1*
X969065D2*
X1020654D1*
X1211535D2*
X1247083D1*
X542294Y1460401D2*
X647638D1*
X969065D2*
X1020654D1*
X1211535D2*
X1247083D1*
X499233Y1435532D2*
X533598D1*
X1201881D2*
X1247083D1*
X441100Y1410663D2*
X522546D1*
X851759D2*
X951613D1*
X1087411D2*
X1443514D1*
X441172Y1385794D2*
X522546D1*
X853697D2*
X869187D1*
X1205398D2*
X1437557D1*
X441245Y1360926D2*
X522546D1*
X1213006D2*
X1288134D1*
X441317Y1336057D2*
X522546D1*
X1038896D2*
X1053632D1*
X1234106D2*
X1285695D1*
X527690Y1311188D2*
X541600D1*
X1013525D2*
X1028764D1*
X1250109D2*
X1285695D1*
X527690Y1286319D2*
X652159D1*
X973981D2*
X1013944D1*
X527690Y1261451D2*
X550859D1*
X998130D2*
X1026863D1*
X1120567Y1236582D2*
X1139359D1*
X1220649D2*
X1242705D1*
X441675Y1211713D2*
X480203D1*
X751319D2*
X786222D1*
X441747Y1186844D2*
X491111D1*
X764166D2*
X805815D1*
X1234788D2*
X1342859D1*
X441818Y1161976D2*
X491111D1*
X778125D2*
X928073D1*
X1209991D2*
X1317990D1*
X441890Y1137107D2*
X491111D1*
X776331D2*
X949998D1*
X1185124D2*
X1293123D1*
X756595Y1112238D2*
X876329D1*
X912153D2*
X944939D1*
X1156129D2*
X1268255D1*
X780494Y1087369D2*
X849308D1*
X1168653D2*
X1243388D1*
X1374592D2*
X1388611D1*
X783329Y1062501D2*
X845648D1*
X1170196D2*
X1218520D1*
X1349725D2*
X1396506D1*
X835575Y1037632D2*
X856878D1*
X1180171D2*
X1193651D1*
X1326077D2*
X1415129D1*
X1326077Y1012763D2*
X1537781D1*
X1500438Y987894D2*
X1537961D1*
X1517304Y963025D2*
X1538140D1*
X1521645Y938157D2*
X1538319D1*
X1516228Y913288D2*
X1538535D1*
X1501981Y888419D2*
X1538714D1*
X1518237Y863550D2*
X1538894D1*
X1522255Y838682D2*
X1539073D1*
X1207910Y813813D2*
X1258279D1*
X1516478D2*
X1539252D1*
X1232777Y788944D2*
X1260863D1*
X1496957D2*
X1539432D1*
X519436Y764075D2*
X555237D1*
X835109D2*
X856413D1*
X1264894D2*
X1282609D1*
X1417258D2*
X1539611D1*
X525501Y739207D2*
X561229D1*
X804356D2*
X858134D1*
X1421708D2*
X1539791D1*
X520010Y714338D2*
X561229D1*
X808376D2*
X849092D1*
X1416434D2*
X1539970D1*
X496793Y689469D2*
X561229D1*
X677506D2*
X713056D1*
X798938D2*
X849092D1*
X1397846D2*
X1540150D1*
X443289Y664600D2*
X566145D1*
X669288D2*
X849092D1*
X1320335D2*
X1540329D1*
X443361Y639731D2*
X561229D1*
X674204D2*
X853506D1*
X1377427D2*
X1540508D1*
X443434Y614863D2*
X561229D1*
X674204D2*
X849092D1*
X1400070D2*
X1540688D1*
X443504Y589994D2*
X561229D1*
X674204D2*
X849092D1*
X1516693D2*
X1540903D1*
X674204Y565125D2*
X852214D1*
X1516693D2*
X1541083D1*
X674204Y540256D2*
X849092D1*
X1516693D2*
X1541262D1*
X674204Y515388D2*
X849092D1*
X1516693D2*
X1541441D1*
X674169Y490519D2*
X736272D1*
X775721D2*
X849128D1*
X1509193D2*
X1541621D1*
X672410Y465650D2*
X708570D1*
X803423D2*
X850886D1*
X1085258D2*
X1160818D1*
X1513966D2*
X1541800D1*
X560237Y440781D2*
X703438D1*
X808519D2*
X1160890D1*
X1513931D2*
X1541980D1*
X498707Y1436875D2*
X492287Y1433004D1*
X484098Y1429612D1*
X475478Y1427543D1*
X466641Y1426847D1*
X457804Y1427543D1*
X449184Y1429612D1*
X440995Y1433004D1*
X438531Y1434384D1*
X438851Y1326624D1*
X525178Y1326640D1*
Y1258065D1*
X546081Y1237179D1*
X546638Y1243713D1*
X548342Y1250806D1*
X551133Y1257546D1*
X554945Y1263766D1*
X559683Y1269313D1*
X565230Y1274050D1*
X571449Y1277863D1*
X578190Y1280654D1*
X585283Y1282357D1*
X592556Y1282930D1*
X599829Y1282357D1*
X606922Y1280654D1*
X613662Y1277863D1*
X619881Y1274050D1*
X625428Y1269313D1*
X630166Y1263766D1*
X630823Y1262781D1*
X635839Y1268321D1*
X651287Y1283653D1*
X655410Y1287431D1*
X658335Y1290817D1*
X665138Y1297621D1*
X657655Y1305224D1*
X654752Y1309220D1*
X649150Y1310121D1*
X549460Y1310203D1*
X545355Y1310854D1*
X541402Y1312137D1*
X537697Y1314024D1*
X534335Y1316468D1*
X531396Y1319407D1*
X528952Y1322770D1*
X527065Y1326474D1*
X525781Y1330427D1*
X525130Y1334532D1*
X525049Y1414012D1*
X525375Y1418157D1*
X526346Y1422199D1*
X527936Y1426039D1*
X530108Y1429583D1*
X532808Y1432743D1*
X535968Y1435443D1*
X539512Y1437615D1*
X543352Y1439205D1*
X547394Y1440176D1*
X551539Y1440502D1*
X650112D1*
X650129Y1479436D1*
X646249Y1483549D1*
X641039Y1490720D1*
X637015Y1498617D1*
X634275Y1507048D1*
X632889Y1515804D1*
Y1524667D1*
X634275Y1533423D1*
X637015Y1541854D1*
X641039Y1549751D1*
X646249Y1556922D1*
X652518Y1563191D1*
X659688Y1568401D1*
X662939Y1570221D1*
X657167Y1573755D1*
X647258Y1567875D1*
X527166Y1447986D1*
X521264Y1443697D1*
X514764Y1440386D1*
X507826Y1438132D1*
X500607Y1436990D1*
X438259Y1532137D2*
X445023Y1535525D1*
X453453Y1538266D1*
X462209Y1539651D1*
X471073D1*
X479829Y1538266D1*
X484731Y1536827D1*
X603679Y1655586D1*
X609581Y1659875D1*
X616081Y1663186D1*
X623019Y1665440D1*
X630225Y1666582D1*
X657088Y1666725D1*
X663558Y1670567D1*
X671747Y1673960D1*
X680367Y1676029D1*
X689204Y1676725D1*
X698041Y1676029D1*
X706661Y1673960D1*
X714850Y1670567D1*
X722407Y1665936D1*
X729148Y1660179D1*
X733221Y1655575D1*
X735420Y1661145D1*
X737995Y1665348D1*
X741204Y1669103D1*
X754809Y1682571D1*
X758797Y1685469D1*
X763188Y1687707D1*
X767876Y1689230D1*
X772745Y1690001D1*
X775218Y1690098D1*
X784292Y1695070D1*
X784373Y1756178D1*
X785024Y1760283D1*
X786308Y1764235D1*
X788200Y1767947D1*
X786054Y1769708D1*
X778848Y1770850D1*
X771910Y1773104D1*
X765410Y1776415D1*
X760775Y1779705D1*
X571497Y1779704D1*
X575091Y1775111D1*
X578822Y1769525D1*
X582104Y1763665D1*
X584917Y1757565D1*
X587242Y1751263D1*
X589065Y1744798D1*
X590375Y1738210D1*
X591165Y1731540D1*
X591428Y1724829D1*
X591165Y1718117D1*
X590375Y1711447D1*
X589065Y1704859D1*
X587242Y1698394D1*
X584917Y1692092D1*
X582104Y1685993D1*
X578822Y1680132D1*
X575091Y1674546D1*
X570932Y1669272D1*
X566373Y1664339D1*
X561440Y1659780D1*
X556166Y1655621D1*
X550581Y1651890D1*
X544720Y1648608D1*
X538620Y1645796D1*
X532318Y1643470D1*
X525854Y1641648D1*
X519266Y1640338D1*
X512595Y1639548D1*
X505884Y1639284D1*
X499172Y1639548D1*
X492502Y1640338D1*
X485914Y1641648D1*
X479449Y1643470D1*
X473148Y1645796D1*
X467048Y1648608D1*
X461187Y1651890D1*
X455602Y1655621D1*
X450327Y1659780D1*
X445394Y1664339D1*
X437830Y1673083D1*
X438250Y1532167D1*
X522819Y734210D2*
X521434Y725455D1*
X518693Y717024D1*
X514670Y709127D1*
X509460Y701956D1*
X503191Y695687D1*
X496020Y690477D1*
X488123Y686453D1*
X479692Y683713D1*
X470936Y682327D1*
X462073D1*
X453317Y683713D1*
X444886Y686453D1*
X440722Y688386D1*
X441081Y565165D1*
X449783Y571302D1*
X455644Y574585D1*
X461743Y577397D1*
X468045Y579722D1*
X474510Y581545D1*
X481098Y582855D1*
X487768Y583645D1*
X494480Y583909D1*
X501191Y583645D1*
X507861Y582855D1*
X514449Y581545D1*
X520914Y579722D1*
X527216Y577397D1*
X533315Y574585D1*
X539176Y571302D1*
X544762Y567571D1*
X550036Y563413D1*
X554969Y558854D1*
X559528Y553920D1*
X563993Y548188D1*
X563722Y554760D1*
X563804Y567800D1*
X564048Y573466D1*
X563722Y580351D1*
X563804Y593390D1*
X564048Y599057D1*
X563722Y605941D1*
X563804Y618981D1*
X564048Y624648D1*
X563722Y631532D1*
X563804Y644571D1*
X564455Y648676D1*
X565738Y652629D1*
X567625Y656334D1*
X570069Y659696D1*
X571481Y661242D1*
X568781Y664402D1*
X566609Y667947D1*
X565019Y671787D1*
X564048Y675829D1*
X563722Y682713D1*
X563804Y695752D1*
X564048Y701419D1*
X563722Y708304D1*
X563804Y721343D1*
X564048Y727010D1*
X563722Y733894D1*
X563804Y746934D1*
X564048Y752600D1*
X563722Y759485D1*
Y760544D1*
X558161Y763773D1*
X554413Y766974D1*
X536474Y784914D1*
X531326Y781251D1*
X524826Y777940D1*
X517888Y775686D1*
X510127Y774523D1*
X514670Y768158D1*
X518693Y760260D1*
X521434Y751830D1*
X522819Y743074D1*
Y734210D1*
X962312Y1127096D2*
X956070Y1133800D1*
X950413Y1138997D1*
X935086Y1154438D1*
X932642Y1157800D1*
X930755Y1161504D1*
X929472Y1165457D1*
X928821Y1169562D1*
Y1173720D1*
X929067Y1175793D1*
X922267Y1169968D1*
X918064Y1167393D1*
X913510Y1165506D1*
X908717Y1164356D1*
X902460Y1163969D1*
X894620Y1164066D1*
X889751Y1164836D1*
X885064Y1166360D1*
X880672Y1168598D1*
X876684Y1171495D1*
X859675Y1188368D1*
X853962Y1184915D1*
X847222Y1182124D1*
X840129Y1180420D1*
X832856Y1179848D1*
X825583Y1180420D1*
X818490Y1182124D1*
X811750Y1184915D1*
X805531Y1188728D1*
X799983Y1193465D1*
X795246Y1199012D1*
X791434Y1205231D1*
X788642Y1211972D1*
X786939Y1219065D1*
X786367Y1226338D1*
X786939Y1233611D1*
X788642Y1240704D1*
X791434Y1247444D1*
X795246Y1253663D1*
X799983Y1259210D1*
X805531Y1263948D1*
X811750Y1267760D1*
X818943Y1270680D1*
X813264Y1276144D1*
X806544Y1269913D1*
X801361Y1264266D1*
X785914Y1248934D1*
X781789Y1245155D1*
X779090Y1241994D1*
X763642Y1226662D1*
X759518Y1222885D1*
X756818Y1219724D1*
X741371Y1204392D1*
X737247Y1200612D1*
X735955Y1198973D1*
X744426Y1196973D1*
X751166Y1194182D1*
X757385Y1190369D1*
X762932Y1185632D1*
X767670Y1180085D1*
X771482Y1173865D1*
X774273Y1167125D1*
X775977Y1160032D1*
X776549Y1152759D1*
X775977Y1145486D1*
X774273Y1138393D1*
X771482Y1131653D1*
X767670Y1125434D1*
X762932Y1119886D1*
X757385Y1115149D1*
X753343Y1112556D1*
X759228Y1109512D1*
X765129Y1105224D1*
X770287Y1100066D1*
X774575Y1094165D1*
X777886Y1087665D1*
X780141Y1080726D1*
X781283Y1073520D1*
Y1066226D1*
X780141Y1059020D1*
X777886Y1052082D1*
X774575Y1045582D1*
X770287Y1039680D1*
X765129Y1034523D1*
X759523Y1030432D1*
X762015Y1028818D1*
X764266Y1030489D1*
X769003Y1036036D1*
X774550Y1040773D1*
X780770Y1044586D1*
X787510Y1047377D1*
X794603Y1049081D1*
X801876Y1049653D1*
X809149Y1049081D1*
X816242Y1047377D1*
X822982Y1044586D1*
X829201Y1040773D1*
X834749Y1036036D1*
X839486Y1030489D1*
X843298Y1024270D1*
X846090Y1017529D1*
X847434Y1012239D1*
X862861Y1027536D1*
X864502Y1028829D1*
X864054Y1033025D1*
X858897Y1038183D1*
X854608Y1044085D1*
X851297Y1050585D1*
X849043Y1057523D1*
X847901Y1064729D1*
Y1072023D1*
X849043Y1079229D1*
X851297Y1086167D1*
X854608Y1092667D1*
X858897Y1098569D1*
X864054Y1103726D1*
X869956Y1108015D1*
X876456Y1111326D1*
X883394Y1113581D1*
X890600Y1114722D1*
X897894D1*
X905100Y1113581D1*
X912039Y1111326D1*
X918539Y1108015D1*
X924440Y1103726D1*
X929598Y1098569D1*
X931691Y1095914D1*
X936724Y1101512D1*
X951945Y1116620D1*
X956070Y1120399D1*
X958995Y1123784D1*
X998403Y1245129D2*
X1002556Y1245457D1*
X1006700Y1245132D1*
X1010742Y1244161D1*
X1012700Y1243438D1*
X1018144Y1242860D1*
X1043649Y1242763D1*
X1048518Y1241993D1*
X1050899Y1241319D1*
X1050369Y1242288D1*
X1046826Y1244460D1*
X1043659Y1247166D1*
X1022766Y1268174D1*
X1020322Y1271536D1*
X1018435Y1275241D1*
X1017151Y1279193D1*
X1016501Y1283298D1*
Y1287456D1*
X1017151Y1291561D1*
X1018435Y1295514D1*
X1020322Y1299218D1*
X1022766Y1302581D1*
X1063431Y1343361D1*
X1053566Y1353180D1*
X1012785Y1312561D1*
X1009423Y1310117D1*
X1005720Y1308230D1*
X1001766Y1306947D1*
X997661Y1306296D1*
X991756Y1306119D1*
X987203Y1304231D1*
X982410Y1303082D1*
X977487Y1302695D1*
X952485D1*
X953556Y1298276D1*
X953881Y1294132D1*
X953553Y1289980D1*
X953869Y1289674D1*
X958014Y1289999D1*
X962158Y1289674D1*
X966200Y1288703D1*
X970040Y1287112D1*
X973585Y1284940D1*
X976745Y1282241D1*
X992077Y1266793D1*
X994520Y1263431D1*
X996407Y1259728D1*
X997691Y1255773D1*
X998342Y1251669D1*
Y1247511D1*
X998095Y1245438D1*
X813250Y1334376D2*
X851726Y1372737D1*
X855088Y1375180D1*
X858793Y1377067D1*
X862754Y1378354D1*
X870435Y1384602D1*
X874183Y1387802D1*
X878386Y1390377D1*
X882940Y1392264D1*
X887733Y1393414D1*
X892655Y1393801D1*
X937250D1*
X980596Y1436993D1*
X984585Y1439890D1*
X988976Y1442128D1*
X993663Y1443651D1*
X998532Y1444422D1*
X1023137Y1444519D1*
X1023153Y1527401D1*
X1078666D1*
X1078734Y1574050D1*
X1079385Y1578155D1*
X1080669Y1582108D1*
X1082556Y1585813D1*
X1084999Y1589175D1*
X1087939Y1592115D1*
X1091301Y1594558D1*
X1095006Y1596445D1*
X1098959Y1597729D1*
X1103064Y1598380D1*
X1162306Y1598461D1*
X1169710Y1601582D1*
X1176804Y1603285D1*
X1184077Y1603857D1*
X1191350Y1603285D1*
X1198443Y1601582D1*
X1205183Y1598791D1*
X1211402Y1594978D1*
X1216949Y1590241D1*
X1221687Y1584693D1*
X1225499Y1578474D1*
X1228291Y1571734D1*
X1229994Y1564641D1*
X1230566Y1557368D1*
X1229994Y1550095D1*
X1228291Y1543002D1*
X1225499Y1536262D1*
X1221687Y1530043D1*
X1216949Y1524495D1*
X1211402Y1519758D1*
X1209043Y1518180D1*
X1208952Y1453909D1*
X1208301Y1449804D1*
X1207018Y1445851D1*
X1205130Y1442146D1*
X1202687Y1438784D1*
X1199747Y1435844D1*
X1196385Y1433401D1*
X1192680Y1431514D1*
X1188728Y1430230D1*
X1184623Y1429579D1*
X1105142Y1429498D1*
X1100998Y1429823D1*
X1096949Y1430797D1*
X1078756Y1431115D1*
X1064511D1*
X1120077Y1375512D1*
X1122594Y1381441D1*
X1126406Y1387661D1*
X1131144Y1393208D1*
X1136691Y1397945D1*
X1142910Y1401758D1*
X1149650Y1404549D1*
X1156743Y1406252D1*
X1164016Y1406825D1*
X1171289Y1406252D1*
X1178382Y1404549D1*
X1185123Y1401758D1*
X1191342Y1397945D1*
X1196889Y1393208D1*
X1201627Y1387661D1*
X1205439Y1381441D1*
X1208230Y1374701D1*
X1209934Y1367608D1*
X1210506Y1360335D1*
X1209934Y1353062D1*
X1208216Y1345928D1*
X1213388Y1344997D1*
X1220326Y1342742D1*
X1226826Y1339431D1*
X1232728Y1335142D1*
X1237885Y1329985D1*
X1242174Y1324083D1*
X1245485Y1317583D1*
X1247739Y1310645D1*
X1248585Y1305945D1*
X1288220Y1305959D1*
X1288281Y1351886D1*
X1288932Y1355991D1*
X1290216Y1359945D1*
X1292103Y1363649D1*
X1294546Y1367011D1*
X1297486Y1369951D1*
X1300848Y1372394D1*
X1304552Y1374281D1*
X1308506Y1375565D1*
X1312611Y1376216D1*
X1392091Y1376297D1*
X1396235Y1375972D1*
X1400277Y1375001D1*
X1404117Y1373410D1*
X1407662Y1371238D1*
X1410822Y1368539D1*
X1413522Y1365378D1*
X1415697Y1361826D1*
X1426855Y1372594D1*
X1446012Y1391751D1*
X1446024Y1573352D1*
X1441819Y1569940D1*
X1437304Y1567082D1*
X1437355Y1449633D1*
X1437029Y1445489D1*
X1436058Y1441447D1*
X1434468Y1437607D1*
X1432296Y1434064D1*
X1429596Y1430902D1*
X1426435Y1428203D1*
X1422892Y1426031D1*
X1419052Y1424440D1*
X1415010Y1423469D1*
X1410865Y1423144D1*
X1331385Y1423225D1*
X1327280Y1423876D1*
X1323319Y1425163D1*
X1314369Y1425675D1*
X1249579D1*
Y1521961D1*
X1306959D1*
X1307056Y1567696D1*
X1307707Y1571801D1*
X1308990Y1575754D1*
X1310877Y1579459D1*
X1313321Y1582821D1*
X1316260Y1585760D1*
X1319623Y1588204D1*
X1323327Y1590091D1*
X1327280Y1591375D1*
X1331385Y1592025D1*
X1354599Y1592107D1*
X1368045Y1605523D1*
X1368148Y1611197D1*
X1369289Y1618403D1*
X1371544Y1625342D1*
X1374855Y1631842D1*
X1379144Y1637743D1*
X1384301Y1642901D1*
X1390203Y1647190D1*
X1392704Y1648590D1*
X1365020Y1676284D1*
X1327116Y1676279D1*
X1326800Y1671144D1*
X1325829Y1667102D1*
X1324238Y1663262D1*
X1322066Y1659718D1*
X1319367Y1656557D1*
X1316205Y1653857D1*
X1312662Y1651686D1*
X1308822Y1650095D1*
X1304780Y1649124D1*
X1300636Y1648798D1*
X1260525Y1648880D1*
X1256420Y1649531D1*
X1252468Y1650814D1*
X1248763Y1652701D1*
X1245401Y1655145D1*
X1242461Y1658085D1*
X1240018Y1661447D1*
X1238130Y1665151D1*
X1237187Y1667246D1*
X1236216Y1663204D1*
X1234625Y1659364D1*
X1232453Y1655819D1*
X1229754Y1652659D1*
X1226594Y1649960D1*
X1223049Y1647788D1*
X1219209Y1646197D1*
X1215167Y1645226D1*
X1211015Y1644901D1*
X1170913Y1644982D1*
X1166808Y1645633D1*
X1162854Y1646917D1*
X1159150Y1648804D1*
X1155788Y1651247D1*
X1152848Y1654187D1*
X1150405Y1657549D1*
X1148518Y1661252D1*
X1147234Y1665207D1*
X1146583Y1669312D1*
X1146502Y1739319D1*
X1142301Y1741418D1*
X1140321Y1741495D1*
X1139214Y1733624D1*
X1139133Y1670679D1*
X1138482Y1666574D1*
X1137199Y1662620D1*
X1135312Y1658917D1*
X1132868Y1655554D1*
X1129928Y1652615D1*
X1126566Y1650171D1*
X1122863Y1648284D1*
X1118909Y1647001D1*
X1114804Y1646350D1*
X1074693Y1646268D1*
X1070549Y1646594D1*
X1066507Y1647565D1*
X1062667Y1649155D1*
X1059123Y1651327D1*
X1055962Y1654027D1*
X1053263Y1657187D1*
X1051091Y1660731D1*
X1049501Y1664571D1*
X1048529Y1668613D1*
X1048204Y1672766D1*
X1048285Y1790821D1*
X1048936Y1794926D1*
X1050220Y1798878D1*
X1052107Y1802583D1*
X1054550Y1805945D1*
X1057490Y1808885D1*
X1060852Y1811329D1*
X1064557Y1813216D1*
X1068510Y1814499D1*
X1072615Y1815150D1*
X1104691Y1815233D1*
X1109428Y1820780D1*
X1114976Y1825518D1*
X1121195Y1829330D1*
X1127935Y1832121D1*
X1135028Y1833825D1*
X1142301Y1834397D1*
X1149574Y1833825D1*
X1156667Y1832121D1*
X1163407Y1829330D1*
X1169627Y1825518D1*
X1175174Y1820780D1*
X1179911Y1815233D1*
X1180823Y1813869D1*
X1213102Y1813783D1*
X1217207Y1813132D1*
X1221161Y1811848D1*
X1224864Y1809961D1*
X1228226Y1807518D1*
X1231166Y1804578D1*
X1233609Y1801216D1*
X1235497Y1797512D1*
X1236440Y1795417D1*
X1237411Y1799459D1*
X1239002Y1803298D1*
X1241174Y1806842D1*
X1243873Y1810003D1*
X1247035Y1812703D1*
X1250578Y1814875D1*
X1254418Y1816465D1*
X1258460Y1817436D1*
X1262604Y1817762D1*
X1302714Y1817680D1*
X1306819Y1817029D1*
X1310772Y1815746D1*
X1314477Y1813859D1*
X1317839Y1811415D1*
X1320779Y1808476D1*
X1323222Y1805113D1*
X1325109Y1801409D1*
X1326393Y1797456D1*
X1327044Y1793343D1*
X1330972Y1801276D1*
X1335260Y1807178D1*
X1340418Y1812335D1*
X1346319Y1816624D1*
X1352819Y1819935D1*
X1359758Y1822190D1*
X1366964Y1823331D1*
X1374258D1*
X1381464Y1822190D1*
X1388402Y1819935D1*
X1394902Y1816624D1*
X1400804Y1812335D1*
X1405961Y1807178D1*
X1410250Y1801276D1*
X1413561Y1794776D1*
X1415815Y1787838D1*
X1416957Y1780632D1*
Y1773338D1*
X1415815Y1766132D1*
X1413561Y1759193D1*
X1410250Y1752693D1*
X1405961Y1746792D1*
X1400804Y1741634D1*
X1394902Y1737346D1*
X1392296Y1735676D1*
X1396499Y1733102D1*
X1400247Y1729901D1*
X1446707Y1683440D1*
X1450113Y1691688D1*
X1454545Y1698919D1*
X1460053Y1705368D1*
X1466502Y1710876D1*
X1473733Y1715308D1*
X1481569Y1718553D1*
X1489815Y1720533D1*
X1498271Y1721199D1*
X1506726Y1720533D1*
X1514973Y1718553D1*
X1522809Y1715308D1*
X1530040Y1710876D1*
X1535210Y1706550D1*
X1534007Y1870218D1*
X1532516Y1864678D1*
X1529124Y1856489D1*
X1524493Y1848931D1*
X1518735Y1842191D1*
X1511995Y1836434D1*
X1504438Y1831802D1*
X1496249Y1828410D1*
X1487629Y1826340D1*
X1478792Y1825645D1*
X1469955Y1826340D1*
X1461335Y1828410D1*
X1453146Y1831802D1*
X1445588Y1836434D1*
X1438848Y1842191D1*
X1433091Y1848931D1*
X1428460Y1856489D1*
X1425067Y1864678D1*
X1422998Y1873297D1*
X1422302Y1882134D1*
X1422998Y1890972D1*
X1425067Y1899591D1*
X1428460Y1907780D1*
X1433091Y1915338D1*
X1438848Y1922078D1*
X1445603Y1927844D1*
X1035920Y1929873D1*
X1042418Y1925090D1*
X1048687Y1918821D1*
X1053897Y1911650D1*
X1057920Y1903752D1*
X1060661Y1895322D1*
X1062046Y1886566D1*
Y1877703D1*
X1060661Y1868947D1*
X1057920Y1860516D1*
X1053897Y1852619D1*
X1048687Y1845448D1*
X1042418Y1839179D1*
X1035247Y1833969D1*
X1027350Y1829945D1*
X1018919Y1827205D1*
X1010163Y1825819D1*
X1001300D1*
X992544Y1827205D1*
X984113Y1829945D1*
X976216Y1833969D1*
X969045Y1839179D1*
X962776Y1845448D1*
X957566Y1852619D1*
X955746Y1855869D1*
X951432Y1848931D1*
X945675Y1842191D1*
X938935Y1836434D1*
X935780Y1834325D1*
X933718Y1829237D1*
X931144Y1825033D1*
X927943Y1821285D1*
X887268Y1780611D1*
X928844Y1780507D1*
X932949Y1779856D1*
X936902Y1778573D1*
X940607Y1776686D1*
X943969Y1774242D1*
X946909Y1771302D1*
X949352Y1767940D1*
X951239Y1764235D1*
X952523Y1760283D1*
X953174Y1756178D1*
X953255Y1676697D1*
X952930Y1672553D1*
X951959Y1668511D1*
X950368Y1664671D1*
X948196Y1661128D1*
X945497Y1657966D1*
X942335Y1655267D1*
X938792Y1653095D1*
X934952Y1651504D1*
X930910Y1650533D1*
X926766Y1650208D1*
X850081D1*
X834554Y1634802D1*
X830566Y1631905D1*
X826175Y1629667D1*
X821487Y1628144D1*
X816619Y1627373D1*
X794813Y1627276D1*
X794818Y1522116D1*
X836159Y1522107D1*
X836262Y1569091D1*
X836913Y1573196D1*
X838196Y1577149D1*
X840083Y1580854D1*
X842527Y1584216D1*
X845466Y1587155D1*
X848829Y1589599D1*
X852533Y1591486D1*
X856486Y1592770D1*
X860591Y1593420D1*
X940071Y1593502D1*
X944216Y1593176D1*
X948258Y1592205D1*
X952098Y1590615D1*
X962067Y1585809D1*
X968287Y1581997D1*
X973834Y1577259D1*
X978571Y1571712D1*
X982384Y1565493D1*
X985175Y1558752D1*
X986878Y1551659D1*
X987451Y1544386D1*
X986878Y1537113D1*
X985175Y1530020D1*
X982384Y1523280D1*
X978571Y1517061D1*
X973834Y1511514D1*
X968287Y1506776D1*
X966567Y1505627D1*
X966480Y1448949D1*
X965829Y1444844D1*
X964545Y1440892D1*
X962658Y1437187D1*
X960214Y1433825D1*
X957275Y1430885D1*
X953913Y1428441D1*
X950208Y1426554D1*
X946255Y1425271D1*
X942150Y1424620D1*
X862670Y1424539D1*
X858525Y1424864D1*
X851178Y1425821D1*
X840161D1*
X845217Y1419010D1*
X848528Y1412510D1*
X850783Y1405571D1*
X851924Y1398365D1*
Y1391071D1*
X850783Y1383865D1*
X848528Y1376927D1*
X845217Y1370427D1*
X840928Y1364525D1*
X835771Y1359368D1*
X829869Y1355079D1*
X823369Y1351768D1*
X816431Y1349514D1*
X809225Y1348372D1*
X801931D1*
X798886Y1348733D1*
X813275Y1334355D1*
X822804Y1343928D1*
X1125283Y1220016D2*
X1142537Y1237271D1*
X1130612Y1249183D1*
X1113357Y1231888D1*
X1125264Y1220004D1*
X1134124Y1228856D1*
X1512418Y1927503D2*
X1518735Y1922078D1*
X1524493Y1915338D1*
X1529124Y1907780D1*
X1532516Y1899591D1*
X1533826Y1894794D1*
X1533588Y1927417D1*
X1512456Y1927508D1*
X805949Y439528D2*
X805752Y437864D1*
X1163993Y435520D1*
X1163321Y443083D1*
X1163292Y467754D1*
X1155998D1*
X1148792Y468896D1*
X1141854Y471150D1*
X1135354Y474461D1*
X1129452Y478750D1*
X1124294Y483907D1*
X1120006Y489809D1*
X1116695Y496309D1*
X1115810Y498704D1*
X1067288Y450321D1*
X1063300Y447423D1*
X1058909Y445186D1*
X1054221Y443662D1*
X1049352Y442892D1*
X980939Y442794D1*
X976025Y443180D1*
X971233Y444331D1*
X966679Y446217D1*
X962468Y448797D1*
X955968Y449389D1*
X938851D1*
X933086Y448759D1*
X876007Y448840D1*
X871902Y449491D1*
X867948Y450775D1*
X864245Y452662D1*
X860882Y455106D1*
X857943Y458045D1*
X855499Y461407D1*
X853612Y465111D1*
X852329Y469065D1*
X851678Y473170D1*
Y491028D1*
X851922Y496695D1*
X851596Y503579D1*
X851678Y516619D1*
X851922Y522285D1*
X851596Y529170D1*
X851678Y542209D1*
X852329Y546314D1*
X853612Y550267D1*
X855499Y553972D1*
X857943Y557334D1*
X859355Y558880D1*
X856655Y562041D1*
X854483Y565585D1*
X852893Y569424D1*
X851922Y573466D1*
X851596Y580351D1*
X851678Y593390D1*
X851922Y599057D1*
X851596Y605941D1*
X851678Y618981D1*
X852329Y623086D1*
X853612Y627039D1*
X855499Y630743D1*
X857943Y634106D1*
X859355Y635651D1*
X856655Y638812D1*
X854483Y642356D1*
X852893Y646196D1*
X851922Y650238D1*
X851596Y657123D1*
X851678Y670162D1*
X851922Y675829D1*
X851596Y682713D1*
X851678Y695752D1*
X851922Y701419D1*
X851596Y708304D1*
X851678Y721343D1*
X852329Y725448D1*
X853612Y729401D1*
X855499Y733106D1*
X857943Y736468D1*
X860882Y739407D1*
X864245Y741851D1*
X867949Y743738D1*
X871902Y745022D1*
X876007Y745672D1*
X933086Y745754D1*
X937230Y745428D1*
X941272Y744457D1*
X945112Y742867D1*
X948655Y740695D1*
X951817Y737995D1*
X954516Y734834D1*
X955676Y733098D1*
X956221Y739848D1*
Y769453D1*
X953229Y765132D1*
X950289Y762192D1*
X946927Y759749D1*
X943222Y757861D1*
X939270Y756578D1*
X935165Y755927D1*
X878086Y755846D1*
X873941Y756171D1*
X869899Y757142D1*
X866060Y758733D1*
X862516Y760905D1*
X859355Y763604D1*
X856655Y766766D1*
X854483Y770309D1*
X852893Y774149D1*
X851922Y778200D1*
X849070Y777502D1*
X840397Y768965D1*
X836409Y766067D1*
X832018Y763830D1*
X827330Y762306D1*
X822461Y761536D1*
X782713Y761439D1*
X788537Y757155D1*
X794098Y751595D1*
X798720Y745234D1*
X802289Y738228D1*
X804720Y730749D1*
X805949Y722982D1*
Y715119D1*
X804720Y707352D1*
X802289Y699873D1*
X798720Y692867D1*
X794098Y686506D1*
X788537Y680945D1*
X782176Y676323D1*
X775170Y672754D1*
X767691Y670323D1*
X759924Y669094D1*
X752061D1*
X744294Y670323D1*
X736815Y672754D1*
X729809Y676323D1*
X723448Y680945D1*
X717888Y686506D1*
X713266Y692867D1*
X709696Y699873D1*
X707266Y707352D1*
X706036Y715119D1*
Y722982D1*
X707266Y730749D1*
X709696Y738228D1*
X713266Y745234D1*
X717888Y751595D1*
X723448Y757155D1*
X729312Y761444D1*
X712882Y761439D1*
X705001Y753562D1*
X704906Y729973D1*
X704136Y725104D1*
X702612Y720417D1*
X700375Y716025D1*
X697477Y712037D1*
X675780Y690203D1*
X672024Y686997D1*
X671701Y682713D1*
X671375Y675829D1*
X670405Y671787D1*
X668814Y667947D1*
X666642Y664403D1*
X663943Y661224D1*
X666642Y658062D1*
X668814Y654519D1*
X670405Y650679D1*
X671376Y646637D1*
X671701Y639752D1*
X671620Y626713D1*
X671376Y621046D1*
X671701Y614162D1*
X671620Y601123D1*
X671376Y595456D1*
X671701Y588571D1*
X671620Y575532D1*
X671376Y569865D1*
X671701Y562981D1*
X671620Y549941D1*
X671376Y544275D1*
X671701Y537390D1*
X671620Y524351D1*
X671376Y518684D1*
X671701Y511800D1*
X671620Y498760D1*
X671376Y493094D1*
X671701Y486209D1*
X671620Y473170D1*
X670969Y469065D1*
X669686Y465112D1*
X667798Y461407D1*
X665355Y458045D1*
X662415Y455106D1*
X659053Y452662D1*
X655348Y450775D1*
X651396Y449491D1*
X647291Y448840D1*
X590212Y448759D1*
X586067Y449085D1*
X582025Y450056D1*
X578186Y451646D1*
X574642Y453818D1*
X571481Y456518D1*
X570064Y458052D1*
X563687Y448082D1*
X556482Y439512D1*
X706120Y438516D1*
X706036Y447392D1*
X707266Y455158D1*
X709696Y462637D1*
X713266Y469644D1*
X717888Y476004D1*
X723448Y481565D1*
X729809Y486187D1*
X736815Y489756D1*
X744294Y492187D1*
X752061Y493417D1*
X759924D1*
X767691Y492187D1*
X775170Y489756D1*
X782176Y486187D1*
X788537Y481565D1*
X794098Y476004D1*
X798720Y469644D1*
X802289Y462637D1*
X804720Y455158D1*
X805949Y447392D1*
Y439528D1*
X1518951Y934310D2*
X1517334Y924103D1*
X1514141Y914273D1*
X1509449Y905065D1*
X1503375Y896704D1*
X1497238Y890480D1*
X1504004Y883629D1*
X1510079Y875268D1*
X1514771Y866060D1*
X1517964Y856230D1*
X1519581Y846023D1*
Y835690D1*
X1517964Y825482D1*
X1514771Y815653D1*
X1510079Y806444D1*
X1504004Y798083D1*
X1496697Y790776D1*
X1488336Y784701D1*
X1479128Y780010D1*
X1469298Y776817D1*
X1459091Y775200D1*
X1448758D1*
X1438550Y776817D1*
X1428721Y780010D1*
X1419512Y784701D1*
X1411151Y790776D1*
X1403844Y798083D1*
X1403356Y798703D1*
X1399352Y794325D1*
X1395539Y790801D1*
X1399943Y786794D1*
X1406655Y778936D1*
X1412054Y770125D1*
X1416010Y760577D1*
X1418422Y750528D1*
X1419233Y740225D1*
X1418422Y729922D1*
X1416010Y719873D1*
X1412054Y710325D1*
X1406655Y701514D1*
X1399943Y693655D1*
X1392085Y686943D1*
X1383273Y681544D1*
X1373725Y677588D1*
X1363676Y675176D1*
X1353373Y674365D1*
X1343070Y675176D1*
X1333022Y677588D1*
X1323473Y681544D1*
X1315452Y686417D1*
X1316983Y681722D1*
X1317754Y676854D1*
X1317851Y654043D1*
X1323255Y656184D1*
X1330348Y657888D1*
X1337621Y658460D1*
X1344894Y657888D1*
X1351987Y656184D1*
X1358728Y653393D1*
X1364947Y649581D1*
X1370494Y644843D1*
X1375231Y639296D1*
X1379044Y633077D1*
X1381835Y626336D1*
X1383539Y619243D1*
X1383966Y616511D1*
X1397575D1*
Y523032D1*
X1406066Y523014D1*
X1406095Y608974D1*
X1514192D1*
Y500877D1*
X1499372D1*
X1503031Y496487D1*
X1506655Y490573D1*
X1509309Y484163D1*
X1510928Y477418D1*
X1511473Y470503D1*
X1511336Y439476D1*
X1510376Y433250D1*
X1544571Y433031D1*
X1540060Y1044187D1*
X1531197Y1035440D1*
X1525923Y1031281D1*
X1520338Y1027550D1*
X1514477Y1024268D1*
X1508377Y1021456D1*
X1502075Y1019130D1*
X1495611Y1017308D1*
X1489023Y1015998D1*
X1482352Y1015208D1*
X1475641Y1014944D1*
X1468930Y1015208D1*
X1462259Y1015998D1*
X1455671Y1017308D1*
X1449207Y1019130D1*
X1442905Y1021456D1*
X1436805Y1024268D1*
X1430944Y1027550D1*
X1425359Y1031281D1*
X1420085Y1035440D1*
X1415151Y1039999D1*
X1410592Y1044932D1*
X1406434Y1050207D1*
X1402703Y1055792D1*
X1399420Y1061653D1*
X1396608Y1067752D1*
X1394283Y1074054D1*
X1392460Y1080519D1*
X1391150Y1087107D1*
X1390360Y1093777D1*
X1390294Y1105549D1*
X1323575Y1038846D1*
X1323630Y998906D1*
X1333179Y1002861D1*
X1343228Y1005273D1*
X1353531Y1006085D1*
X1363834Y1005273D1*
X1373882Y1002861D1*
X1383431Y998906D1*
X1392242Y993507D1*
X1400100Y986794D1*
X1403724Y982855D1*
X1410522Y989557D1*
X1418882Y995632D1*
X1428091Y1000323D1*
X1437920Y1003516D1*
X1448128Y1005133D1*
X1458461D1*
X1468669Y1003516D1*
X1478498Y1000323D1*
X1487707Y995632D1*
X1496067Y989557D1*
X1503375Y982250D1*
X1509449Y973889D1*
X1514141Y964680D1*
X1517334Y954851D1*
X1518951Y944644D1*
Y934310D1*
X1294498Y710747D2*
X1290737Y719873D1*
X1288325Y729922D1*
X1287514Y740225D1*
X1288325Y750528D1*
X1290271Y758924D1*
X1268294Y781019D1*
X1265397Y785007D1*
X1263159Y789398D1*
X1261636Y794086D1*
X1260865Y798955D1*
X1260768Y865724D1*
Y1013388D1*
X1243002Y995637D1*
X1247363Y993041D1*
X1250523Y990342D1*
X1253222Y987182D1*
X1255394Y983637D1*
X1256985Y979797D1*
X1257956Y975755D1*
X1258281Y971611D1*
X1258200Y853548D1*
X1257549Y849443D1*
X1256266Y845489D1*
X1254378Y841785D1*
X1251935Y838423D1*
X1248995Y835483D1*
X1245633Y833040D1*
X1241930Y831153D1*
X1237976Y829869D1*
X1233871Y829218D1*
X1193760Y829137D1*
X1189616Y829462D1*
X1185574Y830434D1*
X1181734Y832024D1*
X1178190Y834196D1*
X1175029Y836896D1*
X1172325Y840064D1*
X1171435Y839564D1*
X1168991Y836201D1*
X1166052Y833262D1*
X1162690Y830818D1*
X1158985Y828931D1*
X1155032Y827648D1*
X1150927Y826997D1*
X1122545Y826915D1*
X1131501Y825331D1*
X1183346Y825234D1*
X1188214Y824464D1*
X1192902Y822940D1*
X1197293Y820703D1*
X1201281Y817805D1*
X1245543Y773680D1*
X1252570Y770788D1*
X1258789Y766976D1*
X1264336Y762238D1*
X1269074Y756691D1*
X1272886Y750472D1*
X1275678Y743731D1*
X1277381Y736638D1*
X1277953Y729365D1*
X1277876Y727385D1*
X1294451Y710800D1*
X480789Y1213661D2*
X439163D1*
X439461Y1118497D1*
X447070Y1122339D1*
X455501Y1125079D1*
X464256Y1126465D1*
X473120D1*
X481876Y1125079D1*
X490306Y1122339D1*
X493594Y1120823D1*
X493599Y1200826D1*
X480749Y1213667D1*
X1303777Y1209672D2*
X1245195D1*
Y1281333D1*
X1242174Y1275501D1*
X1237885Y1269599D1*
X1232728Y1264441D1*
X1226826Y1260153D1*
X1220326Y1256842D1*
X1213388Y1254587D1*
X1206182Y1253445D1*
X1201381Y1253348D1*
X1232793Y1221809D1*
X1235237Y1218447D1*
X1237124Y1214742D1*
X1238409Y1210789D1*
X1239058Y1206684D1*
Y1202527D1*
X1238409Y1198422D1*
X1237124Y1194468D1*
X1235237Y1190764D1*
X1232793Y1187402D1*
X1176657Y1131149D1*
X1173497Y1128449D1*
X1169952Y1126277D1*
X1166112Y1124687D1*
X1162070Y1123717D1*
X1157926Y1123390D1*
X1153773Y1123718D1*
X1153633Y1106405D1*
X1157573Y1102352D1*
X1161861Y1096451D1*
X1165172Y1089951D1*
X1167427Y1083012D1*
X1168569Y1075806D1*
Y1068512D1*
X1167427Y1061306D1*
X1165172Y1054368D1*
X1164511Y1052931D1*
X1169539Y1048579D1*
X1174276Y1043032D1*
X1178088Y1036813D1*
X1180880Y1030073D1*
X1182402Y1023888D1*
X1358835Y1200313D1*
X1358854Y1207308D1*
X1312611Y1207415D1*
X1308506Y1208066D1*
X1304545Y1209354D1*
X883452Y1727583D2*
Y1703182D1*
X900241Y1703187D1*
X900276Y1727617D1*
X883453Y1727609D1*
X883452Y1707674D1*
D17*
X466641Y1583336D3*
D18*
Y1483336D3*
D17*
X466504Y638642D3*
D18*
Y738642D3*
D69*
X1008124Y1166073D3*
X985852Y1188344D3*
X963582Y1210616D3*
X941310Y1232886D3*
X919040Y1255158D3*
X896768Y1277428D3*
X874498Y1299700D3*
X852226Y1321970D3*
D72*
X774277D3*
X752007Y1299700D3*
X729735Y1277428D3*
X707464Y1255158D3*
X685193Y1232886D3*
X662922Y1210616D3*
X640651Y1188344D3*
X618380Y1166073D3*
D69*
Y1088125D3*
X640651Y1065854D3*
X662922Y1043582D3*
X685193Y1021312D3*
X707464Y999040D3*
X729735Y976770D3*
X752007Y954498D3*
X774277Y932228D3*
D72*
X852226D3*
X874498Y954498D3*
X896768Y976770D3*
X919040Y999040D3*
X941310Y1021312D3*
X963582Y1043582D3*
X985852Y1065854D3*
X1008124Y1088125D3*
D75*
X598453Y886751D3*
Y937932D3*
D76*
X1167941Y1194590D3*
X1120616Y1241915D3*
D17*
X1378792Y1882134D3*
D18*
X1478792D3*
D17*
X1105731D3*
D18*
X1005731D3*
X905731D3*
D28*
X1453294Y939477D3*
X1453924Y840856D3*
X1453846Y740855D3*
X1353531Y940225D3*
X1352783Y840894D3*
X1353373Y740225D3*
D17*
X468688Y1270150D3*
D18*
Y1170150D3*
Y1070150D3*
D29*
X832562Y1540893D3*
Y1473964D3*
X1295754Y1540747D3*
Y1473818D3*
X1069327Y1546187D3*
Y1479258D3*
X1291369Y1324745D3*
Y1257815D3*
D17*
X689204Y1720235D3*
D18*
Y1620235D3*
Y1520235D3*
D79*
X507048Y937976D3*
Y886794D3*
D80*
X576066Y1375312D3*
X642995D3*
D81*
X1372165Y1474161D3*
Y1541090D3*
D82*
X901371Y1542485D3*
Y1475556D3*
X1143843Y1547444D3*
Y1480515D3*
X1353390Y1325280D3*
Y1258351D3*
D83*
X1009502Y1366111D3*
X1042909Y1332704D3*
X1076315Y1299297D3*
D17*
X477976Y1881722D3*
D18*
X577976D3*
X677976D3*
D79*
X1212776Y939209D3*
Y888028D3*
X1129833Y936987D3*
Y885806D3*
D80*
X835309Y1715398D3*
X902238D3*
D79*
X1281620Y1758871D3*
Y1707690D3*
D84*
X905586Y814776D3*
Y789186D3*
Y763595D3*
Y738004D3*
Y712414D3*
Y686823D3*
Y661233D3*
Y610052D3*
Y635642D3*
Y584461D3*
Y558871D3*
Y533280D3*
Y507690D3*
Y482099D3*
X617712Y814776D3*
Y789186D3*
Y763595D3*
Y738004D3*
Y712414D3*
Y686823D3*
Y661233D3*
Y635642D3*
Y610052D3*
Y584461D3*
Y558871D3*
Y533280D3*
Y507690D3*
Y482099D3*
D29*
X1076382Y726991D3*
Y793920D3*
X1075863Y592015D3*
Y658944D3*
D31*
X1019662Y788788D3*
Y729733D3*
X1014566Y656444D3*
Y597389D3*
D32*
X979729Y898482D3*
X1030910D3*
D34*
X1467267Y456724D3*
X1207527Y456850D3*
D35*
X1337314Y457154D3*
D36*
X1215582Y554871D3*
X1460144Y554926D3*
D37*
X1388802Y563447D3*
X1363212D3*
X1337621D3*
X1312031D3*
X1286440D3*
D75*
X1093709Y1705159D3*
Y1756340D3*
X1192007Y1703792D3*
Y1754973D3*
M02*
