G04 DipTrace 3.3.1.3*
G04 TopAssy.gbr*
%MOIN*%
G04 #@! TF.FileFunction,Drawing,Top*
G04 #@! TF.Part,Single*
%ADD22C,0.006*%
%ADD25C,0.004*%
%ADD29C,0.005*%
%ADD35C,0.003937*%
%FSLAX26Y26*%
G04*
G70*
G90*
G75*
G01*
G04 TopAssy*
%LPD*%
G36*
X586835Y902344D2*
X610464D1*
Y890548D1*
X586835D1*
Y902344D1*
G37*
G36*
Y934344D2*
X610464D1*
Y922548D1*
X586835D1*
Y934344D1*
G37*
X589634Y902692D2*
D22*
Y921992D1*
X607273D2*
Y902692D1*
G36*
X1140327Y1195471D2*
X1154220Y1181578D1*
X1180680Y1208038D1*
X1166787Y1221931D1*
X1140327Y1195471D1*
G37*
G36*
X1107795Y1228002D2*
X1121702Y1214095D1*
X1148162Y1240555D1*
X1134255Y1254462D1*
X1107795Y1228002D1*
G37*
X1142159Y1196319D2*
D25*
X1122345Y1216133D1*
X1165857Y1220003D2*
X1146029Y1239831D1*
G36*
X1224395Y923616D2*
X1200766D1*
Y935412D1*
X1224395D1*
Y923616D1*
G37*
G36*
Y891616D2*
X1200766D1*
Y903412D1*
X1224395D1*
Y891616D1*
G37*
X1221596Y923269D2*
D22*
Y903969D1*
X1203957D2*
Y923269D1*
G36*
X1141451Y921395D2*
X1117822D1*
Y933190D1*
X1141451D1*
Y921395D1*
G37*
G36*
Y889395D2*
X1117822D1*
Y901190D1*
X1141451D1*
Y889395D1*
G37*
X1138652Y921047D2*
D22*
Y901747D1*
X1121013D2*
Y921047D1*
G36*
X1037491Y1716230D2*
X1061120D1*
Y1704434D1*
X1037491D1*
Y1716230D1*
G37*
G36*
Y1748230D2*
X1061120D1*
Y1736434D1*
X1037491D1*
Y1748230D1*
G37*
X1040290Y1716578D2*
D22*
Y1735877D1*
X1057929D2*
Y1716578D1*
G36*
X1183322Y1743687D2*
X1145906D1*
Y1763346D1*
X1183322D1*
Y1743687D1*
G37*
G36*
Y1697688D2*
X1145906D1*
Y1717347D1*
X1183322D1*
Y1697688D1*
G37*
X1181426Y1744383D2*
D25*
Y1716361D1*
X1147926Y1744383D2*
Y1716361D1*
G36*
X518666Y922383D2*
X495037D1*
Y934178D1*
X518666D1*
Y922383D1*
G37*
G36*
Y890383D2*
X495037D1*
Y902178D1*
X518666D1*
Y890383D1*
G37*
X515867Y922035D2*
D22*
Y902735D1*
X498228D2*
Y922035D1*
G36*
X619755Y1421201D2*
X582339D1*
Y1440861D1*
X619755D1*
Y1421201D1*
G37*
G36*
Y1375202D2*
X582339D1*
Y1394861D1*
X619755D1*
Y1375202D1*
G37*
X617859Y1421897D2*
D25*
Y1393875D1*
X584359Y1421897D2*
Y1393875D1*
G36*
X1329659Y1423500D2*
X1367075D1*
Y1403841D1*
X1329659D1*
Y1423500D1*
G37*
G36*
Y1469500D2*
X1367075D1*
Y1449841D1*
X1329659D1*
Y1469500D1*
G37*
X1331556Y1422805D2*
D25*
Y1450826D1*
X1365055Y1422805D2*
Y1450826D1*
G36*
X920272Y1522335D2*
X882856D1*
Y1541995D1*
X920272D1*
Y1522335D1*
G37*
G36*
Y1476336D2*
X882856D1*
Y1495995D1*
X920272D1*
Y1476336D1*
G37*
X918376Y1523031D2*
D25*
Y1495009D1*
X884876Y1523031D2*
Y1495009D1*
G36*
X1162745Y1511586D2*
X1125329D1*
Y1531245D1*
X1162745D1*
Y1511586D1*
G37*
G36*
Y1465587D2*
X1125329D1*
Y1485246D1*
X1162745D1*
Y1465587D1*
G37*
X1160848Y1512282D2*
D25*
Y1484260D1*
X1127349Y1512282D2*
Y1484260D1*
G36*
X1348109Y1116221D2*
X1310693D1*
Y1135880D1*
X1348109D1*
Y1116221D1*
G37*
G36*
Y1070222D2*
X1310693D1*
Y1089881D1*
X1348109D1*
Y1070222D1*
G37*
X1346213Y1116917D2*
D25*
Y1088895D1*
X1312714Y1116917D2*
Y1088895D1*
G36*
X855458Y1734300D2*
X835799D1*
Y1696884D1*
X855458D1*
Y1734300D1*
G37*
G36*
X901458D2*
X881799D1*
Y1696884D1*
X901458D1*
Y1734300D1*
G37*
X854763Y1732403D2*
D25*
X882784D1*
X854763Y1698904D2*
X882784D1*
X1059375Y746445D2*
Y774467D1*
X1092878Y746445D2*
Y774467D1*
G36*
X1094882Y727451D2*
X1057481D1*
Y747150D1*
X1094882D1*
Y727451D1*
G37*
G36*
Y773453D2*
X1057481D1*
Y793141D1*
X1094882D1*
Y773453D1*
G37*
G36*
X1088193Y752585D2*
X1064571D1*
Y768327D1*
X1088193D1*
Y752585D1*
G37*
X1058855Y611469D2*
D25*
Y639491D1*
X1092359Y611469D2*
Y639491D1*
G36*
X1094363Y592475D2*
X1056961D1*
Y612174D1*
X1094363D1*
Y592475D1*
G37*
G36*
Y638476D2*
X1056961D1*
Y658165D1*
X1094363D1*
Y638476D1*
G37*
G36*
X1087674Y617609D2*
X1064052D1*
Y633350D1*
X1087674D1*
Y617609D1*
G37*
G36*
X878397Y821184D2*
Y808368D1*
X915188D1*
Y821184D1*
X878397D1*
G37*
G36*
X608110D2*
Y808368D1*
X644900D1*
Y821184D1*
X608110D1*
G37*
G36*
Y795593D2*
Y782778D1*
X644900D1*
Y795593D1*
X608110D1*
G37*
G36*
Y770003D2*
Y757187D1*
X644900D1*
Y770003D1*
X608110D1*
G37*
G36*
X878397Y795593D2*
Y782778D1*
X915188D1*
Y795593D1*
X878397D1*
G37*
G36*
Y770003D2*
Y757187D1*
X915188D1*
Y770003D1*
X878397D1*
G37*
G36*
Y744412D2*
Y731597D1*
X915188D1*
Y744412D1*
X878397D1*
G37*
G36*
Y718822D2*
Y706006D1*
X915188D1*
Y718822D1*
X878397D1*
G37*
G36*
Y693231D2*
Y680415D1*
X915188D1*
Y693231D1*
X878397D1*
G37*
G36*
Y667641D2*
Y654825D1*
X915188D1*
Y667641D1*
X878397D1*
G37*
G36*
Y642050D2*
Y629234D1*
X915188D1*
Y642050D1*
X878397D1*
G37*
G36*
Y616460D2*
Y603644D1*
X915188D1*
Y616460D1*
X878397D1*
G37*
G36*
Y590869D2*
Y578053D1*
X915188D1*
Y590869D1*
X878397D1*
G37*
G36*
Y565278D2*
Y552463D1*
X915188D1*
Y565278D1*
X878397D1*
G37*
G36*
Y539688D2*
Y526872D1*
X915188D1*
Y539688D1*
X878397D1*
G37*
G36*
Y514097D2*
Y501282D1*
X915188D1*
Y514097D1*
X878397D1*
G37*
G36*
Y488507D2*
Y475691D1*
X915188D1*
Y488507D1*
X878397D1*
G37*
G36*
X608110Y744412D2*
Y731597D1*
X644900D1*
Y744412D1*
X608110D1*
G37*
G36*
Y718822D2*
Y706006D1*
X644900D1*
Y718822D1*
X608110D1*
G37*
G36*
Y693231D2*
Y680415D1*
X644900D1*
Y693231D1*
X608110D1*
G37*
G36*
Y667641D2*
Y654825D1*
X644900D1*
Y667641D1*
X608110D1*
G37*
G36*
Y642050D2*
Y629234D1*
X644900D1*
Y642050D1*
X608110D1*
G37*
G36*
Y616460D2*
Y603644D1*
X644900D1*
Y616460D1*
X608110D1*
G37*
G36*
Y590869D2*
Y578053D1*
X644900D1*
Y590869D1*
X608110D1*
G37*
G36*
Y565278D2*
Y552463D1*
X644900D1*
Y565278D1*
X608110D1*
G37*
G36*
Y539688D2*
Y526872D1*
X644900D1*
Y539688D1*
X608110D1*
G37*
G36*
Y514097D2*
Y501282D1*
X644900D1*
Y514097D1*
X608110D1*
G37*
G36*
Y488507D2*
Y475691D1*
X644900D1*
Y488507D1*
X608110D1*
G37*
X1169244Y366898D2*
D35*
X1507782D1*
Y392542D1*
X1169244D1*
Y366898D1*
X1016459Y1395344D2*
D29*
X1105548Y1306254D1*
X1069359Y1270064D1*
X980269Y1359154D1*
X1016459Y1395344D1*
M02*
