G04 DipTrace 3.3.1.3*
G04 TopMask.gbr*
%MOIN*%
G04 #@! TF.FileFunction,Soldermask,Top*
G04 #@! TF.Part,Single*
%AMOUTLINE1*
4,1,4,
-0.016703,-0.036195,
-0.036195,-0.016703,
0.016703,0.036195,
0.036195,0.016703,
-0.016703,-0.036195,
0*%
%AMOUTLINE4*
4,1,4,
-0.036195,0.016703,
-0.016703,0.036195,
0.036195,-0.016703,
0.016703,-0.036195,
-0.036195,0.016703,
0*%
%AMOUTLINE6*
4,1,4,
-0.017717,0.01378,
-0.017717,-0.01378,
0.017717,-0.01378,
0.017717,0.01378,
-0.017717,0.01378,
0*%
%AMOUTLINE7*
4,1,4,
-0.029231,0.001392,
0.001392,-0.029231,
0.029231,-0.001392,
-0.001392,0.029231,
-0.029231,0.001392,
0*%
%AMOUTLINE8*
4,1,4,
0.017717,-0.01378,
0.017717,0.01378,
-0.017717,0.01378,
-0.017717,-0.01378,
0.017717,-0.01378,
0*%
%AMOUTLINE11*
4,1,4,
0.019685,-0.021654,
0.019685,0.021654,
-0.019685,0.021654,
-0.019685,-0.021654,
0.019685,-0.021654,
0*%
%AMOUTLINE12*
4,1,4,
-0.019685,0.021654,
-0.019685,-0.021654,
0.019685,-0.021654,
0.019685,0.021654,
-0.019685,0.021654,
0*%
%AMOUTLINE13*
4,1,4,
0.021654,0.019685,
-0.021654,0.019685,
-0.021654,-0.019685,
0.021654,-0.019685,
0.021654,0.019685,
0*%
%AMOUTLINE15*
4,1,4,
-0.03144,-0.01079,
-0.03144,0.01079,
0.03144,0.01079,
0.03144,-0.01079,
-0.03144,-0.01079,
0*%
%AMOUTLINE17*
4,1,4,
0.033407,0.01392,
0.01392,0.033407,
-0.033407,-0.01392,
-0.01392,-0.033407,
0.033407,0.01392,
0*%
%ADD41C,0.047244*%
%ADD42C,0.11811*%
%ADD49R,0.023628X0.06103*%
%ADD51R,0.062998X0.062998*%
%ADD53R,0.177171X0.08662*%
%ADD55O,0.043313X0.070872*%
%ADD57R,0.043313X0.035439*%
%ADD59R,0.039376X0.039376*%
%ADD61R,0.04725X0.051187*%
%ADD63C,0.08662*%
%ADD65C,0.06788*%
%ADD67R,0.06788X0.06788*%
%ADD71OUTLINE1*%
%ADD74OUTLINE4*%
%ADD76OUTLINE6*%
%ADD77OUTLINE7*%
%ADD78OUTLINE8*%
%ADD81OUTLINE11*%
%ADD82OUTLINE12*%
%ADD83OUTLINE13*%
%ADD85OUTLINE15*%
%ADD87OUTLINE17*%
%FSLAX26Y26*%
G04*
G70*
G90*
G75*
G01*
G04 TopMask*
%LPD*%
D67*
X466641Y1583336D3*
D65*
Y1483336D3*
D67*
X477976Y1881722D3*
D65*
X577976D3*
X677976D3*
D67*
X466504Y638642D3*
D65*
Y738642D3*
D71*
X1008124Y1166073D3*
X985852Y1188344D3*
X963582Y1210616D3*
X941310Y1232886D3*
X919040Y1255158D3*
X896768Y1277428D3*
X874498Y1299700D3*
X852226Y1321970D3*
D74*
X774277D3*
X752007Y1299700D3*
X729735Y1277428D3*
X707464Y1255158D3*
X685193Y1232886D3*
X662922Y1210616D3*
X640651Y1188344D3*
X618380Y1166073D3*
D71*
Y1088125D3*
X640651Y1065854D3*
X662922Y1043582D3*
X685193Y1021312D3*
X707464Y999040D3*
X729735Y976770D3*
X752007Y954498D3*
X774277Y932228D3*
D74*
X852226D3*
X874498Y954498D3*
X896768Y976770D3*
X919040Y999040D3*
X941310Y1021312D3*
X963582Y1043582D3*
X985852Y1065854D3*
X1008124Y1088125D3*
D76*
X598453Y886751D3*
Y937932D3*
D77*
X1167941Y1194590D3*
X1120616Y1241915D3*
D78*
X1212776Y939209D3*
Y888028D3*
X1129833Y936987D3*
Y885806D3*
D76*
X1049109Y1700637D3*
Y1751818D3*
D67*
X1289764Y1884823D3*
D65*
X1389764D3*
X1489764D3*
D41*
X755993Y443460D3*
Y719050D3*
D67*
X1091452Y1883432D3*
D65*
X991452D3*
X891452D3*
D67*
X1502691Y1702241D3*
D65*
X1402691D3*
X1302691D3*
D67*
X689204Y1720235D3*
D65*
Y1620235D3*
Y1520235D3*
D63*
X1453294Y939477D3*
X1453924Y840856D3*
X1453846Y740855D3*
X1353531Y940225D3*
X1352783Y840894D3*
X1353373Y740225D3*
D81*
X1164420Y1763836D3*
Y1696907D3*
D61*
X832562Y1540893D3*
Y1473964D3*
X1272150Y1469938D3*
Y1403008D3*
X1069327Y1530478D3*
Y1463549D3*
X1267187Y1135835D3*
Y1068906D3*
D59*
X1019662Y788788D3*
Y729733D3*
X1014566Y656444D3*
Y597389D3*
D78*
X507048Y937976D3*
Y886794D3*
D81*
X600854Y1441351D3*
Y1374422D3*
D82*
X1348561Y1403351D3*
Y1470280D3*
D81*
X901371Y1542485D3*
Y1475556D3*
X1143843Y1531735D3*
Y1464806D3*
X1329208Y1136371D3*
Y1069441D3*
D83*
X835309Y1715398D3*
X902238D3*
D61*
X1076382Y726991D3*
Y793920D3*
X1075863Y592015D3*
Y658944D3*
D57*
X979729Y898482D3*
X1030910D3*
D85*
X905586Y814776D3*
Y789186D3*
Y763595D3*
Y738004D3*
Y712414D3*
Y686823D3*
Y661233D3*
Y610052D3*
Y635642D3*
Y584461D3*
Y558871D3*
Y533280D3*
Y507690D3*
Y482099D3*
X617712Y814776D3*
Y789186D3*
Y763595D3*
Y738004D3*
Y712414D3*
Y686823D3*
Y661233D3*
Y635642D3*
Y610052D3*
Y584461D3*
Y558871D3*
Y533280D3*
Y507690D3*
Y482099D3*
D55*
X1467267Y456724D3*
X1207527Y456850D3*
D53*
X1337314Y457154D3*
D51*
X1215582Y554871D3*
X1460144Y554926D3*
D49*
X1388802Y563447D3*
X1363212D3*
X1337621D3*
X1312031D3*
X1286440D3*
D67*
X1507031Y1397793D3*
D65*
Y1497793D3*
D87*
X1009502Y1366111D3*
X1042909Y1332704D3*
X1076315Y1299297D3*
D67*
X469140Y1125085D3*
D65*
Y1225085D3*
D42*
X494480Y498364D3*
X1475641Y1100489D3*
X505884Y1724829D3*
M02*
