G04 DipTrace 3.3.1.3*
G04 TopPaste.gbr*
%MOIN*%
G04 #@! TF.FileFunction,Paste,Top*
G04 #@! TF.Part,Single*
%AMOUTLINE2*
4,1,4,
-0.016703,-0.025051,
-0.025051,-0.016703,
0.016703,0.025051,
0.025051,0.016703,
-0.016703,-0.025051,
0*%
%AMOUTLINE5*
4,1,4,
-0.025051,0.016703,
-0.016703,0.025051,
0.025051,-0.016703,
0.016703,-0.025051,
-0.025051,0.016703,
0*%
%AMOUTLINE6*
4,1,4,
-0.017717,0.01378,
-0.017717,-0.01378,
0.017717,-0.01378,
0.017717,0.01378,
-0.017717,0.01378,
0*%
%AMOUTLINE7*
4,1,4,
-0.029231,0.001392,
0.001392,-0.029231,
0.029231,-0.001392,
-0.001392,0.029231,
-0.029231,0.001392,
0*%
%AMOUTLINE10*
4,1,4,
0.017717,-0.01378,
0.017717,0.01378,
-0.017717,0.01378,
-0.017717,-0.01378,
0.017717,-0.01378,
0*%
%AMOUTLINE11*
4,1,4,
0.021654,0.019685,
-0.021654,0.019685,
-0.021654,-0.019685,
0.021654,-0.019685,
0.021654,0.019685,
0*%
%AMOUTLINE12*
4,1,4,
-0.019685,0.021654,
-0.019685,-0.021654,
0.019685,-0.021654,
0.019685,0.021654,
-0.019685,0.021654,
0*%
%AMOUTLINE13*
4,1,4,
0.019685,-0.021654,
0.019685,0.021654,
-0.019685,0.021654,
-0.019685,-0.021654,
0.019685,-0.021654,
0*%
%AMOUTLINE14*
4,1,4,
0.033407,0.01392,
0.01392,0.033407,
-0.033407,-0.01392,
-0.01392,-0.033407,
0.033407,0.01392,
0*%
%AMOUTLINE17*
4,1,4,
-0.02356,-0.00291,
-0.02356,0.00291,
0.02356,0.00291,
0.02356,-0.00291,
-0.02356,-0.00291,
0*%
%ADD49R,0.007868X0.04527*%
%ADD51R,0.047238X0.047238*%
%ADD53R,0.161411X0.07086*%
%ADD57R,0.027553X0.019679*%
%ADD59R,0.023616X0.023616*%
%ADD61R,0.03149X0.035427*%
%ADD71OUTLINE2*%
%ADD74OUTLINE5*%
%ADD75OUTLINE6*%
%ADD76OUTLINE7*%
%ADD79OUTLINE10*%
%ADD80OUTLINE11*%
%ADD81OUTLINE12*%
%ADD82OUTLINE13*%
%ADD83OUTLINE14*%
%ADD86OUTLINE17*%
%FSLAX26Y26*%
G04*
G70*
G90*
G75*
G01*
G04 TopPaste*
%LPD*%
D71*
X1008124Y1166073D3*
X985852Y1188344D3*
X963582Y1210616D3*
X941310Y1232886D3*
X919040Y1255158D3*
X896768Y1277428D3*
X874498Y1299700D3*
X852226Y1321970D3*
D74*
X774277D3*
X752007Y1299700D3*
X729735Y1277428D3*
X707464Y1255158D3*
X685193Y1232886D3*
X662922Y1210616D3*
X640651Y1188344D3*
X618380Y1166073D3*
D71*
Y1088125D3*
X640651Y1065854D3*
X662922Y1043582D3*
X685193Y1021312D3*
X707464Y999040D3*
X729735Y976770D3*
X752007Y954498D3*
X774277Y932228D3*
D74*
X852226D3*
X874498Y954498D3*
X896768Y976770D3*
X919040Y999040D3*
X941310Y1021312D3*
X963582Y1043582D3*
X985852Y1065854D3*
X1008124Y1088125D3*
D75*
X598453Y886751D3*
Y937932D3*
D76*
X1167941Y1194590D3*
X1120616Y1241915D3*
D61*
X832562Y1540893D3*
Y1473964D3*
X1295754Y1540747D3*
Y1473818D3*
X1069327Y1546187D3*
Y1479258D3*
X1291369Y1324745D3*
Y1257815D3*
D79*
X507048Y937976D3*
Y886794D3*
D80*
X576066Y1375312D3*
X642995D3*
D81*
X1372165Y1474161D3*
Y1541090D3*
D82*
X901371Y1542485D3*
Y1475556D3*
X1143843Y1547444D3*
Y1480515D3*
X1353390Y1325280D3*
Y1258351D3*
D83*
X1009502Y1366111D3*
X1042909Y1332704D3*
X1076315Y1299297D3*
D79*
X1212776Y939209D3*
Y888028D3*
X1129833Y936987D3*
Y885806D3*
D80*
X835309Y1715398D3*
X902238D3*
D79*
X1281620Y1758871D3*
Y1707690D3*
D86*
X905586Y814776D3*
Y789186D3*
Y763595D3*
Y738004D3*
Y712414D3*
Y686823D3*
Y661233D3*
Y610052D3*
Y635642D3*
Y584461D3*
Y558871D3*
Y533280D3*
Y507690D3*
Y482099D3*
X617712Y814776D3*
Y789186D3*
Y763595D3*
Y738004D3*
Y712414D3*
Y686823D3*
Y661233D3*
Y635642D3*
Y610052D3*
Y584461D3*
Y558871D3*
Y533280D3*
Y507690D3*
Y482099D3*
D61*
X1076382Y726991D3*
Y793920D3*
X1075863Y592015D3*
Y658944D3*
D59*
X1019662Y788788D3*
Y729733D3*
X1014566Y656444D3*
Y597389D3*
D57*
X979729Y898482D3*
X1030910D3*
D53*
X1337314Y457154D3*
D51*
X1215582Y554871D3*
X1460144Y554926D3*
D49*
X1388802Y563447D3*
X1363212D3*
X1337621D3*
X1312031D3*
X1286440D3*
D75*
X1093709Y1705159D3*
Y1756340D3*
X1192007Y1703792D3*
Y1754973D3*
M02*
