G04 DipTrace 3.3.1.3*
G04 TopSilk.gbr*
%MOIN*%
G04 #@! TF.FileFunction,Legend,Top*
G04 #@! TF.Part,Single*
%ADD10C,0.009843*%
%ADD13C,0.001312*%
%ADD19C,0.016557*%
%ADD20C,0.006*%
%ADD22C,0.016*%
%ADD24C,0.022*%
%ADD26C,0.000013*%
%ADD27C,0.005*%
%ADD30C,0.008*%
%ADD33C,0.003937*%
%ADD68C,0.003088*%
%FSLAX26Y26*%
G04*
G70*
G90*
G75*
G01*
G04 TopSilk*
%LPD*%
X416641Y1608336D2*
D10*
Y1458336D1*
X441641Y1433336D1*
X491641D1*
X516641Y1458336D2*
X491641Y1433336D1*
X516641Y1608336D2*
Y1458336D1*
X491641Y1633336D2*
X516641Y1608336D1*
X441641Y1633336D2*
X491641D1*
X441641D2*
X416641Y1608336D1*
X516504Y613642D2*
Y763642D1*
X491504Y788642D1*
X441504D1*
X416504Y763642D2*
X441504Y788642D1*
X416504Y613642D2*
Y763642D1*
X441504Y588642D2*
X416504Y613642D1*
X491504Y588642D2*
X441504D1*
X491504D2*
X516504Y613642D1*
X973307Y1128497D2*
X811858Y967043D1*
X650409Y1128497D1*
X811858Y1289951D1*
X973307Y1128497D1*
D19*
X1031842Y1142996D3*
G36*
X973307Y1128497D2*
X951050Y1150731D1*
Y1106218D1*
X973307Y1128497D1*
G37*
X597251Y912342D2*
D22*
X599655D1*
X1143431Y1217405D2*
D24*
X1145127Y1219100D1*
X1353792Y1832134D2*
D10*
X1503792D1*
X1528792Y1857134D1*
Y1907134D1*
X1503792Y1932134D2*
X1528792Y1907134D1*
X1353792Y1932134D2*
X1503792D1*
X1328792Y1907134D2*
X1353792Y1932134D1*
X1328792Y1857134D2*
Y1907134D1*
Y1857134D2*
X1353792Y1832134D1*
X1155731Y1902134D2*
Y1862134D1*
X855731Y1902134D2*
Y1862134D1*
X1130831Y1832134D2*
X880631D1*
X1130831Y1932134D2*
X880631D1*
X1155731Y1907134D2*
X1130831Y1932134D1*
X1155731Y1857134D2*
X1130831Y1832134D1*
X880631D2*
X855731Y1857134D1*
X880631Y1932134D2*
X855731Y1907134D1*
X1340697Y940176D2*
D26*
G02X1340697Y940176I12594J0D01*
G01*
Y840186D2*
G02X1340697Y840186I12594J0D01*
G01*
Y740196D2*
G02X1340697Y740196I12594J0D01*
G01*
X1440704D2*
G02X1440704Y740196I12594J0D01*
G01*
Y840186D2*
G02X1440704Y840186I12594J0D01*
G01*
Y940176D2*
G02X1440704Y940176I12594J0D01*
G01*
X1503302Y910176D2*
D27*
Y870186D1*
Y810186D2*
Y770196D1*
X1303287Y910176D2*
Y875196D1*
Y810186D2*
Y770196D1*
X1503302Y965196D2*
Y990186D1*
X1303287D1*
Y965196D1*
X1503302Y715176D2*
Y690186D1*
X1503984D2*
X1303970D1*
X1303287D2*
Y715176D1*
X448688Y1320150D2*
D10*
X488688D1*
X448688Y1020150D2*
X488688D1*
X518688Y1295250D2*
Y1045050D1*
X418688Y1295250D2*
Y1045050D1*
X443688Y1320150D2*
X418688Y1295250D1*
X493688Y1320150D2*
X518688Y1295250D1*
Y1045050D2*
X493688Y1020150D1*
X418688Y1045050D2*
X443688Y1020150D1*
X812609Y1620888D2*
X851240Y1620669D1*
X851030Y1576737D2*
X814306D1*
X832349Y1614515D1*
X851030Y1576737D1*
X1275801Y1620742D2*
X1314432Y1620523D1*
X1314222Y1576592D2*
X1277498D1*
X1295541Y1614370D1*
X1314222Y1576592D1*
X1049375Y1626182D2*
X1088006Y1625962D1*
X1087795Y1582031D2*
X1051071D1*
X1069114Y1619809D1*
X1087795Y1582031D1*
X1271417Y1404739D2*
X1310048Y1404520D1*
X1309837Y1360589D2*
X1273113D1*
X1291156Y1398367D1*
X1309837Y1360589D1*
X669204Y1770235D2*
X709204D1*
X669204Y1470235D2*
X709204D1*
X739204Y1745335D2*
Y1495135D1*
X639204Y1745335D2*
Y1495135D1*
X664204Y1770235D2*
X639204Y1745335D1*
X714204Y1770235D2*
X739204Y1745335D1*
Y1495135D2*
X714204Y1470235D1*
X639204Y1495135D2*
X664204Y1470235D1*
G36*
X521047Y904382D2*
X493033D1*
Y920365D1*
X521047D1*
Y904382D1*
G37*
G36*
X618531Y1390312D2*
X600554D1*
Y1360296D1*
X618531D1*
Y1390312D1*
G37*
G36*
X1357164Y1516626D2*
X1387180D1*
Y1498648D1*
X1357164D1*
Y1516626D1*
G37*
G36*
X916371Y1500020D2*
X886355D1*
Y1517997D1*
X916371D1*
Y1500020D1*
G37*
G36*
X1158843Y1504979D2*
X1128827D1*
Y1522957D1*
X1158843D1*
Y1504979D1*
G37*
G36*
X1368391Y1282815D2*
X1338374D1*
Y1300793D1*
X1368391D1*
Y1282815D1*
G37*
X1111114Y1300688D2*
D30*
X1074924Y1264499D1*
X974703Y1364720D2*
X1010893Y1400909D1*
X427976Y1861722D2*
D10*
Y1901722D1*
X727976Y1861722D2*
Y1901722D1*
X452876Y1931722D2*
X703076D1*
X452876Y1831722D2*
X703076D1*
X427976Y1856722D2*
X452876Y1831722D1*
X427976Y1906722D2*
X452876Y1931722D1*
X703076D2*
X727976Y1906722D1*
X703076Y1831722D2*
X727976Y1856722D1*
X1213978Y913619D2*
D22*
X1211574D1*
X1131034Y911397D2*
X1128631D1*
G36*
X877774Y1730399D2*
X859796D1*
Y1700382D1*
X877774D1*
Y1730399D1*
G37*
X1282822Y1733280D2*
D22*
X1280418D1*
X876820Y853162D2*
D20*
Y443713D1*
X646477D1*
Y853162D1*
X876820D1*
X666776Y814776D2*
G02X666776Y814776I18104J0D01*
G01*
G36*
X1091382Y751461D2*
X1061382D1*
Y769451D1*
X1091382D1*
Y751461D1*
G37*
G36*
X1090863Y616484D2*
X1060863D1*
Y634475D1*
X1090863D1*
Y616484D1*
G37*
X1037772Y765952D2*
D30*
X1019662D1*
X1001552D2*
X1019662D1*
X1028866Y753746D1*
X1018662Y765345D2*
X1011063Y753746D1*
X1032676Y633608D2*
X1014566D1*
X996456D2*
X1014566D1*
X1023770Y621402D1*
X1013566Y633002D2*
X1005967Y621402D1*
X1170587Y590670D2*
D33*
Y394780D1*
X1506775Y588969D2*
Y393102D1*
X1092507Y1730750D2*
D22*
X1094911D1*
G36*
X1178008Y1737385D2*
X1206022D1*
Y1721403D1*
X1178008D1*
Y1737385D1*
G37*
X1133633Y552831D2*
D13*
X1153974D1*
X1133633Y552175D2*
X1153974D1*
X1133633Y551518D2*
X1153972D1*
X1133633Y550862D2*
X1153944D1*
X1151347Y550206D2*
X1153874D1*
X1150012Y549550D2*
X1153543D1*
X1148616Y548894D2*
X1152759D1*
X1147146Y548238D2*
X1151753D1*
X1145663Y547581D2*
X1150565D1*
X1144219Y546925D2*
X1149233D1*
X1142813Y546269D2*
X1147793D1*
X1141537Y545613D2*
X1146372D1*
X1140561Y544957D2*
X1145151D1*
X1139821Y544301D2*
X1144224D1*
X1140070Y543644D2*
X1143476D1*
X1140903Y542988D2*
X1144890D1*
X1142042Y542332D2*
X1146365D1*
X1143366Y541676D2*
X1147849D1*
X1144748Y541020D2*
X1149295D1*
X1146179Y540364D2*
X1150700D1*
X1147666Y539707D2*
X1151979D1*
X1149156Y539051D2*
X1153081D1*
X1150596Y538395D2*
X1153611D1*
X1133633Y537739D2*
X1153805D1*
X1133633Y537083D2*
X1153905D1*
X1133633Y536427D2*
X1153948D1*
X1133633Y535770D2*
X1153965D1*
X1133633Y535114D2*
X1153974D1*
X1133633Y530521D2*
X1148725D1*
X1152006D2*
X1153974D1*
X1133633Y529865D2*
X1148725D1*
X1152006D2*
X1153974D1*
X1133633Y529209D2*
X1148725D1*
X1152006D2*
X1153974D1*
X1133633Y528553D2*
X1148725D1*
X1152006D2*
X1153974D1*
X1139539Y525272D2*
X1143476D1*
X1137875Y524615D2*
X1144962D1*
X1136514Y523959D2*
X1146188D1*
X1135488Y523303D2*
X1147136D1*
X1134773Y522647D2*
X1140582D1*
X1142433D2*
X1147855D1*
X1134279Y521991D2*
X1138777D1*
X1144238D2*
X1148392D1*
X1133933Y521335D2*
X1137485D1*
X1145527D2*
X1148795D1*
X1133671Y520678D2*
X1136595D1*
X1146515D2*
X1149080D1*
X1133427Y520022D2*
X1135983D1*
X1146952D2*
X1149244D1*
X1133222Y519366D2*
X1135552D1*
X1147206D2*
X1149324D1*
X1133095Y518710D2*
X1135217D1*
X1147328D2*
X1149359D1*
X1133052Y518054D2*
X1135179D1*
X1147380D2*
X1149373D1*
X1133106Y517398D2*
X1135266D1*
X1147398D2*
X1149376D1*
X1133253Y516741D2*
X1135404D1*
X1147383D2*
X1149355D1*
X1133440Y516085D2*
X1135528D1*
X1147302D2*
X1149269D1*
X1133637Y515429D2*
X1135668D1*
X1147146D2*
X1149087D1*
X1133860Y514773D2*
X1135857D1*
X1146976D2*
X1148816D1*
X1134084Y514117D2*
X1136063D1*
X1146852D2*
X1148467D1*
X1134289Y513461D2*
X1136258D1*
X1146757D2*
X1148069D1*
X1133633Y510836D2*
X1148725D1*
X1133633Y510180D2*
X1148644D1*
X1133633Y509524D2*
X1148464D1*
X1133633Y508867D2*
X1147697D1*
X1145340Y508211D2*
X1146757D1*
X1145808Y507555D2*
X1147309D1*
X1146185Y506899D2*
X1147777D1*
X1146460Y506243D2*
X1148154D1*
X1146621Y505587D2*
X1148429D1*
X1146700Y504930D2*
X1148589D1*
X1146735Y504274D2*
X1148668D1*
X1146749Y503618D2*
X1148704D1*
X1146757Y502962D2*
X1148725D1*
X1139539Y501650D2*
X1143476D1*
X1137875Y500993D2*
X1144962D1*
X1136514Y500337D2*
X1146190D1*
X1135488Y499681D2*
X1147159D1*
X1134770Y499025D2*
X1140483D1*
X1142433D2*
X1147939D1*
X1134256Y498369D2*
X1138538D1*
X1144238D2*
X1148549D1*
X1133850Y497713D2*
X1137160D1*
X1145527D2*
X1149031D1*
X1133513Y497056D2*
X1136172D1*
X1146515D2*
X1149211D1*
X1133259Y496400D2*
X1135776D1*
X1146952D2*
X1149309D1*
X1133110Y495744D2*
X1135478D1*
X1147206D2*
X1149353D1*
X1133058Y495088D2*
X1135257D1*
X1147326D2*
X1149371D1*
X1133108Y494432D2*
X1135322D1*
X1147352D2*
X1149375D1*
X1133254Y493776D2*
X1135459D1*
X1147264D2*
X1149354D1*
X1133440Y493119D2*
X1135627D1*
X1147069D2*
X1149269D1*
X1133639Y492463D2*
X1136118D1*
X1146506D2*
X1149087D1*
X1133884Y491807D2*
X1138171D1*
X1144665D2*
X1148809D1*
X1134215Y491151D2*
X1141667D1*
X1141546D2*
X1148426D1*
X1134722Y490495D2*
X1147900D1*
X1135538Y489839D2*
X1147164D1*
X1136753Y489182D2*
X1146075D1*
X1138367Y488526D2*
X1144565D1*
X1140195Y487870D2*
X1142820D1*
X1137570Y475403D2*
X1153974D1*
X1136611Y474747D2*
X1153974D1*
X1135769Y474091D2*
X1153974D1*
X1135043Y473434D2*
X1153974D1*
X1134451Y472778D2*
X1138358D1*
X1134022Y472122D2*
X1137344D1*
X1133710Y471466D2*
X1136574D1*
X1133443Y470810D2*
X1136055D1*
X1133228Y470154D2*
X1135704D1*
X1133095Y469497D2*
X1135424D1*
X1133027Y468841D2*
X1135225D1*
X1132999Y468185D2*
X1135118D1*
X1133010Y467529D2*
X1135251D1*
X1133089Y466873D2*
X1135425D1*
X1133247Y466217D2*
X1135644D1*
X1133440Y465560D2*
X1135933D1*
X1133664Y464904D2*
X1136676D1*
X1133991Y464248D2*
X1137780D1*
X1134458Y463592D2*
X1139236D1*
X1135069Y462936D2*
X1153974D1*
X1135886Y462280D2*
X1153974D1*
X1136974Y461623D2*
X1153974D1*
X1138226Y460967D2*
X1153974D1*
X1134289Y457030D2*
X1137570D1*
X1146757D2*
X1150694D1*
X1134188Y456374D2*
X1137163D1*
X1145902D2*
X1151650D1*
X1134023Y455718D2*
X1136789D1*
X1145243D2*
X1152472D1*
X1133830Y455062D2*
X1136440D1*
X1144747D2*
X1153137D1*
X1133631Y454406D2*
X1136123D1*
X1144346D2*
X1148223D1*
X1149906D2*
X1153653D1*
X1133413Y453749D2*
X1135854D1*
X1144009D2*
X1147270D1*
X1150920D2*
X1154048D1*
X1133217Y453093D2*
X1135622D1*
X1143732D2*
X1146577D1*
X1151687D2*
X1154330D1*
X1133091Y452437D2*
X1135392D1*
X1143497D2*
X1146091D1*
X1152269D2*
X1154493D1*
X1133026Y451781D2*
X1135214D1*
X1143264D2*
X1145767D1*
X1152472D2*
X1154573D1*
X1132999Y451125D2*
X1135116D1*
X1143060D2*
X1145565D1*
X1152582D2*
X1154608D1*
X1133010Y450469D2*
X1135248D1*
X1142909D2*
X1145396D1*
X1152631D2*
X1154622D1*
X1133089Y449812D2*
X1135399D1*
X1142757D2*
X1145199D1*
X1152651D2*
X1154628D1*
X1133247Y449156D2*
X1135532D1*
X1142544D2*
X1144993D1*
X1152655D2*
X1154630D1*
X1133438Y448500D2*
X1135670D1*
X1142244D2*
X1144789D1*
X1152635D2*
X1154628D1*
X1133638Y447844D2*
X1136063D1*
X1141868D2*
X1144566D1*
X1152550D2*
X1154605D1*
X1133882Y447188D2*
X1137307D1*
X1140884D2*
X1144344D1*
X1152370D2*
X1154521D1*
X1134190Y446532D2*
X1139205D1*
X1139393D2*
X1144109D1*
X1152118D2*
X1154364D1*
X1134607Y445875D2*
X1143777D1*
X1151840D2*
X1154194D1*
X1135208Y445219D2*
X1143313D1*
X1151581D2*
X1154070D1*
X1136007Y444563D2*
X1142757D1*
X1151350D2*
X1153974D1*
X1136914Y443907D2*
X1142163D1*
X1133633Y439970D2*
X1153974D1*
X1133633Y439314D2*
X1153974D1*
X1133633Y438657D2*
X1153974D1*
X1133633Y438001D2*
X1153974D1*
X1133633Y437345D2*
X1153974D1*
X1133633Y436689D2*
X1135602D1*
X1143476D2*
X1145444D1*
X1152006D2*
X1153974D1*
X1133633Y436033D2*
X1135602D1*
X1143476D2*
X1145444D1*
X1152006D2*
X1153974D1*
X1133633Y435377D2*
X1135604D1*
X1143476D2*
X1145447D1*
X1152006D2*
X1153974D1*
X1133633Y434720D2*
X1135627D1*
X1143476D2*
X1145470D1*
X1152006D2*
X1153974D1*
X1133636Y434064D2*
X1135711D1*
X1143476D2*
X1145554D1*
X1152006D2*
X1153974D1*
X1133659Y433408D2*
X1135868D1*
X1143476D2*
X1145713D1*
X1152003D2*
X1153974D1*
X1133742Y432752D2*
X1136039D1*
X1143473D2*
X1145907D1*
X1151978D2*
X1153974D1*
X1133902Y432096D2*
X1136179D1*
X1143448D2*
X1146141D1*
X1151916D2*
X1153972D1*
X1134094Y431440D2*
X1136365D1*
X1143386D2*
X1146451D1*
X1151623D2*
X1153949D1*
X1134294Y430783D2*
X1136650D1*
X1143072D2*
X1147406D1*
X1150685D2*
X1153863D1*
X1134538Y430127D2*
X1137823D1*
X1141906D2*
X1148881D1*
X1149219D2*
X1153680D1*
X1134843Y429471D2*
X1139747D1*
X1139985D2*
X1153402D1*
X1135238Y428815D2*
X1144786D1*
X1146100D2*
X1153023D1*
X1135763Y428159D2*
X1144104D1*
X1146757D2*
X1152540D1*
X1136443Y427503D2*
X1143347D1*
X1147413D2*
X1152006D1*
X1137288Y426846D2*
X1142466D1*
X1138226Y426190D2*
X1141507D1*
X1523655Y544379D2*
X1532186D1*
X1522169Y543723D2*
X1533697D1*
X1520943Y543067D2*
X1535007D1*
X1519998Y542411D2*
X1536112D1*
X1519299Y541755D2*
X1524471D1*
X1529006D2*
X1530113D1*
X1532029D2*
X1536999D1*
X1518823Y541099D2*
X1522907D1*
X1529169D2*
X1530581D1*
X1533613D2*
X1537653D1*
X1518493Y540442D2*
X1521728D1*
X1529339D2*
X1530958D1*
X1534855D2*
X1538140D1*
X1518220Y539786D2*
X1520929D1*
X1529454D2*
X1531233D1*
X1535753D2*
X1538536D1*
X1518002Y539130D2*
X1520338D1*
X1529515D2*
X1531393D1*
X1536380D2*
X1538869D1*
X1517871Y538474D2*
X1520076D1*
X1529540D2*
X1531473D1*
X1536823D2*
X1539122D1*
X1517826Y537818D2*
X1520116D1*
X1529528D2*
X1531507D1*
X1537124D2*
X1539273D1*
X1517881Y537162D2*
X1520240D1*
X1529444D2*
X1531519D1*
X1537294D2*
X1539349D1*
X1518049Y536505D2*
X1520402D1*
X1529288D2*
X1531501D1*
X1537376D2*
X1539382D1*
X1518299Y535849D2*
X1520850D1*
X1528858D2*
X1531417D1*
X1537410D2*
X1539396D1*
X1518597Y535193D2*
X1522446D1*
X1527356D2*
X1531234D1*
X1537399D2*
X1539401D1*
X1518958Y534537D2*
X1525031D1*
X1524845D2*
X1530955D1*
X1537303D2*
X1539402D1*
X1519458Y533881D2*
X1530546D1*
X1537081D2*
X1539403D1*
X1520197Y533225D2*
X1529916D1*
X1536779D2*
X1539403D1*
X1521252Y532568D2*
X1528974D1*
X1522671Y531912D2*
X1527710D1*
X1524312Y531256D2*
X1526280D1*
X1523655Y528631D2*
X1534154D1*
X1522169Y527975D2*
X1535638D1*
X1520943Y527319D2*
X1536843D1*
X1519998Y526663D2*
X1537728D1*
X1519299Y526007D2*
X1524701D1*
X1532554D2*
X1538350D1*
X1518823Y525351D2*
X1522917D1*
X1534498D2*
X1538792D1*
X1518493Y524694D2*
X1521687D1*
X1535874D2*
X1539092D1*
X1518220Y524038D2*
X1520789D1*
X1536854D2*
X1539262D1*
X1518005Y523382D2*
X1520376D1*
X1537158D2*
X1539345D1*
X1517894Y522726D2*
X1520071D1*
X1537317D2*
X1539381D1*
X1517909Y522070D2*
X1520138D1*
X1537360D2*
X1539393D1*
X1518039Y521413D2*
X1520353D1*
X1537326D2*
X1539375D1*
X1518220Y520757D2*
X1520675D1*
X1536990D2*
X1539291D1*
X1518439Y520101D2*
X1521561D1*
X1536086D2*
X1539108D1*
X1518767Y519445D2*
X1522944D1*
X1534816D2*
X1538829D1*
X1519257Y518789D2*
X1524826D1*
X1533238D2*
X1538420D1*
X1519952Y518133D2*
X1537790D1*
X1520931Y517476D2*
X1536848D1*
X1522214Y516820D2*
X1535584D1*
X1523655Y516164D2*
X1534154D1*
X1531529Y513539D2*
X1532842D1*
X1529965Y512883D2*
X1534631D1*
X1528746Y512227D2*
X1536045D1*
X1518406Y511571D2*
X1520375D1*
X1527829D2*
X1537089D1*
X1518103Y510915D2*
X1520273D1*
X1527153D2*
X1537850D1*
X1517915Y510259D2*
X1520113D1*
X1526688D2*
X1529588D1*
X1535233D2*
X1538404D1*
X1517822Y509602D2*
X1519966D1*
X1526364D2*
X1529039D1*
X1536085D2*
X1538814D1*
X1517803Y508946D2*
X1519935D1*
X1526093D2*
X1528627D1*
X1536682D2*
X1539100D1*
X1517869Y508290D2*
X1520034D1*
X1525878D2*
X1528324D1*
X1537129D2*
X1539265D1*
X1518022Y507634D2*
X1520200D1*
X1525768D2*
X1528083D1*
X1537284D2*
X1539346D1*
X1518211Y506978D2*
X1520412D1*
X1525783D2*
X1527894D1*
X1537346D2*
X1539381D1*
X1518411Y506322D2*
X1520735D1*
X1525913D2*
X1527962D1*
X1537296D2*
X1539393D1*
X1518655Y505665D2*
X1521203D1*
X1526091D2*
X1528076D1*
X1537100D2*
X1539375D1*
X1518960Y505009D2*
X1521843D1*
X1526282D2*
X1528204D1*
X1536792D2*
X1539291D1*
X1519355Y504353D2*
X1522809D1*
X1526474D2*
X1528371D1*
X1536030D2*
X1539106D1*
X1519880Y503697D2*
X1524342D1*
X1526633D2*
X1529103D1*
X1534038D2*
X1538806D1*
X1520571Y503041D2*
X1526475D1*
X1526497D2*
X1531107D1*
X1538336D1*
X1521484Y502385D2*
X1537633D1*
X1522662Y501728D2*
X1536684D1*
X1524081Y501072D2*
X1535491D1*
X1525624Y500416D2*
X1534154D1*
X1526280Y497135D2*
X1528249D1*
X1526280Y496479D2*
X1528249D1*
X1526280Y495823D2*
X1528249D1*
X1526280Y495167D2*
X1528249D1*
X1526280Y494511D2*
X1528249D1*
X1526280Y493854D2*
X1528249D1*
X1526280Y493198D2*
X1528249D1*
X1526280Y492542D2*
X1528249D1*
X1526280Y491886D2*
X1528249D1*
X1526280Y491230D2*
X1528249D1*
X1526280Y490574D2*
X1528249D1*
X1526280Y489917D2*
X1528249D1*
X1525624Y487293D2*
X1528905D1*
X1525624Y486637D2*
X1529586D1*
X1525624Y485980D2*
X1530326D1*
X1525624Y485324D2*
X1531140D1*
X1525624Y484668D2*
X1527592D1*
X1529561D2*
X1531964D1*
X1525624Y484012D2*
X1527592D1*
X1530217D2*
X1532735D1*
X1525624Y483356D2*
X1527592D1*
X1530873D2*
X1533452D1*
X1525624Y482700D2*
X1527592D1*
X1531529D2*
X1534136D1*
X1525624Y482043D2*
X1527592D1*
X1532188D2*
X1534803D1*
X1525624Y481387D2*
X1527592D1*
X1532867D2*
X1535467D1*
X1525624Y480731D2*
X1527592D1*
X1533607D2*
X1536145D1*
X1525624Y480075D2*
X1527592D1*
X1534421D2*
X1536860D1*
X1525624Y479419D2*
X1527592D1*
X1535247D2*
X1537564D1*
X1525624Y478763D2*
X1527592D1*
X1536027D2*
X1538122D1*
X1518406Y478106D2*
X1538523D1*
X1518406Y477450D2*
X1538642D1*
X1518406Y476794D2*
X1538707D1*
X1518406Y476138D2*
X1538747D1*
X1525624Y475482D2*
X1527592D1*
X1525624Y474826D2*
X1527592D1*
X1525624Y474169D2*
X1527592D1*
X1525624Y473513D2*
X1527592D1*
X1523655Y470889D2*
X1532186D1*
X1522169Y470232D2*
X1533697D1*
X1520943Y469576D2*
X1535007D1*
X1519998Y468920D2*
X1536112D1*
X1519299Y468264D2*
X1524471D1*
X1529006D2*
X1530113D1*
X1532029D2*
X1536999D1*
X1518823Y467608D2*
X1522907D1*
X1529169D2*
X1530581D1*
X1533613D2*
X1537653D1*
X1518493Y466952D2*
X1521728D1*
X1529339D2*
X1530958D1*
X1534855D2*
X1538140D1*
X1518220Y466295D2*
X1520929D1*
X1529454D2*
X1531233D1*
X1535753D2*
X1538536D1*
X1518002Y465639D2*
X1520338D1*
X1529515D2*
X1531393D1*
X1536380D2*
X1538869D1*
X1517871Y464983D2*
X1520076D1*
X1529540D2*
X1531473D1*
X1536823D2*
X1539122D1*
X1517826Y464327D2*
X1520116D1*
X1529528D2*
X1531507D1*
X1537124D2*
X1539273D1*
X1517881Y463671D2*
X1520240D1*
X1529444D2*
X1531519D1*
X1537294D2*
X1539349D1*
X1518049Y463015D2*
X1520402D1*
X1529288D2*
X1531501D1*
X1537376D2*
X1539382D1*
X1518299Y462358D2*
X1520850D1*
X1528858D2*
X1531417D1*
X1537410D2*
X1539396D1*
X1518597Y461702D2*
X1522446D1*
X1527356D2*
X1531234D1*
X1537399D2*
X1539401D1*
X1518958Y461046D2*
X1525031D1*
X1524845D2*
X1530955D1*
X1537303D2*
X1539402D1*
X1519458Y460390D2*
X1530546D1*
X1537081D2*
X1539403D1*
X1520197Y459734D2*
X1529916D1*
X1536779D2*
X1539403D1*
X1521252Y459078D2*
X1528974D1*
X1522671Y458421D2*
X1527710D1*
X1524312Y457765D2*
X1526280D1*
X1518406Y453172D2*
X1520375D1*
X1534810D2*
X1536123D1*
X1518406Y452516D2*
X1520377D1*
X1534810D2*
X1536349D1*
X1518406Y451860D2*
X1520403D1*
X1534810D2*
X1536573D1*
X1518406Y451204D2*
X1520512D1*
X1534810D2*
X1536827D1*
X1518406Y450547D2*
X1520776D1*
X1534810D2*
X1537216D1*
X1518406Y449891D2*
X1521196D1*
X1534810D2*
X1537727D1*
X1518406Y449235D2*
X1538190D1*
X1518406Y448579D2*
X1538486D1*
X1518406Y447923D2*
X1538645D1*
X1518406Y447267D2*
X1538747D1*
X1518406Y446610D2*
X1520375D1*
X1518406Y445954D2*
X1520375D1*
X1518406Y445298D2*
X1520375D1*
X1518406Y444642D2*
X1520375D1*
X1518406Y443986D2*
X1520375D1*
X1523655Y439393D2*
X1532186D1*
X1522169Y438736D2*
X1533697D1*
X1520943Y438080D2*
X1535007D1*
X1519998Y437424D2*
X1536112D1*
X1519299Y436768D2*
X1524471D1*
X1529006D2*
X1530113D1*
X1532029D2*
X1536999D1*
X1518823Y436112D2*
X1522907D1*
X1529169D2*
X1530581D1*
X1533613D2*
X1537653D1*
X1518493Y435455D2*
X1521728D1*
X1529339D2*
X1530958D1*
X1534855D2*
X1538140D1*
X1518220Y434799D2*
X1520929D1*
X1529454D2*
X1531233D1*
X1535753D2*
X1538536D1*
X1518002Y434143D2*
X1520338D1*
X1529515D2*
X1531393D1*
X1536380D2*
X1538869D1*
X1517871Y433487D2*
X1520076D1*
X1529540D2*
X1531473D1*
X1536823D2*
X1539122D1*
X1517826Y432831D2*
X1520116D1*
X1529528D2*
X1531507D1*
X1537124D2*
X1539273D1*
X1517881Y432175D2*
X1520240D1*
X1529444D2*
X1531519D1*
X1537294D2*
X1539349D1*
X1518049Y431518D2*
X1520402D1*
X1529288D2*
X1531501D1*
X1537376D2*
X1539382D1*
X1518299Y430862D2*
X1520850D1*
X1528858D2*
X1531417D1*
X1537410D2*
X1539396D1*
X1518597Y430206D2*
X1522446D1*
X1527356D2*
X1531234D1*
X1537399D2*
X1539401D1*
X1518958Y429550D2*
X1525031D1*
X1524845D2*
X1530955D1*
X1537303D2*
X1539402D1*
X1519458Y428894D2*
X1530546D1*
X1537081D2*
X1539403D1*
X1520197Y428238D2*
X1529916D1*
X1536779D2*
X1539403D1*
X1521252Y427581D2*
X1528974D1*
X1522671Y426925D2*
X1527710D1*
X1524312Y426269D2*
X1526280D1*
X1133633Y552831D2*
Y552175D1*
Y551518D1*
Y550862D1*
X1153974Y552831D2*
Y552175D1*
X1153972Y551518D1*
X1153944Y550862D1*
X1153874Y550206D1*
X1153543Y549550D1*
X1152759Y548894D1*
X1151753Y548238D1*
X1150565Y547581D1*
X1149233Y546925D1*
X1147793Y546269D1*
X1146372Y545613D1*
X1145151Y544957D1*
X1144224Y544301D1*
X1143476Y543644D1*
X1144890Y542988D1*
X1146365Y542332D1*
X1147849Y541676D1*
X1149295Y541020D1*
X1150700Y540364D1*
X1151979Y539707D1*
X1153081Y539051D1*
X1153611Y538395D1*
X1153805Y537739D1*
X1153905Y537083D1*
X1153948Y536427D1*
X1153965Y535770D1*
X1153974Y535114D1*
X1152662Y550862D2*
X1151347Y550206D1*
X1150012Y549550D1*
X1148616Y548894D1*
X1147146Y548238D1*
X1145663Y547581D1*
X1144219Y546925D1*
X1142813Y546269D1*
X1141537Y545613D1*
X1140561Y544957D1*
X1139821Y544301D1*
X1140070Y543644D1*
X1140903Y542988D1*
X1142042Y542332D1*
X1143366Y541676D1*
X1144748Y541020D1*
X1146179Y540364D1*
X1147666Y539707D1*
X1149156Y539051D1*
X1150596Y538395D1*
X1152006Y537739D1*
X1133633D2*
Y537083D1*
Y536427D1*
Y535770D1*
Y535114D1*
Y530521D2*
Y529865D1*
Y529209D1*
Y528553D1*
X1148725Y530521D2*
Y529865D1*
Y529209D1*
Y528553D1*
X1152006Y530521D2*
Y529865D1*
Y529209D1*
Y528553D1*
X1153974Y530521D2*
Y529865D1*
Y529209D1*
Y528553D1*
X1139539Y525272D2*
X1137875Y524615D1*
X1136514Y523959D1*
X1135488Y523303D1*
X1134773Y522647D1*
X1134279Y521991D1*
X1133933Y521335D1*
X1133671Y520678D1*
X1133427Y520022D1*
X1133222Y519366D1*
X1133095Y518710D1*
X1133052Y518054D1*
X1133106Y517398D1*
X1133253Y516741D1*
X1133440Y516085D1*
X1133637Y515429D1*
X1133860Y514773D1*
X1134084Y514117D1*
X1134289Y513461D1*
X1143476Y525272D2*
X1144962Y524615D1*
X1146188Y523959D1*
X1147136Y523303D1*
X1147855Y522647D1*
X1148392Y521991D1*
X1148795Y521335D1*
X1149080Y520678D1*
X1149244Y520022D1*
X1149324Y519366D1*
X1149359Y518710D1*
X1149373Y518054D1*
X1149376Y517398D1*
X1149355Y516741D1*
X1149269Y516085D1*
X1149087Y515429D1*
X1148816Y514773D1*
X1148467Y514117D1*
X1148069Y513461D1*
X1142820Y523303D2*
X1140582Y522647D1*
X1138777Y521991D1*
X1137485Y521335D1*
X1136595Y520678D1*
X1135983Y520022D1*
X1135552Y519366D1*
X1135217Y518710D1*
X1135179Y518054D1*
X1135266Y517398D1*
X1135404Y516741D1*
X1135528Y516085D1*
X1135668Y515429D1*
X1135857Y514773D1*
X1136063Y514117D1*
X1136258Y513461D1*
X1140195Y523303D2*
X1142433Y522647D1*
X1144238Y521991D1*
X1145527Y521335D1*
X1146515Y520678D1*
X1146952Y520022D1*
X1147206Y519366D1*
X1147328Y518710D1*
X1147380Y518054D1*
X1147398Y517398D1*
X1147383Y516741D1*
X1147302Y516085D1*
X1147146Y515429D1*
X1146976Y514773D1*
X1146852Y514117D1*
X1146757Y513461D1*
X1133633Y510836D2*
Y510180D1*
Y509524D1*
Y508867D1*
X1148725Y510836D2*
X1148644Y510180D1*
X1148464Y509524D1*
X1147697Y508867D1*
X1146757Y508211D1*
X1147309Y507555D1*
X1147777Y506899D1*
X1148154Y506243D1*
X1148429Y505587D1*
X1148589Y504930D1*
X1148668Y504274D1*
X1148704Y503618D1*
X1148725Y502962D1*
X1144788Y508867D2*
X1145340Y508211D1*
X1145808Y507555D1*
X1146185Y506899D1*
X1146460Y506243D1*
X1146621Y505587D1*
X1146700Y504930D1*
X1146735Y504274D1*
X1146749Y503618D1*
X1146757Y502962D1*
X1139539Y501650D2*
X1137875Y500993D1*
X1136514Y500337D1*
X1135488Y499681D1*
X1134770Y499025D1*
X1134256Y498369D1*
X1133850Y497713D1*
X1133513Y497056D1*
X1133259Y496400D1*
X1133110Y495744D1*
X1133058Y495088D1*
X1133108Y494432D1*
X1133254Y493776D1*
X1133440Y493119D1*
X1133639Y492463D1*
X1133884Y491807D1*
X1134215Y491151D1*
X1134722Y490495D1*
X1135538Y489839D1*
X1136753Y489182D1*
X1138367Y488526D1*
X1140195Y487870D1*
X1143476Y501650D2*
X1144962Y500993D1*
X1146190Y500337D1*
X1147159Y499681D1*
X1147939Y499025D1*
X1148549Y498369D1*
X1149031Y497713D1*
X1149211Y497056D1*
X1149309Y496400D1*
X1149353Y495744D1*
X1149371Y495088D1*
X1149375Y494432D1*
X1149354Y493776D1*
X1149269Y493119D1*
X1149087Y492463D1*
X1148809Y491807D1*
X1148426Y491151D1*
X1147900Y490495D1*
X1147164Y489839D1*
X1146075Y489182D1*
X1144565Y488526D1*
X1142820Y487870D1*
Y499681D2*
X1140483Y499025D1*
X1138538Y498369D1*
X1137160Y497713D1*
X1136172Y497056D1*
X1135776Y496400D1*
X1135478Y495744D1*
X1135257Y495088D1*
X1135322Y494432D1*
X1135459Y493776D1*
X1135627Y493119D1*
X1136118Y492463D1*
X1138171Y491807D1*
X1141667Y491151D1*
X1146100Y490495D1*
X1140195Y499681D2*
X1142433Y499025D1*
X1144238Y498369D1*
X1145527Y497713D1*
X1146515Y497056D1*
X1146952Y496400D1*
X1147206Y495744D1*
X1147326Y495088D1*
X1147352Y494432D1*
X1147264Y493776D1*
X1147069Y493119D1*
X1146506Y492463D1*
X1144665Y491807D1*
X1141546Y491151D1*
X1137570Y490495D1*
Y475403D2*
X1136611Y474747D1*
X1135769Y474091D1*
X1135043Y473434D1*
X1134451Y472778D1*
X1134022Y472122D1*
X1133710Y471466D1*
X1133443Y470810D1*
X1133228Y470154D1*
X1133095Y469497D1*
X1133027Y468841D1*
X1132999Y468185D1*
X1133010Y467529D1*
X1133089Y466873D1*
X1133247Y466217D1*
X1133440Y465560D1*
X1133664Y464904D1*
X1133991Y464248D1*
X1134458Y463592D1*
X1135069Y462936D1*
X1135886Y462280D1*
X1136974Y461623D1*
X1138226Y460967D1*
X1153974Y475403D2*
Y474747D1*
Y474091D1*
Y473434D1*
X1139539D2*
X1138358Y472778D1*
X1137344Y472122D1*
X1136574Y471466D1*
X1136055Y470810D1*
X1135704Y470154D1*
X1135424Y469497D1*
X1135225Y468841D1*
X1135118Y468185D1*
X1135251Y467529D1*
X1135425Y466873D1*
X1135644Y466217D1*
X1135933Y465560D1*
X1136676Y464904D1*
X1137780Y464248D1*
X1139236Y463592D1*
X1140851Y462936D1*
X1153974D2*
Y462280D1*
Y461623D1*
Y460967D1*
X1134289Y457030D2*
X1134188Y456374D1*
X1134023Y455718D1*
X1133830Y455062D1*
X1133631Y454406D1*
X1133413Y453749D1*
X1133217Y453093D1*
X1133091Y452437D1*
X1133026Y451781D1*
X1132999Y451125D1*
X1133010Y450469D1*
X1133089Y449812D1*
X1133247Y449156D1*
X1133438Y448500D1*
X1133638Y447844D1*
X1133882Y447188D1*
X1134190Y446532D1*
X1134607Y445875D1*
X1135208Y445219D1*
X1136007Y444563D1*
X1136914Y443907D1*
X1137570Y457030D2*
X1137163Y456374D1*
X1136789Y455718D1*
X1136440Y455062D1*
X1136123Y454406D1*
X1135854Y453749D1*
X1135622Y453093D1*
X1135392Y452437D1*
X1135214Y451781D1*
X1135116Y451125D1*
X1135248Y450469D1*
X1135399Y449812D1*
X1135532Y449156D1*
X1135670Y448500D1*
X1136063Y447844D1*
X1137307Y447188D1*
X1139205Y446532D1*
X1141507Y445875D1*
X1146757Y457030D2*
X1145902Y456374D1*
X1145243Y455718D1*
X1144747Y455062D1*
X1144346Y454406D1*
X1144009Y453749D1*
X1143732Y453093D1*
X1143497Y452437D1*
X1143264Y451781D1*
X1143060Y451125D1*
X1142909Y450469D1*
X1142757Y449812D1*
X1142544Y449156D1*
X1142244Y448500D1*
X1141868Y447844D1*
X1140884Y447188D1*
X1139393Y446532D1*
X1137570Y445875D1*
X1150694Y457030D2*
X1151650Y456374D1*
X1152472Y455718D1*
X1153137Y455062D1*
X1153653Y454406D1*
X1154048Y453749D1*
X1154330Y453093D1*
X1154493Y452437D1*
X1154573Y451781D1*
X1154608Y451125D1*
X1154622Y450469D1*
X1154628Y449812D1*
X1154630Y449156D1*
X1154628Y448500D1*
X1154605Y447844D1*
X1154521Y447188D1*
X1154364Y446532D1*
X1154194Y445875D1*
X1154070Y445219D1*
X1153974Y444563D1*
X1149381Y455062D2*
X1148223Y454406D1*
X1147270Y453749D1*
X1146577Y453093D1*
X1146091Y452437D1*
X1145767Y451781D1*
X1145565Y451125D1*
X1145396Y450469D1*
X1145199Y449812D1*
X1144993Y449156D1*
X1144789Y448500D1*
X1144566Y447844D1*
X1144344Y447188D1*
X1144109Y446532D1*
X1143777Y445875D1*
X1143313Y445219D1*
X1142757Y444563D1*
X1142163Y443907D1*
X1148725Y455062D2*
X1149906Y454406D1*
X1150920Y453749D1*
X1151687Y453093D1*
X1152269Y452437D1*
X1152472Y451781D1*
X1152582Y451125D1*
X1152631Y450469D1*
X1152651Y449812D1*
X1152655Y449156D1*
X1152635Y448500D1*
X1152550Y447844D1*
X1152370Y447188D1*
X1152118Y446532D1*
X1151840Y445875D1*
X1151581Y445219D1*
X1151350Y444563D1*
X1133633Y439970D2*
Y439314D1*
Y438657D1*
Y438001D1*
Y437345D1*
Y436689D1*
Y436033D1*
Y435377D1*
Y434720D1*
X1133636Y434064D1*
X1133659Y433408D1*
X1133742Y432752D1*
X1133902Y432096D1*
X1134094Y431440D1*
X1134294Y430783D1*
X1134538Y430127D1*
X1134843Y429471D1*
X1135238Y428815D1*
X1135763Y428159D1*
X1136443Y427503D1*
X1137288Y426846D1*
X1138226Y426190D1*
X1153974Y439970D2*
Y439314D1*
Y438657D1*
Y438001D1*
Y437345D1*
Y436689D1*
Y436033D1*
Y435377D1*
Y434720D1*
Y434064D1*
Y433408D1*
Y432752D1*
X1153972Y432096D1*
X1153949Y431440D1*
X1153863Y430783D1*
X1153680Y430127D1*
X1153402Y429471D1*
X1153023Y428815D1*
X1152540Y428159D1*
X1152006Y427503D1*
X1135602Y437345D2*
Y436689D1*
Y436033D1*
X1135604Y435377D1*
X1135627Y434720D1*
X1135711Y434064D1*
X1135868Y433408D1*
X1136039Y432752D1*
X1136179Y432096D1*
X1136365Y431440D1*
X1136650Y430783D1*
X1137823Y430127D1*
X1139747Y429471D1*
X1142163Y428815D1*
X1143476Y437345D2*
Y436689D1*
Y436033D1*
Y435377D1*
Y434720D1*
Y434064D1*
Y433408D1*
X1143473Y432752D1*
X1143448Y432096D1*
X1143386Y431440D1*
X1143072Y430783D1*
X1141906Y430127D1*
X1139985Y429471D1*
X1137570Y428815D1*
X1145444Y437345D2*
Y436689D1*
Y436033D1*
X1145447Y435377D1*
X1145470Y434720D1*
X1145554Y434064D1*
X1145713Y433408D1*
X1145907Y432752D1*
X1146141Y432096D1*
X1146451Y431440D1*
X1147406Y430783D1*
X1148881Y430127D1*
X1150694Y429471D1*
X1152006Y437345D2*
Y436689D1*
Y436033D1*
Y435377D1*
Y434720D1*
Y434064D1*
X1152003Y433408D1*
X1151978Y432752D1*
X1151916Y432096D1*
X1151623Y431440D1*
X1150685Y430783D1*
X1149219Y430127D1*
X1147413Y429471D1*
X1145444D2*
X1144786Y428815D1*
X1144104Y428159D1*
X1143347Y427503D1*
X1142466Y426846D1*
X1141507Y426190D1*
X1145444Y429471D2*
X1146100Y428815D1*
X1146757Y428159D1*
X1147413Y427503D1*
X1523655Y544379D2*
X1522169Y543723D1*
X1520943Y543067D1*
X1519998Y542411D1*
X1519299Y541755D1*
X1518823Y541099D1*
X1518493Y540442D1*
X1518220Y539786D1*
X1518002Y539130D1*
X1517871Y538474D1*
X1517826Y537818D1*
X1517881Y537162D1*
X1518049Y536505D1*
X1518299Y535849D1*
X1518597Y535193D1*
X1518958Y534537D1*
X1519458Y533881D1*
X1520197Y533225D1*
X1521252Y532568D1*
X1522671Y531912D1*
X1524312Y531256D1*
X1532186Y544379D2*
X1533697Y543723D1*
X1535007Y543067D1*
X1536112Y542411D1*
X1536999Y541755D1*
X1537653Y541099D1*
X1538140Y540442D1*
X1538536Y539786D1*
X1538869Y539130D1*
X1539122Y538474D1*
X1539273Y537818D1*
X1539349Y537162D1*
X1539382Y536505D1*
X1539396Y535849D1*
X1539401Y535193D1*
X1539402Y534537D1*
X1539403Y533881D1*
Y533225D1*
X1526280Y542411D2*
X1524471Y541755D1*
X1522907Y541099D1*
X1521728Y540442D1*
X1520929Y539786D1*
X1520338Y539130D1*
X1520076Y538474D1*
X1520116Y537818D1*
X1520240Y537162D1*
X1520402Y536505D1*
X1520850Y535849D1*
X1522446Y535193D1*
X1525031Y534537D1*
X1528249Y533881D1*
X1528905Y542411D2*
X1529006Y541755D1*
X1529169Y541099D1*
X1529339Y540442D1*
X1529454Y539786D1*
X1529515Y539130D1*
X1529540Y538474D1*
X1529528Y537818D1*
X1529444Y537162D1*
X1529288Y536505D1*
X1528858Y535849D1*
X1527356Y535193D1*
X1524845Y534537D1*
X1521687Y533881D1*
X1529561Y542411D2*
X1530113Y541755D1*
X1530581Y541099D1*
X1530958Y540442D1*
X1531233Y539786D1*
X1531393Y539130D1*
X1531473Y538474D1*
X1531507Y537818D1*
X1531519Y537162D1*
X1531501Y536505D1*
X1531417Y535849D1*
X1531234Y535193D1*
X1530955Y534537D1*
X1530546Y533881D1*
X1529916Y533225D1*
X1528974Y532568D1*
X1527710Y531912D1*
X1526280Y531256D1*
X1530217Y542411D2*
X1532029Y541755D1*
X1533613Y541099D1*
X1534855Y540442D1*
X1535753Y539786D1*
X1536380Y539130D1*
X1536823Y538474D1*
X1537124Y537818D1*
X1537294Y537162D1*
X1537376Y536505D1*
X1537410Y535849D1*
X1537399Y535193D1*
X1537303Y534537D1*
X1537081Y533881D1*
X1536779Y533225D1*
X1523655Y528631D2*
X1522169Y527975D1*
X1520943Y527319D1*
X1519998Y526663D1*
X1519299Y526007D1*
X1518823Y525351D1*
X1518493Y524694D1*
X1518220Y524038D1*
X1518005Y523382D1*
X1517894Y522726D1*
X1517909Y522070D1*
X1518039Y521413D1*
X1518220Y520757D1*
X1518439Y520101D1*
X1518767Y519445D1*
X1519257Y518789D1*
X1519952Y518133D1*
X1520931Y517476D1*
X1522214Y516820D1*
X1523655Y516164D1*
X1534154Y528631D2*
X1535638Y527975D1*
X1536843Y527319D1*
X1537728Y526663D1*
X1538350Y526007D1*
X1538792Y525351D1*
X1539092Y524694D1*
X1539262Y524038D1*
X1539345Y523382D1*
X1539381Y522726D1*
X1539393Y522070D1*
X1539375Y521413D1*
X1539291Y520757D1*
X1539108Y520101D1*
X1538829Y519445D1*
X1538420Y518789D1*
X1537790Y518133D1*
X1536848Y517476D1*
X1535584Y516820D1*
X1534154Y516164D1*
X1526936Y526663D2*
X1524701Y526007D1*
X1522917Y525351D1*
X1521687Y524694D1*
X1520789Y524038D1*
X1520376Y523382D1*
X1520071Y522726D1*
X1520138Y522070D1*
X1520353Y521413D1*
X1520675Y520757D1*
X1521561Y520101D1*
X1522944Y519445D1*
X1524826Y518789D1*
X1526936Y518133D1*
X1530217Y526663D2*
X1532554Y526007D1*
X1534498Y525351D1*
X1535874Y524694D1*
X1536854Y524038D1*
X1537158Y523382D1*
X1537317Y522726D1*
X1537360Y522070D1*
X1537326Y521413D1*
X1536990Y520757D1*
X1536086Y520101D1*
X1534816Y519445D1*
X1533238Y518789D1*
X1531529Y518133D1*
Y513539D2*
X1529965Y512883D1*
X1528746Y512227D1*
X1527829Y511571D1*
X1527153Y510915D1*
X1526688Y510259D1*
X1526364Y509602D1*
X1526093Y508946D1*
X1525878Y508290D1*
X1525768Y507634D1*
X1525783Y506978D1*
X1525913Y506322D1*
X1526091Y505665D1*
X1526282Y505009D1*
X1526474Y504353D1*
X1526633Y503697D1*
X1526497Y503041D1*
X1526280Y502385D1*
X1532842Y513539D2*
X1534631Y512883D1*
X1536045Y512227D1*
X1537089Y511571D1*
X1537850Y510915D1*
X1538404Y510259D1*
X1538814Y509602D1*
X1539100Y508946D1*
X1539265Y508290D1*
X1539346Y507634D1*
X1539381Y506978D1*
X1539393Y506322D1*
X1539375Y505665D1*
X1539291Y505009D1*
X1539106Y504353D1*
X1538806Y503697D1*
X1538336Y503041D1*
X1537633Y502385D1*
X1536684Y501728D1*
X1535491Y501072D1*
X1534154Y500416D1*
X1518406Y511571D2*
X1518103Y510915D1*
X1517915Y510259D1*
X1517822Y509602D1*
X1517803Y508946D1*
X1517869Y508290D1*
X1518022Y507634D1*
X1518211Y506978D1*
X1518411Y506322D1*
X1518655Y505665D1*
X1518960Y505009D1*
X1519355Y504353D1*
X1519880Y503697D1*
X1520571Y503041D1*
X1521484Y502385D1*
X1522662Y501728D1*
X1524081Y501072D1*
X1525624Y500416D1*
X1520375Y511571D2*
X1520273Y510915D1*
X1520113Y510259D1*
X1519966Y509602D1*
X1519935Y508946D1*
X1520034Y508290D1*
X1520200Y507634D1*
X1520412Y506978D1*
X1520735Y506322D1*
X1521203Y505665D1*
X1521843Y505009D1*
X1522809Y504353D1*
X1524342Y503697D1*
X1526475Y503041D1*
X1528905Y502385D1*
X1530217Y510915D2*
X1529588Y510259D1*
X1529039Y509602D1*
X1528627Y508946D1*
X1528324Y508290D1*
X1528083Y507634D1*
X1527894Y506978D1*
X1527962Y506322D1*
X1528076Y505665D1*
X1528204Y505009D1*
X1528371Y504353D1*
X1529103Y503697D1*
X1531107Y503041D1*
X1533498Y502385D1*
X1534154Y510915D2*
X1535233Y510259D1*
X1536085Y509602D1*
X1536682Y508946D1*
X1537129Y508290D1*
X1537284Y507634D1*
X1537346Y506978D1*
X1537296Y506322D1*
X1537100Y505665D1*
X1536792Y505009D1*
X1536030Y504353D1*
X1534038Y503697D1*
X1531107Y503041D1*
X1527592Y502385D1*
X1526280Y497135D2*
Y496479D1*
Y495823D1*
Y495167D1*
Y494511D1*
Y493854D1*
Y493198D1*
Y492542D1*
Y491886D1*
Y491230D1*
Y490574D1*
Y489917D1*
X1528249Y497135D2*
Y496479D1*
Y495823D1*
Y495167D1*
Y494511D1*
Y493854D1*
Y493198D1*
Y492542D1*
Y491886D1*
Y491230D1*
Y490574D1*
Y489917D1*
X1525624Y487293D2*
Y486637D1*
Y485980D1*
Y485324D1*
Y484668D1*
Y484012D1*
Y483356D1*
Y482700D1*
Y482043D1*
Y481387D1*
Y480731D1*
Y480075D1*
Y479419D1*
Y478763D1*
Y478106D1*
X1518406D1*
Y477450D1*
Y476794D1*
Y476138D1*
Y475482D1*
X1525624D1*
Y474826D1*
Y474169D1*
Y473513D1*
X1528905Y487293D2*
X1529586Y486637D1*
X1530326Y485980D1*
X1531140Y485324D1*
X1531964Y484668D1*
X1532735Y484012D1*
X1533452Y483356D1*
X1534136Y482700D1*
X1534803Y482043D1*
X1535467Y481387D1*
X1536145Y480731D1*
X1536860Y480075D1*
X1537564Y479419D1*
X1538122Y478763D1*
X1538523Y478106D1*
X1538642Y477450D1*
X1538707Y476794D1*
X1538747Y476138D1*
X1527592Y485324D2*
Y484668D1*
Y484012D1*
Y483356D1*
Y482700D1*
Y482043D1*
Y481387D1*
Y480731D1*
Y480075D1*
Y479419D1*
Y478763D1*
Y478106D1*
X1528905Y485324D2*
X1529561Y484668D1*
X1530217Y484012D1*
X1530873Y483356D1*
X1531529Y482700D1*
X1532188Y482043D1*
X1532867Y481387D1*
X1533607Y480731D1*
X1534421Y480075D1*
X1535247Y479419D1*
X1536027Y478763D1*
X1536779Y478106D1*
X1527592Y476138D2*
Y475482D1*
Y474826D1*
Y474169D1*
Y473513D1*
X1523655Y470889D2*
X1522169Y470232D1*
X1520943Y469576D1*
X1519998Y468920D1*
X1519299Y468264D1*
X1518823Y467608D1*
X1518493Y466952D1*
X1518220Y466295D1*
X1518002Y465639D1*
X1517871Y464983D1*
X1517826Y464327D1*
X1517881Y463671D1*
X1518049Y463015D1*
X1518299Y462358D1*
X1518597Y461702D1*
X1518958Y461046D1*
X1519458Y460390D1*
X1520197Y459734D1*
X1521252Y459078D1*
X1522671Y458421D1*
X1524312Y457765D1*
X1532186Y470889D2*
X1533697Y470232D1*
X1535007Y469576D1*
X1536112Y468920D1*
X1536999Y468264D1*
X1537653Y467608D1*
X1538140Y466952D1*
X1538536Y466295D1*
X1538869Y465639D1*
X1539122Y464983D1*
X1539273Y464327D1*
X1539349Y463671D1*
X1539382Y463015D1*
X1539396Y462358D1*
X1539401Y461702D1*
X1539402Y461046D1*
X1539403Y460390D1*
Y459734D1*
X1526280Y468920D2*
X1524471Y468264D1*
X1522907Y467608D1*
X1521728Y466952D1*
X1520929Y466295D1*
X1520338Y465639D1*
X1520076Y464983D1*
X1520116Y464327D1*
X1520240Y463671D1*
X1520402Y463015D1*
X1520850Y462358D1*
X1522446Y461702D1*
X1525031Y461046D1*
X1528249Y460390D1*
X1528905Y468920D2*
X1529006Y468264D1*
X1529169Y467608D1*
X1529339Y466952D1*
X1529454Y466295D1*
X1529515Y465639D1*
X1529540Y464983D1*
X1529528Y464327D1*
X1529444Y463671D1*
X1529288Y463015D1*
X1528858Y462358D1*
X1527356Y461702D1*
X1524845Y461046D1*
X1521687Y460390D1*
X1529561Y468920D2*
X1530113Y468264D1*
X1530581Y467608D1*
X1530958Y466952D1*
X1531233Y466295D1*
X1531393Y465639D1*
X1531473Y464983D1*
X1531507Y464327D1*
X1531519Y463671D1*
X1531501Y463015D1*
X1531417Y462358D1*
X1531234Y461702D1*
X1530955Y461046D1*
X1530546Y460390D1*
X1529916Y459734D1*
X1528974Y459078D1*
X1527710Y458421D1*
X1526280Y457765D1*
X1530217Y468920D2*
X1532029Y468264D1*
X1533613Y467608D1*
X1534855Y466952D1*
X1535753Y466295D1*
X1536380Y465639D1*
X1536823Y464983D1*
X1537124Y464327D1*
X1537294Y463671D1*
X1537376Y463015D1*
X1537410Y462358D1*
X1537399Y461702D1*
X1537303Y461046D1*
X1537081Y460390D1*
X1536779Y459734D1*
X1518406Y453172D2*
Y452516D1*
Y451860D1*
Y451204D1*
Y450547D1*
Y449891D1*
Y449235D1*
Y448579D1*
Y447923D1*
Y447267D1*
Y446610D1*
Y445954D1*
Y445298D1*
Y444642D1*
Y443986D1*
X1520375Y453172D2*
X1520377Y452516D1*
X1520403Y451860D1*
X1520512Y451204D1*
X1520776Y450547D1*
X1521196Y449891D1*
X1521687Y449235D1*
X1534810Y453172D2*
Y452516D1*
Y451860D1*
Y451204D1*
Y450547D1*
Y449891D1*
Y449235D1*
X1536123Y453172D2*
X1536349Y452516D1*
X1536573Y451860D1*
X1536827Y451204D1*
X1537216Y450547D1*
X1537727Y449891D1*
X1538190Y449235D1*
X1538486Y448579D1*
X1538645Y447923D1*
X1538747Y447267D1*
X1520375D2*
Y446610D1*
Y445954D1*
Y445298D1*
Y444642D1*
Y443986D1*
X1523655Y439393D2*
X1522169Y438736D1*
X1520943Y438080D1*
X1519998Y437424D1*
X1519299Y436768D1*
X1518823Y436112D1*
X1518493Y435455D1*
X1518220Y434799D1*
X1518002Y434143D1*
X1517871Y433487D1*
X1517826Y432831D1*
X1517881Y432175D1*
X1518049Y431518D1*
X1518299Y430862D1*
X1518597Y430206D1*
X1518958Y429550D1*
X1519458Y428894D1*
X1520197Y428238D1*
X1521252Y427581D1*
X1522671Y426925D1*
X1524312Y426269D1*
X1532186Y439393D2*
X1533697Y438736D1*
X1535007Y438080D1*
X1536112Y437424D1*
X1536999Y436768D1*
X1537653Y436112D1*
X1538140Y435455D1*
X1538536Y434799D1*
X1538869Y434143D1*
X1539122Y433487D1*
X1539273Y432831D1*
X1539349Y432175D1*
X1539382Y431518D1*
X1539396Y430862D1*
X1539401Y430206D1*
X1539402Y429550D1*
X1539403Y428894D1*
Y428238D1*
X1526280Y437424D2*
X1524471Y436768D1*
X1522907Y436112D1*
X1521728Y435455D1*
X1520929Y434799D1*
X1520338Y434143D1*
X1520076Y433487D1*
X1520116Y432831D1*
X1520240Y432175D1*
X1520402Y431518D1*
X1520850Y430862D1*
X1522446Y430206D1*
X1525031Y429550D1*
X1528249Y428894D1*
X1528905Y437424D2*
X1529006Y436768D1*
X1529169Y436112D1*
X1529339Y435455D1*
X1529454Y434799D1*
X1529515Y434143D1*
X1529540Y433487D1*
X1529528Y432831D1*
X1529444Y432175D1*
X1529288Y431518D1*
X1528858Y430862D1*
X1527356Y430206D1*
X1524845Y429550D1*
X1521687Y428894D1*
X1529561Y437424D2*
X1530113Y436768D1*
X1530581Y436112D1*
X1530958Y435455D1*
X1531233Y434799D1*
X1531393Y434143D1*
X1531473Y433487D1*
X1531507Y432831D1*
X1531519Y432175D1*
X1531501Y431518D1*
X1531417Y430862D1*
X1531234Y430206D1*
X1530955Y429550D1*
X1530546Y428894D1*
X1529916Y428238D1*
X1528974Y427581D1*
X1527710Y426925D1*
X1526280Y426269D1*
X1530217Y437424D2*
X1532029Y436768D1*
X1533613Y436112D1*
X1534855Y435455D1*
X1535753Y434799D1*
X1536380Y434143D1*
X1536823Y433487D1*
X1537124Y432831D1*
X1537294Y432175D1*
X1537376Y431518D1*
X1537410Y430862D1*
X1537399Y430206D1*
X1537303Y429550D1*
X1537081Y428894D1*
X1536779Y428238D1*
X530408Y1409525D2*
D68*
X529436Y1411448D1*
X526584Y1414322D1*
X546658D1*
X531359Y1421471D2*
X530409D1*
X528485Y1422421D1*
X527534Y1423372D1*
X526584Y1425295D1*
Y1429120D1*
X527534Y1431021D1*
X528485Y1431972D1*
X530409Y1432945D1*
X532310D1*
X534233Y1431972D1*
X537085Y1430071D1*
X546658Y1420498D1*
Y1433895D1*
X526562Y1440071D2*
X546658Y1447720D1*
X526562Y1455370D1*
Y1461545D2*
X546658D1*
Y1468244D1*
X545685Y1471118D1*
X543784Y1473041D1*
X541860Y1473992D1*
X539008Y1474943D1*
X534211D1*
X531337Y1473992D1*
X529436Y1473041D1*
X527512Y1471118D1*
X526562Y1468244D1*
Y1461545D1*
X533260Y1481118D2*
X546658D1*
X539008D2*
X536134Y1482091D1*
X534211Y1483992D1*
X533260Y1485916D1*
Y1488790D1*
Y1506439D2*
X546658D1*
X536134D2*
X534211Y1504538D1*
X533260Y1502615D1*
Y1499763D1*
X534211Y1497839D1*
X536134Y1495938D1*
X539008Y1494965D1*
X540910D1*
X543784Y1495938D1*
X545685Y1497839D1*
X546658Y1499763D1*
Y1502615D1*
X545685Y1504538D1*
X543784Y1506439D1*
X526562Y1512615D2*
X527512Y1513566D1*
X526562Y1514538D1*
X525589Y1513566D1*
X526562Y1512615D1*
X533260Y1513566D2*
X546658D1*
X533260Y1520714D2*
X546658D1*
X537085D2*
X534211Y1523588D1*
X533260Y1525511D1*
Y1528363D1*
X534211Y1530287D1*
X537085Y1531237D1*
X546658D1*
X531886Y613782D2*
Y604231D1*
X540486Y603281D1*
X539535Y604231D1*
X538562Y607105D1*
Y609957D1*
X539535Y612831D1*
X541436Y614754D1*
X544310Y615705D1*
X546212D1*
X549086Y614754D1*
X551009Y612831D1*
X551960Y609957D1*
Y607105D1*
X551009Y604231D1*
X550036Y603281D1*
X548135Y602308D1*
X531864Y621881D2*
X551960Y629530D1*
X531864Y637179D1*
X538562Y648130D2*
X539513Y646229D1*
X541436Y644306D1*
X544310Y643355D1*
X546212D1*
X549086Y644306D1*
X550987Y646229D1*
X551960Y648130D1*
Y651004D1*
X550987Y652928D1*
X549086Y654829D1*
X546212Y655802D1*
X544310D1*
X541436Y654829D1*
X539513Y652928D1*
X538562Y651004D1*
Y648130D1*
X531864Y661977D2*
X551960D1*
X531864Y671027D2*
X548135D1*
X550987Y671978D1*
X551960Y673901D1*
Y675802D1*
X538562Y668153D2*
Y674852D1*
X542387Y681978D2*
Y690600D1*
X541436Y693452D1*
X540463Y694425D1*
X538562Y695375D1*
X535688D1*
X533787Y694425D1*
X532814Y693452D1*
X531864Y690600D1*
Y681978D1*
X551960D1*
X538562Y706326D2*
X539513Y704425D1*
X541436Y702502D1*
X544310Y701551D1*
X546212D1*
X549086Y702502D1*
X550987Y704425D1*
X551960Y706326D1*
Y709200D1*
X550987Y711124D1*
X549086Y713025D1*
X546212Y713998D1*
X544310D1*
X541436Y713025D1*
X539513Y711124D1*
X538562Y709200D1*
Y706326D1*
Y720174D2*
X551960Y723998D1*
X538562Y727823D1*
X551960Y731648D1*
X538562Y735472D1*
X544310Y741648D2*
Y753122D1*
X542387D1*
X540463Y752171D1*
X539513Y751221D1*
X538562Y749297D1*
Y746423D1*
X539513Y744522D1*
X541436Y742599D1*
X544310Y741648D1*
X546212D1*
X549086Y742599D1*
X550987Y744522D1*
X551960Y746423D1*
Y749297D1*
X550987Y751221D1*
X549086Y753122D1*
X538562Y759298D2*
X551960D1*
X544310D2*
X541436Y760270D1*
X539513Y762172D1*
X538562Y764095D1*
Y766969D1*
X770765Y1361786D2*
X763094Y1381882D1*
X755445Y1361786D1*
X758319Y1368485D2*
X767891D1*
X783640Y1381882D2*
Y1361786D1*
X776941Y1381882D2*
X790338D1*
X811813Y1361786D2*
Y1381882D1*
X804163Y1361786D1*
X796514Y1381882D1*
Y1361786D1*
X830413Y1381882D2*
X817988D1*
Y1361786D1*
X830413D1*
X817988Y1372310D2*
X825638D1*
X850937Y1377107D2*
X849986Y1379008D1*
X848063Y1380932D1*
X846161Y1381882D1*
X842337D1*
X840413Y1380932D1*
X838512Y1379008D1*
X837539Y1377107D1*
X836589Y1374233D1*
Y1369436D1*
X837539Y1366584D1*
X838512Y1364660D1*
X840413Y1362759D1*
X842337Y1361786D1*
X846161D1*
X848063Y1362759D1*
X849986Y1364660D1*
X850937Y1366584D1*
Y1369436D1*
X846161D1*
X872433Y1361786D2*
X864762Y1381882D1*
X857112Y1361786D1*
X859986Y1368485D2*
X869559D1*
X554924Y914029D2*
X553022Y913079D1*
X551099Y911155D1*
X550148Y909254D1*
Y905429D1*
X551099Y903506D1*
X553022Y901605D1*
X554924Y900632D1*
X557798Y899681D1*
X562595D1*
X565447Y900632D1*
X567370Y901605D1*
X569272Y903506D1*
X570244Y905429D1*
Y909254D1*
X569272Y911155D1*
X567370Y913079D1*
X565447Y914029D1*
X553995Y920205D2*
X553022Y922128D1*
X550170Y925002D1*
X570244D1*
X1141666Y1311138D2*
X1140716Y1313040D1*
X1138792Y1314963D1*
X1136891Y1315914D1*
X1133066D1*
X1131143Y1314963D1*
X1129242Y1313040D1*
X1128269Y1311138D1*
X1127318Y1308264D1*
Y1303467D1*
X1128269Y1300615D1*
X1129242Y1298692D1*
X1131143Y1296791D1*
X1133066Y1295818D1*
X1136891D1*
X1138792Y1296791D1*
X1140716Y1298692D1*
X1141666Y1300615D1*
X1148815Y1311116D2*
Y1312067D1*
X1149765Y1313990D1*
X1150716Y1314941D1*
X1152639Y1315892D1*
X1156464D1*
X1158365Y1314941D1*
X1159316Y1313990D1*
X1160289Y1312067D1*
Y1310166D1*
X1159316Y1308242D1*
X1157415Y1305390D1*
X1147842Y1295818D1*
X1161239D1*
X1390191Y1807391D2*
X1389240Y1809292D1*
X1387317Y1811216D1*
X1385416Y1812166D1*
X1381591D1*
X1379668Y1811216D1*
X1377766Y1809292D1*
X1376794Y1807391D1*
X1375843Y1804517D1*
Y1799720D1*
X1376794Y1796868D1*
X1377766Y1794944D1*
X1379668Y1793043D1*
X1381591Y1792070D1*
X1385416D1*
X1387317Y1793043D1*
X1389240Y1794944D1*
X1390191Y1796868D1*
Y1799720D1*
X1385416D1*
X1409764Y1812166D2*
Y1792070D1*
X1396367Y1812166D1*
Y1792070D1*
X1415940Y1812166D2*
Y1792070D1*
X1422638D1*
X1425512Y1793043D1*
X1427436Y1794944D1*
X1428386Y1796868D1*
X1429337Y1799720D1*
Y1804517D1*
X1428386Y1807391D1*
X1427436Y1809292D1*
X1425512Y1811216D1*
X1422638Y1812166D1*
X1415940D1*
X1435513D2*
X1443162Y1792070D1*
X1450811Y1812166D1*
X1471335Y1807391D2*
X1470384Y1809292D1*
X1468461Y1811216D1*
X1466560Y1812166D1*
X1462735D1*
X1460812Y1811216D1*
X1458910Y1809292D1*
X1457938Y1807391D1*
X1456987Y1804517D1*
Y1799720D1*
X1457938Y1796868D1*
X1458910Y1794944D1*
X1460812Y1793043D1*
X1462735Y1792070D1*
X1466560D1*
X1468461Y1793043D1*
X1470384Y1794944D1*
X1471335Y1796868D1*
X1491859Y1807391D2*
X1490908Y1809292D1*
X1488985Y1811216D1*
X1487083Y1812166D1*
X1483259D1*
X1481335Y1811216D1*
X1479434Y1809292D1*
X1478461Y1807391D1*
X1477511Y1804517D1*
Y1799720D1*
X1478461Y1796868D1*
X1479434Y1794944D1*
X1481335Y1793043D1*
X1483259Y1792070D1*
X1487083D1*
X1488985Y1793043D1*
X1490908Y1794944D1*
X1491859Y1796868D1*
X954529Y1812166D2*
X942082D1*
Y1792070D1*
Y1802594D2*
X949732D1*
X976026Y1792070D2*
X968354Y1812166D1*
X960705Y1792070D1*
X963579Y1798769D2*
X973152D1*
X995599Y1812166D2*
Y1792070D1*
X982201Y1812166D1*
Y1792070D1*
X1017073D2*
Y1812166D1*
X1009424Y1792070D1*
X1001774Y1812166D1*
Y1792070D1*
X1028997Y1812166D2*
X1027073Y1811216D1*
X1025172Y1809292D1*
X1024199Y1807391D1*
X1023249Y1804517D1*
Y1799720D1*
X1024199Y1796868D1*
X1025172Y1794944D1*
X1027073Y1793043D1*
X1028997Y1792070D1*
X1032821D1*
X1034723Y1793043D1*
X1036646Y1794944D1*
X1037597Y1796868D1*
X1038547Y1799720D1*
Y1804517D1*
X1037597Y1807391D1*
X1036646Y1809292D1*
X1034723Y1811216D1*
X1032821Y1812166D1*
X1028997D1*
X1058120Y1809292D2*
X1056219Y1811216D1*
X1053345Y1812166D1*
X1049520D1*
X1046646Y1811216D1*
X1044723Y1809292D1*
Y1807391D1*
X1045696Y1805468D1*
X1046646Y1804517D1*
X1048548Y1803566D1*
X1054296Y1801643D1*
X1056219Y1800692D1*
X1057170Y1799720D1*
X1058120Y1797818D1*
Y1794944D1*
X1056219Y1793043D1*
X1053345Y1792070D1*
X1049520D1*
X1046646Y1793043D1*
X1044723Y1794944D1*
X1076743Y1812166D2*
X1064296D1*
Y1792070D1*
Y1802594D2*
X1071945D1*
X1095343Y1812166D2*
X1082918D1*
Y1792070D1*
X1095343D1*
X1082918Y1802594D2*
X1090568D1*
X1108217Y1812166D2*
Y1792070D1*
X1101519Y1812166D2*
X1114916D1*
X1384063Y1019475D2*
Y999379D1*
X1403636Y1016601D2*
X1401734Y1018524D1*
X1398860Y1019475D1*
X1395036D1*
X1392162Y1018524D1*
X1390238Y1016601D1*
Y1014700D1*
X1391211Y1012776D1*
X1392162Y1011825D1*
X1394063Y1010875D1*
X1399811Y1008951D1*
X1401734Y1008001D1*
X1402685Y1007028D1*
X1403636Y1005127D1*
Y1002253D1*
X1401734Y1000352D1*
X1398860Y999379D1*
X1395036D1*
X1392162Y1000352D1*
X1390238Y1002253D1*
X1409811Y1008951D2*
X1418433D1*
X1421285Y1009902D1*
X1422258Y1010875D1*
X1423209Y1012776D1*
Y1015650D1*
X1422258Y1017551D1*
X1421285Y1018524D1*
X1418433Y1019475D1*
X1409811D1*
Y999379D1*
X530382Y1092595D2*
X550478D1*
Y1104069D1*
X535157Y1124592D2*
X533256Y1123642D1*
X531333Y1121718D1*
X530382Y1119817D1*
Y1115992D1*
X531333Y1114069D1*
X533256Y1112168D1*
X535157Y1111195D1*
X538031Y1110244D1*
X542829D1*
X545681Y1111195D1*
X547604Y1112168D1*
X549505Y1114069D1*
X550478Y1115992D1*
Y1119817D1*
X549505Y1121718D1*
X547604Y1123642D1*
X545681Y1124592D1*
X530382Y1130768D2*
X550478D1*
Y1137467D1*
X549505Y1140341D1*
X547604Y1142264D1*
X545681Y1143215D1*
X542829Y1144165D1*
X538031D1*
X535157Y1143215D1*
X533256Y1142264D1*
X531333Y1140341D1*
X530382Y1137467D1*
Y1130768D1*
Y1159914D2*
X545681D1*
X548555Y1158963D1*
X549505Y1157990D1*
X550478Y1156089D1*
Y1154166D1*
X549505Y1152264D1*
X548555Y1151314D1*
X545681Y1150341D1*
X543779D1*
X537081Y1166089D2*
X546653D1*
X549505Y1167040D1*
X550478Y1168963D1*
Y1171837D1*
X549505Y1173739D1*
X546653Y1176613D1*
X537081D2*
X550478D1*
X537081Y1182788D2*
X550478D1*
X540905D2*
X538031Y1185663D1*
X537081Y1187586D1*
Y1190438D1*
X538031Y1192361D1*
X540905Y1193312D1*
X550478D1*
X540905D2*
X538031Y1196186D1*
X537081Y1198109D1*
Y1200961D1*
X538031Y1202884D1*
X540905Y1203857D1*
X550478D1*
X537081Y1210033D2*
X557177D1*
X539955D2*
X538053Y1211956D1*
X537081Y1213858D1*
Y1216732D1*
X538053Y1218655D1*
X539955Y1220556D1*
X542829Y1221529D1*
X544752D1*
X547604Y1220556D1*
X549527Y1218655D1*
X550478Y1216732D1*
Y1213858D1*
X549527Y1211956D1*
X547604Y1210033D1*
X542829Y1227705D2*
Y1239179D1*
X540905D1*
X538982Y1238228D1*
X538031Y1237277D1*
X537081Y1235354D1*
Y1232480D1*
X538031Y1230579D1*
X539955Y1228655D1*
X542829Y1227705D1*
X544730D1*
X547604Y1228655D1*
X549505Y1230579D1*
X550478Y1232480D1*
Y1235354D1*
X549505Y1237277D1*
X547604Y1239179D1*
X537081Y1245354D2*
X550478D1*
X542829D2*
X539955Y1246327D1*
X538031Y1248228D1*
X537081Y1250152D1*
Y1253026D1*
X784444Y1468869D2*
X782520Y1466967D1*
X781570Y1464093D1*
Y1460269D1*
X782520Y1457395D1*
X784444Y1455471D1*
X786345D1*
X788268Y1456444D1*
X789219Y1457395D1*
X790170Y1459296D1*
X792093Y1465044D1*
X793044Y1466967D1*
X794016Y1467918D1*
X795918Y1468869D1*
X798792D1*
X800693Y1466967D1*
X801666Y1464093D1*
Y1460269D1*
X800693Y1457395D1*
X798792Y1455471D1*
X786345Y1489392D2*
X784444Y1488442D1*
X782520Y1486518D1*
X781570Y1484617D1*
Y1480792D1*
X782520Y1478869D1*
X784444Y1476968D1*
X786345Y1475995D1*
X789219Y1475044D1*
X794016D1*
X796868Y1475995D1*
X798792Y1476968D1*
X800693Y1478869D1*
X801666Y1480792D1*
Y1484617D1*
X800693Y1486518D1*
X798792Y1488442D1*
X796868Y1489392D1*
X781570Y1495568D2*
X801666D1*
Y1507042D1*
X781570Y1513218D2*
X801666D1*
X781570Y1526615D2*
X794967Y1513218D1*
X790170Y1517993D2*
X801666Y1526615D1*
X781570Y1532791D2*
X801666D1*
Y1544265D1*
X781570Y1562865D2*
Y1550440D1*
X801666D1*
Y1562865D1*
X791142Y1550440D2*
Y1558090D1*
X781570Y1569041D2*
X801666D1*
Y1575739D1*
X800693Y1578613D1*
X798792Y1580537D1*
X796868Y1581487D1*
X794016Y1582438D1*
X789219D1*
X786345Y1581487D1*
X784444Y1580537D1*
X782520Y1578613D1*
X781570Y1575739D1*
Y1569041D1*
X1255536Y1438009D2*
X1255537Y1446631D1*
X1254586Y1449482D1*
X1253613Y1450455D1*
X1251712Y1451406D1*
X1248838D1*
X1246937Y1450455D1*
X1245964Y1449482D1*
X1245013Y1446631D1*
Y1438009D1*
X1265109D1*
X1245013Y1463330D2*
X1245964Y1461406D1*
X1247887Y1459505D1*
X1249788Y1458532D1*
X1252663Y1457581D1*
X1257460D1*
X1260312Y1458532D1*
X1262235Y1459505D1*
X1264136Y1461406D1*
X1265109Y1463329D1*
Y1467154D1*
X1264136Y1469055D1*
X1262235Y1470979D1*
X1260312Y1471929D1*
X1257460Y1472880D1*
X1252662D1*
X1249788Y1471929D1*
X1247887Y1470979D1*
X1245964Y1469055D1*
X1245013Y1467154D1*
Y1463330D1*
Y1479056D2*
X1265109Y1483853D1*
X1245013Y1488628D1*
X1265109Y1493404D1*
X1245013Y1498201D1*
Y1516801D2*
Y1504377D1*
X1265109D1*
Y1516801D1*
X1254586Y1504377D2*
Y1512026D1*
Y1522977D2*
Y1531577D1*
X1253613Y1534451D1*
X1252662Y1535424D1*
X1250761Y1536374D1*
X1248838D1*
X1246937Y1535424D1*
X1245964Y1534451D1*
X1245013Y1531577D1*
Y1522977D1*
X1265109D1*
X1254586Y1529676D2*
X1265109Y1536374D1*
X1245013Y1542550D2*
X1265109D1*
Y1554024D1*
X1245013Y1572624D2*
Y1560200D1*
X1265109D1*
Y1572624D1*
X1254586Y1560200D2*
Y1567849D1*
X1245013Y1578800D2*
X1265109D1*
Y1585499D1*
X1264136Y1588373D1*
X1262235Y1590296D1*
X1260312Y1591247D1*
X1257460Y1592197D1*
X1252662D1*
X1249788Y1591247D1*
X1247887Y1590296D1*
X1245964Y1588373D1*
X1245013Y1585499D1*
Y1578800D1*
X1019400Y1464459D2*
X1017477Y1462558D1*
X1016526Y1459684D1*
Y1455860D1*
X1017477Y1452986D1*
X1019400Y1451062D1*
X1021302D1*
X1023225Y1452035D1*
X1024176Y1452986D1*
X1025126Y1454887D1*
X1027050Y1460635D1*
X1028000Y1462558D1*
X1028973Y1463509D1*
X1030874Y1464459D1*
X1033748D1*
X1035650Y1462558D1*
X1036622Y1459684D1*
Y1455860D1*
X1035650Y1452986D1*
X1033748Y1451062D1*
X1016526Y1477334D2*
X1036622D1*
X1016526Y1470635D2*
Y1484032D1*
X1036622Y1505529D2*
X1016526Y1497857D1*
X1036622Y1490208D1*
X1029924Y1493082D2*
Y1502655D1*
X1016526Y1518403D2*
X1036622D1*
X1016526Y1511705D2*
Y1525102D1*
Y1531278D2*
X1030874D1*
X1033748Y1532228D1*
X1035650Y1534152D1*
X1036622Y1537026D1*
Y1538927D1*
X1035650Y1541801D1*
X1033748Y1543724D1*
X1030874Y1544675D1*
X1016526D1*
X1019400Y1564248D2*
X1017477Y1562347D1*
X1016526Y1559473D1*
Y1555648D1*
X1017477Y1552774D1*
X1019400Y1550851D1*
X1021302D1*
X1023225Y1551823D1*
X1024176Y1552774D1*
X1025126Y1554675D1*
X1027050Y1560423D1*
X1028000Y1562347D1*
X1028973Y1563297D1*
X1030874Y1564248D1*
X1033748D1*
X1035650Y1562347D1*
X1036622Y1559473D1*
Y1555648D1*
X1035650Y1552774D1*
X1033748Y1550851D1*
X1016526Y1570424D2*
X1036622D1*
Y1581898D1*
X1016526Y1600498D2*
Y1588073D1*
X1036622D1*
Y1600498D1*
X1026099Y1588073D2*
Y1595723D1*
X1016526Y1606674D2*
X1036622D1*
Y1613372D1*
X1035650Y1616246D1*
X1033748Y1618170D1*
X1031825Y1619120D1*
X1028973Y1620071D1*
X1024176D1*
X1021302Y1619120D1*
X1019400Y1618170D1*
X1017477Y1616246D1*
X1016526Y1613372D1*
Y1606674D1*
X1020373Y1626247D2*
X1019400Y1628170D1*
X1016548Y1631044D1*
X1036622D1*
X1245001Y1243492D2*
X1243078Y1241591D1*
X1242127Y1238717D1*
Y1234892D1*
X1243078Y1232018D1*
X1245001Y1230095D1*
X1246903D1*
X1248826Y1231067D1*
X1249777Y1232018D1*
X1250727Y1233919D1*
X1252651Y1239667D1*
X1253601Y1241591D1*
X1254574Y1242541D1*
X1256475Y1243492D1*
X1259349D1*
X1261251Y1241591D1*
X1262223Y1238717D1*
Y1234892D1*
X1261251Y1232018D1*
X1259349Y1230095D1*
X1262223Y1264988D2*
X1242127Y1257317D1*
X1262223Y1249668D1*
X1255525Y1252542D2*
Y1262114D1*
X1242127Y1277863D2*
X1262223D1*
X1242127Y1271164D2*
Y1284561D1*
Y1290737D2*
X1256475D1*
X1259349Y1291688D1*
X1261251Y1293611D1*
X1262223Y1296485D1*
Y1298386D1*
X1261251Y1301260D1*
X1259349Y1303184D1*
X1256475Y1304134D1*
X1242127D1*
X1245001Y1323707D2*
X1243078Y1321806D1*
X1242127Y1318932D1*
Y1315107D1*
X1243078Y1312233D1*
X1245001Y1310310D1*
X1246903D1*
X1248826Y1311283D1*
X1249777Y1312233D1*
X1250727Y1314135D1*
X1252651Y1319883D1*
X1253601Y1321806D1*
X1254574Y1322757D1*
X1256475Y1323707D1*
X1259349D1*
X1261251Y1321806D1*
X1262223Y1318932D1*
Y1315107D1*
X1261251Y1312233D1*
X1259349Y1310310D1*
X1242127Y1329883D2*
X1262223D1*
Y1341357D1*
X1242127Y1359957D2*
Y1347533D1*
X1262223D1*
Y1359957D1*
X1251700Y1347533D2*
Y1355182D1*
X1242127Y1366133D2*
X1262223D1*
Y1372832D1*
X1261251Y1375706D1*
X1259349Y1377629D1*
X1257426Y1378580D1*
X1254574Y1379530D1*
X1249777D1*
X1246903Y1378580D1*
X1245001Y1377629D1*
X1243078Y1375706D1*
X1242127Y1372832D1*
Y1366133D1*
X1246925Y1386679D2*
X1245974D1*
X1244051Y1387629D1*
X1243100Y1388580D1*
X1242149Y1390503D1*
Y1394328D1*
X1243100Y1396229D1*
X1244051Y1397180D1*
X1245974Y1398153D1*
X1247875D1*
X1249799Y1397180D1*
X1252651Y1395279D1*
X1262223Y1385706D1*
Y1399103D1*
X609915Y1504957D2*
X630011D1*
X609915Y1518354D2*
X630011D1*
X619487Y1504957D2*
Y1518354D1*
X609915Y1536954D2*
Y1524530D1*
X630011D1*
Y1536954D1*
X619487Y1524530D2*
Y1532179D1*
X630011Y1558451D2*
X609915Y1550779D1*
X630011Y1543130D1*
X623312Y1546004D2*
Y1555577D1*
X609915Y1571325D2*
X630011D1*
X609915Y1564626D2*
Y1578024D1*
Y1596624D2*
Y1584199D1*
X630011D1*
Y1596624D1*
X619487Y1584199D2*
Y1591849D1*
Y1602800D2*
Y1611400D1*
X618515Y1614274D1*
X617564Y1615246D1*
X615663Y1616197D1*
X613739D1*
X611838Y1615246D1*
X610865Y1614274D1*
X609915Y1611400D1*
Y1602800D1*
X630011D1*
X619487Y1609498D2*
X630011Y1616197D1*
Y1637671D2*
X609915D1*
X630011Y1630022D1*
X609915Y1622373D1*
X630011D1*
X609915Y1649595D2*
X610865Y1647672D1*
X612789Y1645770D1*
X614690Y1644798D1*
X617564Y1643847D1*
X622361D1*
X625213Y1644798D1*
X627137Y1645770D1*
X629038Y1647672D1*
X630011Y1649595D1*
Y1653420D1*
X629038Y1655321D1*
X627137Y1657244D1*
X625213Y1658195D1*
X622361Y1659146D1*
X617564D1*
X614690Y1658195D1*
X612789Y1657244D1*
X610865Y1655321D1*
X609915Y1653420D1*
Y1649595D1*
X612789Y1678719D2*
X610865Y1676817D1*
X609915Y1673943D1*
Y1670119D1*
X610865Y1667245D1*
X612789Y1665321D1*
X614690D1*
X616613Y1666294D1*
X617564Y1667245D1*
X618515Y1669146D1*
X620438Y1674894D1*
X621389Y1676817D1*
X622361Y1677768D1*
X624263Y1678719D1*
X627137D1*
X629038Y1676817D1*
X630011Y1673943D1*
Y1670119D1*
X629038Y1667245D1*
X627137Y1665321D1*
X609915Y1697341D2*
Y1684894D1*
X630011D1*
X619487D2*
Y1692544D1*
X609915Y1715941D2*
Y1703517D1*
X630011D1*
Y1715941D1*
X619487Y1703517D2*
Y1711166D1*
X609915Y1728816D2*
X630011D1*
X609915Y1722117D2*
Y1735514D1*
X468315Y900200D2*
X468316Y908800D1*
X467343Y911674D1*
X466392Y912647D1*
X464491Y913597D1*
X462567D1*
X460666Y912647D1*
X459693Y911674D1*
X458743Y908800D1*
Y900200D1*
X478839D1*
X468316Y906899D2*
X478839Y913597D1*
X462590Y919773D2*
X461617Y921696D1*
X458765Y924570D1*
X478839D1*
X593046Y1433729D2*
X601645D1*
X604519Y1434702D1*
X605492Y1435652D1*
X606443Y1437554D1*
Y1439477D1*
X605492Y1441378D1*
X604519Y1442351D1*
X601645Y1443302D1*
X593046D1*
Y1423206D1*
X599744Y1433729D2*
X606443Y1423206D1*
X613591Y1438504D2*
Y1439455D1*
X614542Y1441378D1*
X615493Y1442329D1*
X617416Y1443279D1*
X621241D1*
X623142Y1442329D1*
X624093Y1441378D1*
X625065Y1439455D1*
Y1437554D1*
X624093Y1435630D1*
X622191Y1432778D1*
X612619Y1423206D1*
X626016D1*
X1419941Y1512506D2*
X1428540D1*
X1431414Y1513479D1*
X1432387Y1514429D1*
X1433338Y1516330D1*
Y1518254D1*
X1432387Y1520155D1*
X1431414Y1521128D1*
X1428540Y1522078D1*
X1419941D1*
Y1501982D1*
X1426639Y1512506D2*
X1433338Y1501982D1*
X1441437Y1522056D2*
X1451938D1*
X1446212Y1514407D1*
X1449086D1*
X1450988Y1513456D1*
X1451938Y1512506D1*
X1452911Y1509632D1*
Y1507730D1*
X1451938Y1504856D1*
X1450037Y1502933D1*
X1447163Y1501982D1*
X1444289D1*
X1441437Y1502933D1*
X1440486Y1503906D1*
X1439514Y1505807D1*
X885838Y1585301D2*
X894438D1*
X897312Y1586274D1*
X898285Y1587224D1*
X899235Y1589126D1*
Y1591049D1*
X898285Y1592950D1*
X897312Y1593923D1*
X894438Y1594874D1*
X885838D1*
Y1574778D1*
X892537Y1585301D2*
X899235Y1574778D1*
X914984D2*
Y1594852D1*
X905411Y1581476D1*
X919759D1*
X1131083Y1597531D2*
X1139683D1*
X1142557Y1598503D1*
X1143530Y1599454D1*
X1144480Y1601355D1*
Y1603279D1*
X1143530Y1605180D1*
X1142557Y1606153D1*
X1139683Y1607103D1*
X1131083D1*
Y1587007D1*
X1137782Y1597531D2*
X1144480Y1587007D1*
X1162130Y1604229D2*
X1161179Y1606131D1*
X1158305Y1607081D1*
X1156404D1*
X1153530Y1606131D1*
X1151607Y1603257D1*
X1150656Y1598481D1*
Y1593706D1*
X1151607Y1589881D1*
X1153530Y1587958D1*
X1156404Y1587007D1*
X1157355D1*
X1160207Y1587958D1*
X1162130Y1589881D1*
X1163081Y1592755D1*
Y1593706D1*
X1162130Y1596580D1*
X1160207Y1598481D1*
X1157355Y1599432D1*
X1156404D1*
X1153530Y1598481D1*
X1151607Y1596580D1*
X1150656Y1593706D1*
X1393926Y1282092D2*
X1402526D1*
X1405400Y1283065D1*
X1406373Y1284016D1*
X1407323Y1285917D1*
Y1287840D1*
X1406373Y1289742D1*
X1405400Y1290714D1*
X1402526Y1291665D1*
X1393926D1*
Y1271569D1*
X1400625Y1282092D2*
X1407323Y1271569D1*
X1417324D2*
X1426896Y1291643D1*
X1413499D1*
X1029773Y1430199D2*
X1037422Y1420626D1*
Y1410103D1*
X1045071Y1430199D2*
X1037422Y1420626D1*
X1051247Y1426352D2*
X1053170Y1427325D1*
X1056045Y1430176D1*
Y1410103D1*
X596069Y1819119D2*
X586518D1*
X585568Y1810519D1*
X586518Y1811470D1*
X589392Y1812443D1*
X592244D1*
X595118Y1811470D1*
X597042Y1809569D1*
X597992Y1806695D1*
Y1804793D1*
X597042Y1801919D1*
X595118Y1799996D1*
X592244Y1799045D1*
X589392D1*
X586518Y1799996D1*
X585568Y1800969D1*
X584595Y1802870D1*
X604168Y1819141D2*
X611817Y1799045D1*
X619467Y1819141D1*
X638089D2*
X625642D1*
Y1799045D1*
Y1809569D2*
X633292D1*
X655739Y1812443D2*
Y1799045D1*
Y1809569D2*
X653837Y1811492D1*
X651914Y1812443D1*
X649062D1*
X647139Y1811492D1*
X645237Y1809569D1*
X644265Y1806695D1*
Y1804793D1*
X645237Y1801919D1*
X647139Y1800018D1*
X649062Y1799045D1*
X651914D1*
X653837Y1800018D1*
X655739Y1801919D1*
X661914Y1812443D2*
Y1799045D1*
Y1808618D2*
X664788Y1811492D1*
X666712Y1812443D1*
X669564D1*
X671487Y1811492D1*
X672438Y1808618D1*
Y1799045D1*
X1169246Y910531D2*
X1167345Y909580D1*
X1165422Y907657D1*
X1164471Y905756D1*
Y901931D1*
X1165422Y900008D1*
X1167345Y898106D1*
X1169246Y897134D1*
X1172120Y896183D1*
X1176918D1*
X1179770Y897134D1*
X1181693Y898106D1*
X1183594Y900008D1*
X1184567Y901931D1*
Y905756D1*
X1183594Y907657D1*
X1181693Y909580D1*
X1179770Y910531D1*
X1184567Y926279D2*
X1164493D1*
X1177869Y916707D1*
Y931054D1*
X1086303Y908784D2*
X1084402Y907834D1*
X1082478Y905910D1*
X1081528Y904009D1*
Y900185D1*
X1082478Y898261D1*
X1084402Y896360D1*
X1086303Y895387D1*
X1089177Y894436D1*
X1093974D1*
X1096826Y895387D1*
X1098750Y896360D1*
X1100651Y898261D1*
X1101624Y900184D1*
Y904009D1*
X1100651Y905910D1*
X1098750Y907834D1*
X1096826Y908784D1*
X1081550Y926434D2*
Y916883D1*
X1090150Y915933D1*
X1089199Y916883D1*
X1088226Y919757D1*
Y922609D1*
X1089199Y925483D1*
X1091100Y927407D1*
X1093974Y928357D1*
X1095876D1*
X1098750Y927407D1*
X1100673Y925483D1*
X1101624Y922609D1*
Y919757D1*
X1100673Y916883D1*
X1099700Y915933D1*
X1097799Y914960D1*
X852299Y1773815D2*
X860899D1*
X863773Y1774788D1*
X864746Y1775739D1*
X865697Y1777640D1*
Y1779564D1*
X864746Y1781465D1*
X863773Y1782438D1*
X860899Y1783388D1*
X852299D1*
Y1763292D1*
X858998Y1773815D2*
X865697Y1763292D1*
X876648Y1783366D2*
X873796Y1782415D1*
X872823Y1780514D1*
Y1778591D1*
X873796Y1776690D1*
X875697Y1775717D1*
X879522Y1774766D1*
X882396Y1773815D1*
X884297Y1771892D1*
X885248Y1769991D1*
Y1767117D1*
X884297Y1765216D1*
X883346Y1764243D1*
X880472Y1763292D1*
X876648D1*
X873796Y1764243D1*
X872823Y1765216D1*
X871872Y1767117D1*
Y1769991D1*
X872823Y1771892D1*
X874746Y1773815D1*
X877598Y1774766D1*
X881423Y1775717D1*
X883346Y1776690D1*
X884297Y1778591D1*
Y1780514D1*
X883346Y1782415D1*
X880472Y1783366D1*
X876648D1*
X1238090Y1730668D2*
X1236189Y1729717D1*
X1234266Y1727794D1*
X1233315Y1725892D1*
Y1722068D1*
X1234266Y1720144D1*
X1236189Y1718243D1*
X1238090Y1717270D1*
X1240964Y1716320D1*
X1245762D1*
X1248614Y1717270D1*
X1250537Y1718243D1*
X1252438Y1720144D1*
X1253411Y1722068D1*
Y1725892D1*
X1252438Y1727794D1*
X1250537Y1729717D1*
X1248614Y1730668D1*
X1253411Y1740668D2*
X1233337Y1750241D1*
Y1736843D1*
X745164Y882451D2*
Y868103D1*
X746114Y865229D1*
X748038Y863328D1*
X750912Y862355D1*
X752813D1*
X755687Y863328D1*
X757610Y865229D1*
X758561Y868103D1*
Y882451D1*
X765709Y877654D2*
Y878604D1*
X766660Y880528D1*
X767611Y881478D1*
X769534Y882429D1*
X773359D1*
X775260Y881478D1*
X776211Y880528D1*
X777183Y878604D1*
Y876703D1*
X776211Y874780D1*
X774309Y871928D1*
X764737Y862355D1*
X778134D1*
X1118663Y749159D2*
Y757759D1*
X1117691Y760633D1*
X1116740Y761605D1*
X1114839Y762556D1*
X1112915D1*
X1111014Y761605D1*
X1110041Y760633D1*
X1109091Y757759D1*
Y749159D1*
X1129187D1*
X1118663Y755857D2*
X1129187Y762556D1*
X1115789Y781178D2*
X1118663Y780206D1*
X1120587Y778304D1*
X1121537Y775430D1*
Y774480D1*
X1120587Y771606D1*
X1118663Y769704D1*
X1115789Y768732D1*
X1114839D1*
X1111965Y769704D1*
X1110063Y771606D1*
X1109113Y774480D1*
Y775430D1*
X1110063Y778304D1*
X1111965Y780206D1*
X1115789Y781178D1*
X1120587D1*
X1125362Y780206D1*
X1128236Y778304D1*
X1129187Y775430D1*
Y773529D1*
X1128236Y770655D1*
X1126313Y769704D1*
X1118144Y597224D2*
Y605824D1*
X1117171Y608698D1*
X1116220Y609671D1*
X1114319Y610622D1*
X1112396D1*
X1110494Y609671D1*
X1109522Y608698D1*
X1108571Y605824D1*
Y597224D1*
X1128667D1*
X1118144Y603923D2*
X1128667Y610622D1*
X1112418Y616797D2*
X1111445Y618721D1*
X1108593Y621595D1*
X1128667D1*
X1108593Y633519D2*
X1109544Y630645D1*
X1112418Y628721D1*
X1117193Y627770D1*
X1120067D1*
X1124842Y628721D1*
X1127716Y630644D1*
X1128667Y633518D1*
Y635420D1*
X1127716Y638294D1*
X1124842Y640195D1*
X1120067Y641168D1*
X1117193D1*
X1112418Y640195D1*
X1109544Y638294D1*
X1108593Y635420D1*
Y633519D1*
X1112418Y640195D2*
X1124842Y628721D1*
X967550Y723133D2*
X987646D1*
X967550Y716435D2*
Y729832D1*
Y736008D2*
X987646Y749405D1*
X967550D2*
X987646Y736008D1*
X967550Y755581D2*
X987646D1*
Y767055D1*
X967550Y785655D2*
Y773230D1*
X987646D1*
Y785655D1*
X977123Y773230D2*
Y780880D1*
X967550Y791831D2*
X987646D1*
Y798529D1*
X986673Y801403D1*
X984772Y803327D1*
X982849Y804277D1*
X979997Y805228D1*
X975199D1*
X972325Y804277D1*
X970424Y803327D1*
X968501Y801403D1*
X967550Y798529D1*
Y791831D1*
X973598Y580949D2*
Y589549D1*
X972625Y592423D1*
X971674Y593396D1*
X969773Y594346D1*
X967850D1*
X965948Y593396D1*
X964976Y592423D1*
X964025Y589549D1*
Y580949D1*
X984121D1*
X973598Y587648D2*
X984121Y594346D1*
X964025Y600522D2*
X984121Y613919D1*
X964025D2*
X984121Y600522D1*
X964025Y620095D2*
X984121D1*
Y631569D1*
X964025Y650169D2*
Y637745D1*
X984121D1*
Y650169D1*
X973598Y637745D2*
Y645394D1*
X964025Y656345D2*
X984121D1*
Y663044D1*
X983148Y665918D1*
X981247Y667841D1*
X979324Y668792D1*
X976472Y669742D1*
X971674D1*
X968800Y668792D1*
X966899Y667841D1*
X964976Y665918D1*
X964025Y663044D1*
Y656345D1*
X954950Y931978D2*
X963550D1*
X966424Y932951D1*
X967397Y933902D1*
X968347Y935803D1*
Y937726D1*
X967397Y939628D1*
X966424Y940600D1*
X963550Y941551D1*
X954950D1*
Y921455D1*
X961648Y931978D2*
X968347Y921455D1*
X984096D2*
Y941529D1*
X974523Y928154D1*
X988871D1*
X995997Y923378D2*
X995047Y922406D1*
X995997Y921455D1*
X996970Y922406D1*
X995997Y923378D1*
X1006970Y921455D2*
X1016543Y941529D1*
X1003146D1*
X1022719Y941551D2*
Y921455D1*
X1036116Y941551D2*
X1022719Y928154D1*
X1027494Y932951D2*
X1036116Y921455D1*
X1043264Y936754D2*
Y937704D1*
X1044215Y939628D1*
X1045166Y940578D1*
X1047089Y941529D1*
X1050914D1*
X1052815Y940578D1*
X1053766Y939628D1*
X1054738Y937704D1*
Y935803D1*
X1053766Y933879D1*
X1051864Y931028D1*
X1042292Y921455D1*
X1055689D1*
X1321196Y619959D2*
Y605611D1*
X1322147Y602737D1*
X1324070Y600836D1*
X1326944Y599863D1*
X1328845D1*
X1331720Y600836D1*
X1333643Y602737D1*
X1334594Y605611D1*
Y619959D1*
X1350342Y599863D2*
Y619937D1*
X1340769Y606562D1*
X1355117D1*
X1050180Y1728624D2*
X1048278Y1727673D1*
X1046355Y1725750D1*
X1045404Y1723849D1*
Y1720024D1*
X1046355Y1718101D1*
X1048278Y1716199D1*
X1050180Y1715227D1*
X1053054Y1714276D1*
X1057851D1*
X1060703Y1715227D1*
X1062626Y1716199D1*
X1064528Y1718100D1*
X1065500Y1720024D1*
Y1723848D1*
X1064528Y1725750D1*
X1062626Y1727673D1*
X1060703Y1728624D1*
X1048278Y1746273D2*
X1046377Y1745323D1*
X1045426Y1742449D1*
Y1740548D1*
X1046377Y1737673D1*
X1049251Y1735750D1*
X1054026Y1734799D1*
X1058802D1*
X1062626Y1735750D1*
X1064550Y1737673D1*
X1065500Y1740547D1*
Y1741498D1*
X1064550Y1744350D1*
X1062626Y1746273D1*
X1059752Y1747224D1*
X1058802D1*
X1055928Y1746273D1*
X1054026Y1744350D1*
X1053076Y1741498D1*
Y1740547D1*
X1054026Y1737673D1*
X1055928Y1735750D1*
X1058802Y1734799D1*
X1153275Y1711711D2*
Y1720311D1*
X1152302Y1723185D1*
X1151351Y1724157D1*
X1149450Y1725108D1*
X1147527D1*
X1145626Y1724157D1*
X1144653Y1723185D1*
X1143702Y1720311D1*
Y1711711D1*
X1163798D1*
X1153275Y1718409D2*
X1163798Y1725108D1*
X1147549Y1731284D2*
X1146576Y1733207D1*
X1143724Y1736081D1*
X1163798D1*
X1147549Y1742257D2*
X1146576Y1744180D1*
X1143724Y1747054D1*
X1163798D1*
X1184760Y1886952D2*
X1183809Y1888854D1*
X1181886Y1890777D1*
X1179985Y1891728D1*
X1176160D1*
X1174237Y1890777D1*
X1172335Y1888854D1*
X1171363Y1886952D1*
X1170412Y1884078D1*
Y1879281D1*
X1171363Y1876429D1*
X1172335Y1874506D1*
X1174237Y1872604D1*
X1176160Y1871632D1*
X1179985D1*
X1181886Y1872604D1*
X1183809Y1874506D1*
X1184760Y1876429D1*
Y1879281D1*
X1179985D1*
X1204333Y1891728D2*
Y1871632D1*
X1190936Y1891728D1*
Y1871632D1*
X1210509Y1891728D2*
Y1871632D1*
X1217207D1*
X1220081Y1872604D1*
X1222005Y1874506D1*
X1222955Y1876429D1*
X1223906Y1879281D1*
Y1884078D1*
X1222955Y1886952D1*
X1222005Y1888854D1*
X1220081Y1890777D1*
X1217207Y1891728D1*
X1210509D1*
X782558Y1886717D2*
X781607Y1888619D1*
X779684Y1890542D1*
X777782Y1891493D1*
X773958D1*
X772034Y1890542D1*
X770133Y1888619D1*
X769160Y1886717D1*
X768210Y1883843D1*
Y1879046D1*
X769160Y1876194D1*
X770133Y1874271D1*
X772034Y1872369D1*
X773958Y1871397D1*
X777782D1*
X779684Y1872369D1*
X781607Y1874271D1*
X782558Y1876194D1*
Y1879046D1*
X777782D1*
X804054Y1871397D2*
X796383Y1891493D1*
X788733Y1871397D1*
X791607Y1878095D2*
X801180D1*
X816929Y1891493D2*
Y1871397D1*
X810230Y1891493D2*
X823627D1*
X842228D2*
X829803D1*
Y1871397D1*
X842228D1*
X829803Y1881920D2*
X837452D1*
X668980Y1452152D2*
X668030Y1454053D1*
X666106Y1455976D1*
X664205Y1456927D1*
X660380D1*
X658457Y1455976D1*
X656556Y1454053D1*
X655583Y1452152D1*
X654632Y1449278D1*
Y1444480D1*
X655583Y1441628D1*
X656556Y1439705D1*
X658457Y1437804D1*
X660380Y1436831D1*
X664205D1*
X666106Y1437804D1*
X668030Y1439705D1*
X668980Y1441628D1*
Y1444480D1*
X664205D1*
X690477Y1436831D2*
X682805Y1456927D1*
X675156Y1436831D1*
X678030Y1443530D2*
X687603D1*
X703351Y1456927D2*
Y1436831D1*
X696652Y1456927D2*
X710050D1*
X728650D2*
X716225D1*
Y1436831D1*
X728650D1*
X716225Y1447354D2*
X723875D1*
X748008Y1775803D2*
X747057Y1777704D1*
X745134Y1779627D1*
X743233Y1780578D1*
X739408D1*
X737485Y1779627D1*
X735583Y1777704D1*
X734611Y1775803D1*
X733660Y1772929D1*
Y1768131D1*
X734611Y1765279D1*
X735583Y1763356D1*
X737485Y1761455D1*
X739408Y1760482D1*
X743233D1*
X745134Y1761455D1*
X747057Y1763356D1*
X748008Y1765279D1*
Y1768131D1*
X743233D1*
X767581Y1780578D2*
Y1760482D1*
X754184Y1780578D1*
Y1760482D1*
X773757Y1780578D2*
Y1760482D1*
X780455D1*
X783329Y1761455D1*
X785253Y1763356D1*
X786203Y1765279D1*
X787154Y1768131D1*
Y1772929D1*
X786203Y1775803D1*
X785253Y1777704D1*
X783329Y1779627D1*
X780455Y1780578D1*
X773757D1*
X1521364Y725438D2*
X1519463Y724488D1*
X1517539Y722564D1*
X1516589Y720663D1*
X1516588Y716839D1*
X1517539Y714915D1*
X1519462Y713014D1*
X1521364Y712041D1*
X1524238Y711091D1*
X1529035D1*
X1531887Y712041D1*
X1533810Y713014D1*
X1535712Y714915D1*
X1536685Y716838D1*
Y720663D1*
X1535712Y722564D1*
X1533811Y724488D1*
X1531887Y725438D1*
X1529035D1*
Y720663D1*
X1516589Y745011D2*
X1536684D1*
X1516589Y731614D1*
X1536685D1*
X1516589Y751187D2*
X1536684D1*
Y757886D1*
X1535712Y760760D1*
X1533810Y762683D1*
X1531887Y763634D1*
X1529035Y764584D1*
X1524238D1*
X1521364Y763634D1*
X1519463Y762683D1*
X1517539Y760760D1*
X1516589Y757886D1*
Y751187D1*
X1513283Y909325D2*
X1533379Y916975D1*
X1513283Y924624D1*
X1518058Y945148D2*
X1516157Y944197D1*
X1514233Y942274D1*
X1513283Y940372D1*
Y936548D1*
X1514233Y934624D1*
X1516157Y932723D1*
X1518058Y931750D1*
X1520932Y930800D1*
X1525729D1*
X1528581Y931750D1*
X1530505Y932723D1*
X1532406Y934624D1*
X1533379Y936548D1*
Y940372D1*
X1532406Y942274D1*
X1530505Y944197D1*
X1528581Y945148D1*
X1518058Y965671D2*
X1516157Y964721D1*
X1514233Y962797D1*
X1513283Y960896D1*
Y957071D1*
X1514233Y955148D1*
X1516157Y953247D1*
X1518058Y952274D1*
X1520932Y951323D1*
X1525729D1*
X1528581Y952274D1*
X1530505Y953247D1*
X1532406Y955148D1*
X1533379Y957071D1*
Y960896D1*
X1532406Y962797D1*
X1530505Y964721D1*
X1528581Y965671D1*
X1535740Y826468D2*
X1515644D1*
X1535740Y818818D1*
X1515644Y811169D1*
X1535740D1*
X1515644Y838392D2*
X1516594Y836468D1*
X1518518Y834567D1*
X1520419Y833594D1*
X1523293Y832643D1*
X1528090D1*
X1530942Y833594D1*
X1532866Y834567D1*
X1534767Y836468D1*
X1535740Y838391D1*
Y842216D1*
X1534767Y844117D1*
X1532866Y846041D1*
X1530942Y846991D1*
X1528090Y847942D1*
X1523293D1*
X1520419Y846991D1*
X1518518Y846041D1*
X1516594Y844117D1*
X1515644Y842216D1*
Y838392D1*
X1518518Y867515D2*
X1516594Y865614D1*
X1515644Y862740D1*
Y858915D1*
X1516594Y856041D1*
X1518518Y854118D1*
X1520419D1*
X1522342Y855091D1*
X1523293Y856041D1*
X1524244Y857942D1*
X1526167Y863690D1*
X1527118Y865614D1*
X1528090Y866564D1*
X1529992Y867515D1*
X1532866D1*
X1534767Y865614D1*
X1535740Y862740D1*
Y858915D1*
X1534767Y856041D1*
X1532866Y854118D1*
X1515644Y873691D2*
X1535740D1*
X1282101Y691706D2*
Y700306D1*
X1281128Y703180D1*
X1280177Y704153D1*
X1278276Y705103D1*
X1276353D1*
X1274452Y704153D1*
X1273479Y703180D1*
X1272528Y700306D1*
Y691706D1*
X1292624D1*
X1282101Y698405D2*
X1292624Y705103D1*
X1272528Y723704D2*
Y711279D1*
X1292624D1*
Y723703D1*
X1282101Y711279D2*
Y718928D1*
X1275402Y743277D2*
X1273479Y741375D1*
X1272528Y738501D1*
Y734677D1*
X1273479Y731803D1*
X1275402Y729879D1*
X1277303D1*
X1279227Y730852D1*
X1280177Y731803D1*
X1281128Y733704D1*
X1283051Y739452D1*
X1284002Y741375D1*
X1284975Y742326D1*
X1286876Y743277D1*
X1289750D1*
X1291651Y741375D1*
X1292624Y738501D1*
Y734677D1*
X1291651Y731803D1*
X1289750Y729879D1*
X1272528Y761877D2*
Y749452D1*
X1292624D1*
Y761877D1*
X1282101Y749452D2*
Y757102D1*
X1272528Y774751D2*
X1292624D1*
X1272528Y768053D2*
Y781450D1*
X1276583Y817641D2*
X1274660Y815740D1*
X1273709Y812866D1*
Y809041D1*
X1274660Y806167D1*
X1276583Y804244D1*
X1278484D1*
X1280408Y805217D1*
X1281359Y806167D1*
X1282309Y808069D1*
X1284233Y813817D1*
X1285183Y815740D1*
X1286156Y816691D1*
X1288057Y817641D1*
X1290931D1*
X1292833Y815740D1*
X1293805Y812866D1*
Y809041D1*
X1292832Y806167D1*
X1290931Y804244D1*
X1278485Y838165D2*
X1276583Y837214D1*
X1274660Y835291D1*
X1273709Y833390D1*
Y829565D1*
X1274660Y827642D1*
X1276583Y825740D1*
X1278485Y824768D1*
X1281359Y823817D1*
X1286156D1*
X1289008Y824768D1*
X1290931Y825740D1*
X1292832Y827642D1*
X1293805Y829565D1*
Y833390D1*
X1292832Y835291D1*
X1290931Y837214D1*
X1289008Y838165D1*
X1273709Y844341D2*
X1293805D1*
Y855815D1*
X1273709Y861990D2*
X1293805D1*
X1273709Y875388D2*
X1287107Y861990D1*
X1282309Y866766D2*
X1293805Y875388D1*
X1292954Y921035D2*
X1272858D1*
X1292954Y913385D1*
X1272857Y905736D1*
X1292953D1*
X1272858Y932958D2*
X1273808Y931035D1*
X1275732Y929134D1*
X1277633Y928161D1*
X1280507Y927210D1*
X1285304D1*
X1288156Y928161D1*
X1290080Y929134D1*
X1291981Y931035D1*
X1292954Y932958D1*
Y936783D1*
X1291981Y938684D1*
X1290080Y940608D1*
X1288156Y941558D1*
X1285304Y942509D1*
X1280507D1*
X1277633Y941558D1*
X1275732Y940608D1*
X1273808Y938684D1*
X1272858Y936783D1*
Y932958D1*
X1275732Y962082D2*
X1273808Y960181D1*
X1272858Y957307D1*
Y953482D1*
X1273808Y950608D1*
X1275732Y948685D1*
X1277633D1*
X1279556Y949657D1*
X1280507Y950608D1*
X1281457Y952509D1*
X1283381Y958257D1*
X1284331Y960181D1*
X1285304Y961131D1*
X1287205Y962082D1*
X1290080D1*
X1291981Y960181D1*
X1292954Y957307D1*
Y953482D1*
X1291981Y950608D1*
X1290080Y948685D1*
X1272858Y974006D2*
X1273808Y972082D1*
X1275732Y970181D1*
X1277633Y969208D1*
X1280507Y968258D1*
X1285304D1*
X1288156Y969208D1*
X1290079Y970181D1*
X1291981Y972082D1*
X1292954Y974006D1*
Y977830D1*
X1291981Y979732D1*
X1290079Y981655D1*
X1288156Y982606D1*
X1285304Y983556D1*
X1280507D1*
X1277633Y982606D1*
X1275732Y981655D1*
X1273808Y979732D1*
X1272858Y977830D1*
Y974006D1*
M02*
